  0
SECTION
  2
HEADER
  9
$ACADVER
  1
AC1014
  9
$HANDSEED
  5
FFFF
  9
$INSUNITS
 70
     4
  9
$MEASUREMENT
 70
     1
  0
ENDSEC
  0
SECTION
  2
TABLES
  0
TABLE
  2
VPORT
  5
8
330
0
100
AcDbSymbolTable
 70
     4
  0
VPORT
  5
2E
330
8
100
AcDbSymbolTableRecord
100
AcDbViewportTableRecord
  2
*ACTIVE
 70
     0
 10
0.0
 20
0.0
 11
1.0
 21
1.0
 12
210.0
 22
148.5
 13
0.0
 23
0.0
 14
10.0
 24
10.0
 15
10.0
 25
10.0
 16
0.0
 26
0.0
 36
1.0
 17
0.0
 27
0.0
 37
0.0
 40
341.0
 41
1.24
 42
50.0
 43
0.0
 44
0.0
 50
0.0
 51
0.0
 71
     0
 72
   100
 73
     1
 74
     3
 75
     0
 76
     0
 77
     0
 78
     0
  0
ENDTAB
  0
TABLE
  2
LTYPE
  5
5
330
0
100
AcDbSymbolTable
 70
     1
  0
LTYPE
  5
14
330
5
100
AcDbSymbolTableRecord
100
AcDbLinetypeTableRecord
  2
BYBLOCK
 70
     0
  3

 72
    65
 73
     0
 40
0.0
  0
LTYPE
  5
15
330
5
100
AcDbSymbolTableRecord
100
AcDbLinetypeTableRecord
  2
BYLAYER
 70
     0
  3

 72
    65
 73
     0
 40
0.0
  0
LTYPE
  5
16
330
5
100
AcDbSymbolTableRecord
100
AcDbLinetypeTableRecord
  2
CONTINUOUS
 70
     0
  3
Solid line
 72
    65
 73
     0
 40
0.0
  0
ENDTAB
  0
TABLE
  2
LAYER
  5
2
100
AcDbSymbolTable
 70
1
  0
LAYER
  5
50
100
AcDbSymbolTableRecord
100
AcDbLayerTableRecord
  2
0
 70
0
  6
CONTINUOUS
  0
ENDTAB
  0
TABLE
  2
STYLE
  5
3
330
0
100
AcDbSymbolTable
 70
     1
  0
STYLE
  5
11
330
3
100
AcDbSymbolTableRecord
100
AcDbTextStyleTableRecord
  2
STANDARD
 70
     0
 40
0.0
 41
1.0
 50
0.0
 71
     0
 42
2.5
  3
txt
  4

  0
ENDTAB
  0
TABLE
  2
VIEW
  5
6
330
0
100
AcDbSymbolTable
 70
     0
  0
ENDTAB
  0
TABLE
  2
UCS
  5
7
330
0
100
AcDbSymbolTable
 70
     0
  0
ENDTAB
  0
TABLE
  2
APPID
  5
9
330
0
100
AcDbSymbolTable
 70
     2
  0
APPID
  5
12
330
9
100
AcDbSymbolTableRecord
100
AcDbRegAppTableRecord
  2
ACAD
 70
     0
  0
ENDTAB
  0
TABLE
  2
DIMSTYLE
  5
A
330
0
100
AcDbSymbolTable
 70
     1
  0
DIMSTYLE
105
27
330
A
100
AcDbSymbolTableRecord
100
AcDbDimStyleTableRecord
  2
ISO-25
 70
     0
  3

  4

  5

  6

  7

 40
1.0
 41
2.5
 42
0.625
 43
3.75
 44
1.25
 45
0.0
 46
0.0
 47
0.0
 48
0.0
140
2.5
141
2.5
142
0.0
143
0.03937007874016
144
1.0
145
0.0
146
1.0
147
0.625
 71
     0
 72
     0
 73
     0
 74
     0
 75
     0
 76
     0
 77
     1
 78
     8
170
     0
171
     3
172
     1
173
     0
174
     0
175
     0
176
     0
177
     0
178
     0
270
     2
271
     2
272
     2
273
     2
274
     3
340
11
275
     0
280
     0
281
     0
282
     0
283
     0
284
     8
285
     0
286
     0
287
     3
288
     0
  0
ENDTAB
  0
TABLE
  2
BLOCK_RECORD
  5
1
330
0
100
AcDbSymbolTable
 70
     1
  0
BLOCK_RECORD
  5
1F
330
1
100
AcDbSymbolTableRecord
100
AcDbBlockTableRecord
  2
*MODEL_SPACE
  0
BLOCK_RECORD
  5
1B
330
1
100
AcDbSymbolTableRecord
100
AcDbBlockTableRecord
  2
*PAPER_SPACE
  0
ENDTAB
  0
ENDSEC
  0
SECTION
  2
BLOCKS
  0
BLOCK
  5
20
330
1F
100
AcDbEntity
  8
0
100
AcDbBlockBegin
  2
*MODEL_SPACE
 70
     0
 10
0.0
 20
0.0
 30
0.0
  3
*MODEL_SPACE
  1

  0
ENDBLK
  5
21
330
1F
100
AcDbEntity
  8
0
100
AcDbBlockEnd
  0
BLOCK
  5
1C
330
1B
100
AcDbEntity
 67
     1
  8
0
100
AcDbBlockBegin
  2
*PAPER_SPACE
  1

  0
ENDBLK
  5
1D
330
1B
100
AcDbEntity
 67
     1
  8
0
100
AcDbBlockEnd
  0
ENDSEC
  0
SECTION
  2
ENTITIES
  0
SPLINE
  5
100
100
AcDbEntity
  8
0
 62
1
100
AcDbSpline
 70
8
 71
3
 72
8
 73
4
 74
0
 40
0
 40
0
 40
0
 40
0
 40
1
 40
1
 40
1
 40
1
 10
149.914170
 20
491.922920
 30
0.0
 10
113.585170
 20
491.899040
 30
0.0
 10
77.253791
 20
491.941820
 30
0.0
 10
40.926361
 20
491.792639
 30
0.0
  0
SPLINE
  5
101
100
AcDbEntity
  8
0
 62
1
100
AcDbSpline
 70
8
 71
3
 72
8
 73
4
 74
0
 40
0
 40
0
 40
0
 40
0
 40
1
 40
1
 40
1
 40
1
 10
40.926361
 20
491.792639
 30
0.0
 10
33.106647
 20
490.901632
 30
0.0
 10
26.780821
 20
483.325902
 30
0.0
 10
27.172332
 20
475.486983
 30
0.0
  0
SPLINE
  5
102
100
AcDbEntity
  8
0
 62
1
100
AcDbSpline
 70
8
 71
3
 72
8
 73
4
 74
0
 40
0
 40
0
 40
0
 40
0
 40
1
 40
1
 40
1
 40
1
 10
27.172332
 20
475.486983
 30
0.0
 10
27.308258
 20
448.627902
 30
0.0
 10
27.037872
 20
421.766641
 30
0.0
 10
27.453234
 20
394.909250
 30
0.0
  0
SPLINE
  5
103
100
AcDbEntity
  8
0
 62
1
100
AcDbSpline
 70
8
 71
3
 72
8
 73
4
 74
0
 40
0
 40
0
 40
0
 40
0
 40
1
 40
1
 40
1
 40
1
 10
27.453234
 20
394.909250
 30
0.0
 10
28.623470
 20
386.151190
 30
0.0
 10
36.071964
 20
378.781470
 30
0.0
 10
44.828234
 20
377.567450
 30
0.0
  0
SPLINE
  5
104
100
AcDbEntity
  8
0
 62
1
100
AcDbSpline
 70
8
 71
3
 72
8
 73
4
 74
0
 40
0
 40
0
 40
0
 40
0
 40
1
 40
1
 40
1
 40
1
 10
44.828234
 20
377.567450
 30
0.0
 10
47.296026
 20
377.245360
 30
0.0
 10
49.791659
 20
377.481250
 30
0.0
 10
52.272369
 20
377.404130
 30
0.0
  0
SPLINE
  5
105
100
AcDbEntity
  8
0
 62
1
100
AcDbSpline
 70
8
 71
3
 72
8
 73
4
 74
0
 40
0
 40
0
 40
0
 40
0
 40
1
 40
1
 40
1
 40
1
 10
52.272369
 20
377.404130
 30
0.0
 10
101.367080
 20
377.304830
 30
0.0
 10
150.462060
 20
377.314230
 30
0.0
 10
199.556710
 20
377.427630
 30
0.0
  0
SPLINE
  5
106
100
AcDbEntity
  8
0
 62
1
100
AcDbSpline
 70
8
 71
3
 72
8
 73
4
 74
0
 40
0
 40
0
 40
0
 40
0
 40
1
 40
1
 40
1
 40
1
 10
199.556710
 20
377.427630
 30
0.0
 10
203.136250
 20
377.466730
 30
0.0
 10
206.728300
 20
377.413230
 30
0.0
 10
210.297440
 20
377.668960
 30
0.0
  0
SPLINE
  5
107
100
AcDbEntity
  8
0
 62
1
100
AcDbSpline
 70
8
 71
3
 72
8
 73
4
 74
0
 40
0
 40
0
 40
0
 40
0
 40
1
 40
1
 40
1
 40
1
 10
210.297440
 20
377.668960
 30
0.0
 10
215.646780
 20
378.705690
 30
0.0
 10
220.129540
 20
383.001120
 30
0.0
 10
221.927840
 20
387.981560
 30
0.0
  0
SPLINE
  5
108
100
AcDbEntity
  8
0
 62
1
100
AcDbSpline
 70
8
 71
3
 72
8
 73
4
 74
0
 40
0
 40
0
 40
0
 40
0
 40
1
 40
1
 40
1
 40
1
 10
221.927840
 20
387.981560
 30
0.0
 10
222.742540
 20
390.139570
 30
0.0
 10
222.963540
 20
392.470950
 30
0.0
 10
222.789330
 20
394.758520
 30
0.0
  0
SPLINE
  5
109
100
AcDbEntity
  8
0
 62
1
100
AcDbSpline
 70
8
 71
3
 72
8
 73
4
 74
0
 40
0
 40
0
 40
0
 40
0
 40
1
 40
1
 40
1
 40
1
 10
222.789330
 20
394.758520
 30
0.0
 10
222.766730
 20
421.286061
 30
0.0
 10
222.930620
 20
447.817743
 30
0.0
 10
222.569230
 20
474.342172
 30
0.0
  0
SPLINE
  5
10a
100
AcDbEntity
  8
0
 62
1
100
AcDbSpline
 70
8
 71
3
 72
8
 73
4
 74
0
 40
0
 40
0
 40
0
 40
0
 40
1
 40
1
 40
1
 40
1
 10
222.569230
 20
474.342172
 30
0.0
 10
221.303180
 20
483.973355
 30
0.0
 10
212.289280
 20
491.960084
 30
0.0
 10
202.545810
 20
491.888479
 30
0.0
  0
SPLINE
  5
10b
100
AcDbEntity
  8
0
 62
1
100
AcDbSpline
 70
8
 71
3
 72
8
 73
4
 74
0
 40
0
 40
0
 40
0
 40
0
 40
1
 40
1
 40
1
 40
1
 10
202.545810
 20
491.888479
 30
0.0
 10
185.001970
 20
491.939849
 30
0.0
 10
167.458060
 20
491.924359
 30
0.0
 10
149.914170
 20
491.922969
 30
0.0
  0
LINE
  5
10c
100
AcDbEntity
  8
0
 62
1
100
AcDbLine
 10
149.914170
 20
491.922969
 30
0.0
 11
149.914170
 21
491.922920
 31
0.0
  0
SPLINE
  5
10d
100
AcDbEntity
  8
0
 62
1
100
AcDbSpline
 70
8
 71
3
 72
8
 73
4
 74
0
 40
0
 40
0
 40
0
 40
0
 40
1
 40
1
 40
1
 40
1
 10
187.033310
 20
468.756905
 30
0.0
 10
185.487410
 20
468.750605
 30
0.0
 10
184.434820
 20
466.830690
 30
0.0
 10
185.305780
 20
465.539698
 30
0.0
  0
SPLINE
  5
10e
100
AcDbEntity
  8
0
 62
1
100
AcDbSpline
 70
8
 71
3
 72
8
 73
4
 74
0
 40
0
 40
0
 40
0
 40
0
 40
1
 40
1
 40
1
 40
1
 10
185.305780
 20
465.539698
 30
0.0
 10
186.063040
 20
464.116500
 30
0.0
 10
188.407480
 20
464.219048
 30
0.0
 10
189.017010
 20
465.719601
 30
0.0
  0
SPLINE
  5
10f
100
AcDbEntity
  8
0
 62
1
100
AcDbSpline
 70
8
 71
3
 72
8
 73
4
 74
0
 40
0
 40
0
 40
0
 40
0
 40
1
 40
1
 40
1
 40
1
 10
189.017010
 20
465.719601
 30
0.0
 10
189.757520
 20
467.101577
 30
0.0
 10
188.593260
 20
468.862983
 30
0.0
 10
187.033310
 20
468.756905
 30
0.0
  0
LINE
  5
110
100
AcDbEntity
  8
0
 62
1
100
AcDbLine
 10
187.033310
 20
468.756905
 30
0.0
 11
187.033310
 21
468.756905
 31
0.0
  0
SPLINE
  5
111
100
AcDbEntity
  8
0
 62
1
100
AcDbSpline
 70
8
 71
3
 72
8
 73
4
 74
0
 40
0
 40
0
 40
0
 40
0
 40
1
 40
1
 40
1
 40
1
 10
187.033310
 20
400.176831
 30
0.0
 10
185.487410
 20
400.170831
 30
0.0
 10
184.434820
 20
398.250610
 30
0.0
 10
185.305780
 20
396.959620
 30
0.0
  0
SPLINE
  5
112
100
AcDbEntity
  8
0
 62
1
100
AcDbSpline
 70
8
 71
3
 72
8
 73
4
 74
0
 40
0
 40
0
 40
0
 40
0
 40
1
 40
1
 40
1
 40
1
 10
185.305780
 20
396.959620
 30
0.0
 10
186.063040
 20
395.536420
 30
0.0
 10
188.407480
 20
395.638970
 30
0.0
 10
189.017010
 20
397.139520
 30
0.0
  0
SPLINE
  5
113
100
AcDbEntity
  8
0
 62
1
100
AcDbSpline
 70
8
 71
3
 72
8
 73
4
 74
0
 40
0
 40
0
 40
0
 40
0
 40
1
 40
1
 40
1
 40
1
 10
189.017010
 20
397.139520
 30
0.0
 10
189.757520
 20
398.521500
 30
0.0
 10
188.593260
 20
400.282901
 30
0.0
 10
187.033310
 20
400.176831
 30
0.0
  0
LINE
  5
114
100
AcDbEntity
  8
0
 62
1
100
AcDbLine
 10
187.033310
 20
400.176831
 30
0.0
 11
187.033310
 21
400.176831
 31
0.0
  0
SPLINE
  5
115
100
AcDbEntity
  8
0
 62
1
100
AcDbSpline
 70
8
 71
3
 72
8
 73
4
 74
0
 40
0
 40
0
 40
0
 40
0
 40
1
 40
1
 40
1
 40
1
 10
65.113390
 20
468.756905
 30
0.0
 10
63.567487
 20
468.750605
 30
0.0
 10
62.514902
 20
466.830690
 30
0.0
 10
63.385856
 20
465.539698
 30
0.0
  0
SPLINE
  5
116
100
AcDbEntity
  8
0
 62
1
100
AcDbSpline
 70
8
 71
3
 72
8
 73
4
 74
0
 40
0
 40
0
 40
0
 40
0
 40
1
 40
1
 40
1
 40
1
 10
63.385856
 20
465.539698
 30
0.0
 10
64.143117
 20
464.116500
 30
0.0
 10
66.487562
 20
464.219048
 30
0.0
 10
67.097084
 20
465.719601
 30
0.0
  0
SPLINE
  5
117
100
AcDbEntity
  8
0
 62
1
100
AcDbSpline
 70
8
 71
3
 72
8
 73
4
 74
0
 40
0
 40
0
 40
0
 40
0
 40
1
 40
1
 40
1
 40
1
 10
67.097084
 20
465.719601
 30
0.0
 10
67.836868
 20
467.101121
 30
0.0
 10
66.673560
 20
468.863243
 30
0.0
 10
65.113390
 20
468.756905
 30
0.0
  0
LINE
  5
118
100
AcDbEntity
  8
0
 62
1
100
AcDbLine
 10
65.113390
 20
468.756905
 30
0.0
 11
65.113390
 21
468.756905
 31
0.0
  0
SPLINE
  5
119
100
AcDbEntity
  8
0
 62
1
100
AcDbSpline
 70
8
 71
3
 72
8
 73
4
 74
0
 40
0
 40
0
 40
0
 40
0
 40
1
 40
1
 40
1
 40
1
 10
65.113390
 20
400.176831
 30
0.0
 10
63.567487
 20
400.170831
 30
0.0
 10
62.514902
 20
398.250610
 30
0.0
 10
63.385856
 20
396.959620
 30
0.0
  0
SPLINE
  5
11a
100
AcDbEntity
  8
0
 62
1
100
AcDbSpline
 70
8
 71
3
 72
8
 73
4
 74
0
 40
0
 40
0
 40
0
 40
0
 40
1
 40
1
 40
1
 40
1
 10
63.385856
 20
396.959620
 30
0.0
 10
64.143117
 20
395.536420
 30
0.0
 10
66.487562
 20
395.638970
 30
0.0
 10
67.097084
 20
397.139520
 30
0.0
  0
SPLINE
  5
11b
100
AcDbEntity
  8
0
 62
1
100
AcDbSpline
 70
8
 71
3
 72
8
 73
4
 74
0
 40
0
 40
0
 40
0
 40
0
 40
1
 40
1
 40
1
 40
1
 10
67.097084
 20
397.139520
 30
0.0
 10
67.836868
 20
398.521040
 30
0.0
 10
66.673560
 20
400.283161
 30
0.0
 10
65.113390
 20
400.176831
 30
0.0
  0
LINE
  5
11c
100
AcDbEntity
  8
0
 62
1
100
AcDbLine
 10
65.113390
 20
400.176831
 30
0.0
 11
65.113390
 21
400.176831
 31
0.0
  0
SPLINE
  5
11d
100
AcDbEntity
  8
0
 62
1
100
AcDbSpline
 70
8
 71
3
 72
8
 73
4
 74
0
 40
0
 40
0
 40
0
 40
0
 40
1
 40
1
 40
1
 40
1
 10
100.597040
 20
468.666156
 30
0.0
 10
98.127881
 20
468.636366
 30
0.0
 10
95.934201
 20
466.417850
 30
0.0
 10
96.018571
 20
463.935291
 30
0.0
  0
SPLINE
  5
11e
100
AcDbEntity
  8
0
 62
1
100
AcDbSpline
 70
8
 71
3
 72
8
 73
4
 74
0
 40
0
 40
0
 40
0
 40
0
 40
1
 40
1
 40
1
 40
1
 10
96.018571
 20
463.935291
 30
0.0
 10
95.970371
 20
461.356907
 30
0.0
 10
98.385801
 20
459.078817
 30
0.0
 10
100.966860
 20
459.290611
 30
0.0
  0
SPLINE
  5
11f
100
AcDbEntity
  8
0
 62
1
100
AcDbSpline
 70
8
 71
3
 72
8
 73
4
 74
0
 40
0
 40
0
 40
0
 40
0
 40
1
 40
1
 40
1
 40
1
 10
100.966860
 20
459.290611
 30
0.0
 10
103.446900
 20
459.372851
 30
0.0
 10
105.552520
 20
461.688804
 30
0.0
 10
105.403340
 20
464.163090
 30
0.0
  0
SPLINE
  5
120
100
AcDbEntity
  8
0
 62
1
100
AcDbSpline
 70
8
 71
3
 72
8
 73
4
 74
0
 40
0
 40
0
 40
0
 40
0
 40
1
 40
1
 40
1
 40
1
 10
105.403340
 20
464.163090
 30
0.0
 10
105.380740
 20
466.639890
 30
0.0
 10
103.071080
 20
468.793054
 30
0.0
 10
100.597040
 20
468.666156
 30
0.0
  0
LINE
  5
121
100
AcDbEntity
  8
0
 62
1
100
AcDbLine
 10
100.597040
 20
468.666156
 30
0.0
 11
100.597040
 21
468.666156
 31
0.0
  0
SPLINE
  5
122
100
AcDbEntity
  8
0
 62
1
100
AcDbSpline
 70
8
 71
3
 72
8
 73
4
 74
0
 40
0
 40
0
 40
0
 40
0
 40
1
 40
1
 40
1
 40
1
 10
151.397040
 20
468.666790
 30
0.0
 10
148.927880
 20
468.637000
 30
0.0
 10
146.734200
 20
466.418484
 30
0.0
 10
146.818570
 20
463.935925
 30
0.0
  0
SPLINE
  5
123
100
AcDbEntity
  8
0
 62
1
100
AcDbSpline
 70
8
 71
3
 72
8
 73
4
 74
0
 40
0
 40
0
 40
0
 40
0
 40
1
 40
1
 40
1
 40
1
 10
146.818570
 20
463.935925
 30
0.0
 10
146.770370
 20
461.357541
 30
0.0
 10
149.185800
 20
459.079451
 30
0.0
 10
151.766860
 20
459.291245
 30
0.0
  0
SPLINE
  5
124
100
AcDbEntity
  8
0
 62
1
100
AcDbSpline
 70
8
 71
3
 72
8
 73
4
 74
0
 40
0
 40
0
 40
0
 40
0
 40
1
 40
1
 40
1
 40
1
 10
151.766860
 20
459.291245
 30
0.0
 10
154.246900
 20
459.373485
 30
0.0
 10
156.352520
 20
461.689438
 30
0.0
 10
156.203340
 20
464.163724
 30
0.0
  0
SPLINE
  5
125
100
AcDbEntity
  8
0
 62
1
100
AcDbSpline
 70
8
 71
3
 72
8
 73
4
 74
0
 40
0
 40
0
 40
0
 40
0
 40
1
 40
1
 40
1
 40
1
 10
156.203340
 20
464.163724
 30
0.0
 10
156.180740
 20
466.640524
 30
0.0
 10
153.871080
 20
468.793688
 30
0.0
 10
151.397040
 20
468.666790
 30
0.0
  0
LINE
  5
126
100
AcDbEntity
  8
0
 62
1
100
AcDbLine
 10
151.397040
 20
468.666790
 30
0.0
 11
151.397040
 21
468.666790
 31
0.0
  0
SPLINE
  5
127
100
AcDbEntity
  8
0
 62
1
100
AcDbSpline
 70
8
 71
3
 72
8
 73
4
 74
0
 40
0
 40
0
 40
0
 40
0
 40
1
 40
1
 40
1
 40
1
 10
202.177940
 20
405.177791
 30
0.0
 10
199.708780
 20
405.147991
 30
0.0
 10
197.515100
 20
402.929481
 30
0.0
 10
197.599470
 20
400.446921
 30
0.0
  0
SPLINE
  5
128
100
AcDbEntity
  8
0
 62
1
100
AcDbSpline
 70
8
 71
3
 72
8
 73
4
 74
0
 40
0
 40
0
 40
0
 40
0
 40
1
 40
1
 40
1
 40
1
 10
197.599470
 20
400.446921
 30
0.0
 10
197.551270
 20
397.868540
 30
0.0
 10
199.966700
 20
395.590450
 30
0.0
 10
202.547760
 20
395.802240
 30
0.0
  0
SPLINE
  5
129
100
AcDbEntity
  8
0
 62
1
100
AcDbSpline
 70
8
 71
3
 72
8
 73
4
 74
0
 40
0
 40
0
 40
0
 40
0
 40
1
 40
1
 40
1
 40
1
 10
202.547760
 20
395.802240
 30
0.0
 10
205.027800
 20
395.884440
 30
0.0
 10
207.133420
 20
398.200440
 30
0.0
 10
206.984240
 20
400.674721
 30
0.0
  0
SPLINE
  5
12a
100
AcDbEntity
  8
0
 62
1
100
AcDbSpline
 70
8
 71
3
 72
8
 73
4
 74
0
 40
0
 40
0
 40
0
 40
0
 40
1
 40
1
 40
1
 40
1
 10
206.984240
 20
400.674721
 30
0.0
 10
206.961640
 20
403.151521
 30
0.0
 10
204.651980
 20
405.304691
 30
0.0
 10
202.177940
 20
405.177791
 30
0.0
  0
LINE
  5
12b
100
AcDbEntity
  8
0
 62
1
100
AcDbLine
 10
202.177940
 20
405.177791
 30
0.0
 11
202.177940
 21
405.177791
 31
0.0
  0
SPLINE
  5
12c
100
AcDbEntity
  8
0
 62
1
100
AcDbSpline
 70
8
 71
3
 72
8
 73
4
 74
0
 40
0
 40
0
 40
0
 40
0
 40
1
 40
1
 40
1
 40
1
 10
49.797041
 20
405.187791
 30
0.0
 10
47.327881
 20
405.157991
 30
0.0
 10
45.134201
 20
402.939481
 30
0.0
 10
45.218571
 20
400.456921
 30
0.0
  0
SPLINE
  5
12d
100
AcDbEntity
  8
0
 62
1
100
AcDbSpline
 70
8
 71
3
 72
8
 73
4
 74
0
 40
0
 40
0
 40
0
 40
0
 40
1
 40
1
 40
1
 40
1
 10
45.218571
 20
400.456921
 30
0.0
 10
45.170371
 20
397.878540
 30
0.0
 10
47.585801
 20
395.600450
 30
0.0
 10
50.166861
 20
395.812240
 30
0.0
  0
SPLINE
  5
12e
100
AcDbEntity
  8
0
 62
1
100
AcDbSpline
 70
8
 71
3
 72
8
 73
4
 74
0
 40
0
 40
0
 40
0
 40
0
 40
1
 40
1
 40
1
 40
1
 10
50.166861
 20
395.812240
 30
0.0
 10
52.646901
 20
395.894440
 30
0.0
 10
54.752521
 20
398.210440
 30
0.0
 10
54.603341
 20
400.684721
 30
0.0
  0
SPLINE
  5
12f
100
AcDbEntity
  8
0
 62
1
100
AcDbSpline
 70
8
 71
3
 72
8
 73
4
 74
0
 40
0
 40
0
 40
0
 40
0
 40
1
 40
1
 40
1
 40
1
 10
54.603341
 20
400.684721
 30
0.0
 10
54.580741
 20
403.161521
 30
0.0
 10
52.271081
 20
405.314691
 30
0.0
 10
49.797041
 20
405.187791
 30
0.0
  0
LINE
  5
130
100
AcDbEntity
  8
0
 62
1
100
AcDbLine
 10
49.797041
 20
405.187791
 30
0.0
 11
49.797041
 21
405.187791
 31
0.0
  0
SPLINE
  5
131
100
AcDbEntity
  8
0
 62
1
100
AcDbSpline
 70
8
 71
3
 72
8
 73
4
 74
0
 40
0
 40
0
 40
0
 40
0
 40
1
 40
1
 40
1
 40
1
 10
126.351670
 20
401.116281
 30
0.0
 10
124.535970
 20
401.113281
 30
0.0
 10
123.018060
 20
399.271510
 30
0.0
 10
123.422260
 20
397.489630
 30
0.0
  0
SPLINE
  5
132
100
AcDbEntity
  8
0
 62
1
100
AcDbSpline
 70
8
 71
3
 72
8
 73
4
 74
0
 40
0
 40
0
 40
0
 40
0
 40
1
 40
1
 40
1
 40
1
 10
123.422260
 20
397.489630
 30
0.0
 10
123.692940
 20
395.619570
 30
0.0
 10
125.953450
 20
394.417130
 30
0.0
 10
127.650770
 20
395.265800
 30
0.0
  0
SPLINE
  5
133
100
AcDbEntity
  8
0
 62
1
100
AcDbSpline
 70
8
 71
3
 72
8
 73
4
 74
0
 40
0
 40
0
 40
0
 40
0
 40
1
 40
1
 40
1
 40
1
 10
127.650770
 20
395.265800
 30
0.0
 10
129.475750
 20
395.969700
 30
0.0
 10
130.081290
 20
398.562440
 30
0.0
 10
128.775500
 20
400.018621
 30
0.0
  0
SPLINE
  5
134
100
AcDbEntity
  8
0
 62
1
100
AcDbSpline
 70
8
 71
3
 72
8
 73
4
 74
0
 40
0
 40
0
 40
0
 40
0
 40
1
 40
1
 40
1
 40
1
 10
128.775500
 20
400.018621
 30
0.0
 10
128.188200
 20
400.725241
 30
0.0
 10
127.271180
 20
401.148201
 30
0.0
 10
126.351670
 20
401.116281
 30
0.0
  0
LINE
  5
135
100
AcDbEntity
  8
0
 62
1
100
AcDbLine
 10
126.351670
 20
401.116281
 30
0.0
 11
126.351670
 21
401.116281
 31
0.0
  0
SPLINE
  5
136
100
AcDbEntity
  8
0
 62
1
100
AcDbSpline
 70
8
 71
3
 72
8
 73
4
 74
0
 40
0
 40
0
 40
0
 40
0
 40
1
 40
1
 40
1
 40
1
 10
149.914170
 20
247.175840
 30
0.0
 10
113.585170
 20
247.151940
 30
0.0
 10
77.253791
 20
247.194740
 30
0.0
 10
40.926361
 20
247.045560
 30
0.0
  0
SPLINE
  5
137
100
AcDbEntity
  8
0
 62
1
100
AcDbSpline
 70
8
 71
3
 72
8
 73
4
 74
0
 40
0
 40
0
 40
0
 40
0
 40
1
 40
1
 40
1
 40
1
 10
40.926361
 20
247.045560
 30
0.0
 10
33.106647
 20
246.154550
 30
0.0
 10
26.780821
 20
238.578820
 30
0.0
 10
27.172332
 20
230.739900
 30
0.0
  0
SPLINE
  5
138
100
AcDbEntity
  8
0
 62
1
100
AcDbSpline
 70
8
 71
3
 72
8
 73
4
 74
0
 40
0
 40
0
 40
0
 40
0
 40
1
 40
1
 40
1
 40
1
 10
27.172332
 20
230.739900
 30
0.0
 10
27.308258
 20
203.880820
 30
0.0
 10
27.037872
 20
177.019560
 30
0.0
 10
27.453234
 20
150.162170
 30
0.0
  0
SPLINE
  5
139
100
AcDbEntity
  8
0
 62
1
100
AcDbSpline
 70
8
 71
3
 72
8
 73
4
 74
0
 40
0
 40
0
 40
0
 40
0
 40
1
 40
1
 40
1
 40
1
 10
27.453234
 20
150.162170
 30
0.0
 10
28.623470
 20
141.404110
 30
0.0
 10
36.071964
 20
134.034390
 30
0.0
 10
44.828234
 20
132.820370
 30
0.0
  0
SPLINE
  5
13a
100
AcDbEntity
  8
0
 62
1
100
AcDbSpline
 70
8
 71
3
 72
8
 73
4
 74
0
 40
0
 40
0
 40
0
 40
0
 40
1
 40
1
 40
1
 40
1
 10
44.828234
 20
132.820370
 30
0.0
 10
47.296026
 20
132.498280
 30
0.0
 10
49.791659
 20
132.734170
 30
0.0
 10
52.272369
 20
132.657050
 30
0.0
  0
SPLINE
  5
13b
100
AcDbEntity
  8
0
 62
1
100
AcDbSpline
 70
8
 71
3
 72
8
 73
4
 74
0
 40
0
 40
0
 40
0
 40
0
 40
1
 40
1
 40
1
 40
1
 10
52.272369
 20
132.657050
 30
0.0
 10
101.367080
 20
132.557750
 30
0.0
 10
150.462060
 20
132.567150
 30
0.0
 10
199.556710
 20
132.680550
 30
0.0
  0
SPLINE
  5
13c
100
AcDbEntity
  8
0
 62
1
100
AcDbSpline
 70
8
 71
3
 72
8
 73
4
 74
0
 40
0
 40
0
 40
0
 40
0
 40
1
 40
1
 40
1
 40
1
 10
199.556710
 20
132.680550
 30
0.0
 10
203.136250
 20
132.719650
 30
0.0
 10
206.728300
 20
132.666150
 30
0.0
 10
210.297440
 20
132.921880
 30
0.0
  0
SPLINE
  5
13d
100
AcDbEntity
  8
0
 62
1
100
AcDbSpline
 70
8
 71
3
 72
8
 73
4
 74
0
 40
0
 40
0
 40
0
 40
0
 40
1
 40
1
 40
1
 40
1
 10
210.297440
 20
132.921880
 30
0.0
 10
215.646780
 20
133.958610
 30
0.0
 10
220.129540
 20
138.254040
 30
0.0
 10
221.927840
 20
143.234480
 30
0.0
  0
SPLINE
  5
13e
100
AcDbEntity
  8
0
 62
1
100
AcDbSpline
 70
8
 71
3
 72
8
 73
4
 74
0
 40
0
 40
0
 40
0
 40
0
 40
1
 40
1
 40
1
 40
1
 10
221.927840
 20
143.234480
 30
0.0
 10
222.742540
 20
145.392490
 30
0.0
 10
222.963540
 20
147.723870
 30
0.0
 10
222.789330
 20
150.011440
 30
0.0
  0
SPLINE
  5
13f
100
AcDbEntity
  8
0
 62
1
100
AcDbSpline
 70
8
 71
3
 72
8
 73
4
 74
0
 40
0
 40
0
 40
0
 40
0
 40
1
 40
1
 40
1
 40
1
 10
222.789330
 20
150.011440
 30
0.0
 10
222.766730
 20
176.538980
 30
0.0
 10
222.930620
 20
203.070660
 30
0.0
 10
222.569230
 20
229.595090
 30
0.0
  0
SPLINE
  5
140
100
AcDbEntity
  8
0
 62
1
100
AcDbSpline
 70
8
 71
3
 72
8
 73
4
 74
0
 40
0
 40
0
 40
0
 40
0
 40
1
 40
1
 40
1
 40
1
 10
222.569230
 20
229.595090
 30
0.0
 10
221.303180
 20
239.226270
 30
0.0
 10
212.289280
 20
247.213000
 30
0.0
 10
202.545810
 20
247.141400
 30
0.0
  0
SPLINE
  5
141
100
AcDbEntity
  8
0
 62
1
100
AcDbSpline
 70
8
 71
3
 72
8
 73
4
 74
0
 40
0
 40
0
 40
0
 40
0
 40
1
 40
1
 40
1
 40
1
 10
202.545810
 20
247.141400
 30
0.0
 10
185.001970
 20
247.192800
 30
0.0
 10
167.458060
 20
247.177300
 30
0.0
 10
149.914170
 20
247.175900
 30
0.0
  0
LINE
  5
142
100
AcDbEntity
  8
0
 62
1
100
AcDbLine
 10
149.914170
 20
247.175900
 30
0.0
 11
149.914170
 21
247.175840
 31
0.0
  0
SPLINE
  5
143
100
AcDbEntity
  8
0
 62
1
100
AcDbSpline
 70
8
 71
3
 72
8
 73
4
 74
0
 40
0
 40
0
 40
0
 40
0
 40
1
 40
1
 40
1
 40
1
 10
187.033310
 20
224.009820
 30
0.0
 10
185.487410
 20
224.003820
 30
0.0
 10
184.434820
 20
222.083610
 30
0.0
 10
185.305780
 20
220.792620
 30
0.0
  0
SPLINE
  5
144
100
AcDbEntity
  8
0
 62
1
100
AcDbSpline
 70
8
 71
3
 72
8
 73
4
 74
0
 40
0
 40
0
 40
0
 40
0
 40
1
 40
1
 40
1
 40
1
 10
185.305780
 20
220.792620
 30
0.0
 10
186.063040
 20
219.369420
 30
0.0
 10
188.407480
 20
219.471970
 30
0.0
 10
189.017010
 20
220.972520
 30
0.0
  0
SPLINE
  5
145
100
AcDbEntity
  8
0
 62
1
100
AcDbSpline
 70
8
 71
3
 72
8
 73
4
 74
0
 40
0
 40
0
 40
0
 40
0
 40
1
 40
1
 40
1
 40
1
 10
189.017010
 20
220.972520
 30
0.0
 10
189.757520
 20
222.354500
 30
0.0
 10
188.593260
 20
224.115900
 30
0.0
 10
187.033310
 20
224.009820
 30
0.0
  0
LINE
  5
146
100
AcDbEntity
  8
0
 62
1
100
AcDbLine
 10
187.033310
 20
224.009820
 30
0.0
 11
187.033310
 21
224.009820
 31
0.0
  0
SPLINE
  5
147
100
AcDbEntity
  8
0
 62
1
100
AcDbSpline
 70
8
 71
3
 72
8
 73
4
 74
0
 40
0
 40
0
 40
0
 40
0
 40
1
 40
1
 40
1
 40
1
 10
187.033310
 20
155.429750
 30
0.0
 10
185.487410
 20
155.423750
 30
0.0
 10
184.434820
 20
153.503530
 30
0.0
 10
185.305780
 20
152.212540
 30
0.0
  0
SPLINE
  5
148
100
AcDbEntity
  8
0
 62
1
100
AcDbSpline
 70
8
 71
3
 72
8
 73
4
 74
0
 40
0
 40
0
 40
0
 40
0
 40
1
 40
1
 40
1
 40
1
 10
185.305780
 20
152.212540
 30
0.0
 10
186.063040
 20
150.789340
 30
0.0
 10
188.407480
 20
150.891890
 30
0.0
 10
189.017010
 20
152.392440
 30
0.0
  0
SPLINE
  5
149
100
AcDbEntity
  8
0
 62
1
100
AcDbSpline
 70
8
 71
3
 72
8
 73
4
 74
0
 40
0
 40
0
 40
0
 40
0
 40
1
 40
1
 40
1
 40
1
 10
189.017010
 20
152.392440
 30
0.0
 10
189.757520
 20
153.774420
 30
0.0
 10
188.593260
 20
155.535820
 30
0.0
 10
187.033310
 20
155.429750
 30
0.0
  0
LINE
  5
14a
100
AcDbEntity
  8
0
 62
1
100
AcDbLine
 10
187.033310
 20
155.429750
 30
0.0
 11
187.033310
 21
155.429750
 31
0.0
  0
SPLINE
  5
14b
100
AcDbEntity
  8
0
 62
1
100
AcDbSpline
 70
8
 71
3
 72
8
 73
4
 74
0
 40
0
 40
0
 40
0
 40
0
 40
1
 40
1
 40
1
 40
1
 10
65.113390
 20
224.009820
 30
0.0
 10
63.567487
 20
224.003820
 30
0.0
 10
62.514902
 20
222.083610
 30
0.0
 10
63.385856
 20
220.792620
 30
0.0
  0
SPLINE
  5
14c
100
AcDbEntity
  8
0
 62
1
100
AcDbSpline
 70
8
 71
3
 72
8
 73
4
 74
0
 40
0
 40
0
 40
0
 40
0
 40
1
 40
1
 40
1
 40
1
 10
63.385856
 20
220.792620
 30
0.0
 10
64.143117
 20
219.369420
 30
0.0
 10
66.487562
 20
219.471970
 30
0.0
 10
67.097084
 20
220.972520
 30
0.0
  0
SPLINE
  5
14d
100
AcDbEntity
  8
0
 62
1
100
AcDbSpline
 70
8
 71
3
 72
8
 73
4
 74
0
 40
0
 40
0
 40
0
 40
0
 40
1
 40
1
 40
1
 40
1
 10
67.097084
 20
220.972520
 30
0.0
 10
67.836868
 20
222.354040
 30
0.0
 10
66.673560
 20
224.116160
 30
0.0
 10
65.113390
 20
224.009820
 30
0.0
  0
LINE
  5
14e
100
AcDbEntity
  8
0
 62
1
100
AcDbLine
 10
65.113390
 20
224.009820
 30
0.0
 11
65.113390
 21
224.009820
 31
0.0
  0
SPLINE
  5
14f
100
AcDbEntity
  8
0
 62
1
100
AcDbSpline
 70
8
 71
3
 72
8
 73
4
 74
0
 40
0
 40
0
 40
0
 40
0
 40
1
 40
1
 40
1
 40
1
 10
65.113390
 20
155.429750
 30
0.0
 10
63.567487
 20
155.423750
 30
0.0
 10
62.514902
 20
153.503530
 30
0.0
 10
63.385856
 20
152.212540
 30
0.0
  0
SPLINE
  5
150
100
AcDbEntity
  8
0
 62
1
100
AcDbSpline
 70
8
 71
3
 72
8
 73
4
 74
0
 40
0
 40
0
 40
0
 40
0
 40
1
 40
1
 40
1
 40
1
 10
63.385856
 20
152.212540
 30
0.0
 10
64.143117
 20
150.789340
 30
0.0
 10
66.487562
 20
150.891890
 30
0.0
 10
67.097084
 20
152.392440
 30
0.0
  0
SPLINE
  5
151
100
AcDbEntity
  8
0
 62
1
100
AcDbSpline
 70
8
 71
3
 72
8
 73
4
 74
0
 40
0
 40
0
 40
0
 40
0
 40
1
 40
1
 40
1
 40
1
 10
67.097084
 20
152.392440
 30
0.0
 10
67.836868
 20
153.773960
 30
0.0
 10
66.673560
 20
155.536080
 30
0.0
 10
65.113390
 20
155.429750
 30
0.0
  0
LINE
  5
152
100
AcDbEntity
  8
0
 62
1
100
AcDbLine
 10
65.113390
 20
155.429750
 30
0.0
 11
65.113390
 21
155.429750
 31
0.0
  0
SPLINE
  5
153
100
AcDbEntity
  8
0
 62
1
100
AcDbSpline
 70
8
 71
3
 72
8
 73
4
 74
0
 40
0
 40
0
 40
0
 40
0
 40
1
 40
1
 40
1
 40
1
 10
100.597040
 20
223.919080
 30
0.0
 10
98.127881
 20
223.889280
 30
0.0
 10
95.934201
 20
221.670770
 30
0.0
 10
96.018571
 20
219.188210
 30
0.0
  0
SPLINE
  5
154
100
AcDbEntity
  8
0
 62
1
100
AcDbSpline
 70
8
 71
3
 72
8
 73
4
 74
0
 40
0
 40
0
 40
0
 40
0
 40
1
 40
1
 40
1
 40
1
 10
96.018571
 20
219.188210
 30
0.0
 10
95.970371
 20
216.609830
 30
0.0
 10
98.385801
 20
214.331740
 30
0.0
 10
100.966860
 20
214.543530
 30
0.0
  0
SPLINE
  5
155
100
AcDbEntity
  8
0
 62
1
100
AcDbSpline
 70
8
 71
3
 72
8
 73
4
 74
0
 40
0
 40
0
 40
0
 40
0
 40
1
 40
1
 40
1
 40
1
 10
100.966860
 20
214.543530
 30
0.0
 10
103.446900
 20
214.625730
 30
0.0
 10
105.552520
 20
216.941720
 30
0.0
 10
105.403340
 20
219.416010
 30
0.0
  0
SPLINE
  5
156
100
AcDbEntity
  8
0
 62
1
100
AcDbSpline
 70
8
 71
3
 72
8
 73
4
 74
0
 40
0
 40
0
 40
0
 40
0
 40
1
 40
1
 40
1
 40
1
 10
105.403340
 20
219.416010
 30
0.0
 10
105.380740
 20
221.892810
 30
0.0
 10
103.071080
 20
224.045970
 30
0.0
 10
100.597040
 20
223.919080
 30
0.0
  0
LINE
  5
157
100
AcDbEntity
  8
0
 62
1
100
AcDbLine
 10
100.597040
 20
223.919080
 30
0.0
 11
100.597040
 21
223.919080
 31
0.0
  0
SPLINE
  5
158
100
AcDbEntity
  8
0
 62
1
100
AcDbSpline
 70
8
 71
3
 72
8
 73
4
 74
0
 40
0
 40
0
 40
0
 40
0
 40
1
 40
1
 40
1
 40
1
 10
151.397040
 20
223.919710
 30
0.0
 10
148.927880
 20
223.889910
 30
0.0
 10
146.734200
 20
221.671400
 30
0.0
 10
146.818570
 20
219.188840
 30
0.0
  0
SPLINE
  5
159
100
AcDbEntity
  8
0
 62
1
100
AcDbSpline
 70
8
 71
3
 72
8
 73
4
 74
0
 40
0
 40
0
 40
0
 40
0
 40
1
 40
1
 40
1
 40
1
 10
146.818570
 20
219.188840
 30
0.0
 10
146.770370
 20
216.610460
 30
0.0
 10
149.185800
 20
214.332370
 30
0.0
 10
151.766860
 20
214.544160
 30
0.0
  0
SPLINE
  5
15a
100
AcDbEntity
  8
0
 62
1
100
AcDbSpline
 70
8
 71
3
 72
8
 73
4
 74
0
 40
0
 40
0
 40
0
 40
0
 40
1
 40
1
 40
1
 40
1
 10
151.766860
 20
214.544160
 30
0.0
 10
154.246900
 20
214.626360
 30
0.0
 10
156.352520
 20
216.942360
 30
0.0
 10
156.203340
 20
219.416640
 30
0.0
  0
SPLINE
  5
15b
100
AcDbEntity
  8
0
 62
1
100
AcDbSpline
 70
8
 71
3
 72
8
 73
4
 74
0
 40
0
 40
0
 40
0
 40
0
 40
1
 40
1
 40
1
 40
1
 10
156.203340
 20
219.416640
 30
0.0
 10
156.180740
 20
221.893440
 30
0.0
 10
153.871080
 20
224.046610
 30
0.0
 10
151.397040
 20
223.919710
 30
0.0
  0
LINE
  5
15c
100
AcDbEntity
  8
0
 62
1
100
AcDbLine
 10
151.397040
 20
223.919710
 30
0.0
 11
151.397040
 21
223.919710
 31
0.0
  0
SPLINE
  5
15d
100
AcDbEntity
  8
0
 62
1
100
AcDbSpline
 70
8
 71
3
 72
8
 73
4
 74
0
 40
0
 40
0
 40
0
 40
0
 40
1
 40
1
 40
1
 40
1
 10
202.177940
 20
160.430710
 30
0.0
 10
199.708780
 20
160.400910
 30
0.0
 10
197.515100
 20
158.182400
 30
0.0
 10
197.599470
 20
155.699840
 30
0.0
  0
SPLINE
  5
15e
100
AcDbEntity
  8
0
 62
1
100
AcDbSpline
 70
8
 71
3
 72
8
 73
4
 74
0
 40
0
 40
0
 40
0
 40
0
 40
1
 40
1
 40
1
 40
1
 10
197.599470
 20
155.699840
 30
0.0
 10
197.551270
 20
153.121460
 30
0.0
 10
199.966700
 20
150.843370
 30
0.0
 10
202.547760
 20
151.055160
 30
0.0
  0
SPLINE
  5
15f
100
AcDbEntity
  8
0
 62
1
100
AcDbSpline
 70
8
 71
3
 72
8
 73
4
 74
0
 40
0
 40
0
 40
0
 40
0
 40
1
 40
1
 40
1
 40
1
 10
202.547760
 20
151.055160
 30
0.0
 10
205.027800
 20
151.137360
 30
0.0
 10
207.133420
 20
153.453360
 30
0.0
 10
206.984240
 20
155.927640
 30
0.0
  0
SPLINE
  5
160
100
AcDbEntity
  8
0
 62
1
100
AcDbSpline
 70
8
 71
3
 72
8
 73
4
 74
0
 40
0
 40
0
 40
0
 40
0
 40
1
 40
1
 40
1
 40
1
 10
206.984240
 20
155.927640
 30
0.0
 10
206.961640
 20
158.404440
 30
0.0
 10
204.651980
 20
160.557610
 30
0.0
 10
202.177940
 20
160.430710
 30
0.0
  0
LINE
  5
161
100
AcDbEntity
  8
0
 62
1
100
AcDbLine
 10
202.177940
 20
160.430710
 30
0.0
 11
202.177940
 21
160.430710
 31
0.0
  0
SPLINE
  5
162
100
AcDbEntity
  8
0
 62
1
100
AcDbSpline
 70
8
 71
3
 72
8
 73
4
 74
0
 40
0
 40
0
 40
0
 40
0
 40
1
 40
1
 40
1
 40
1
 10
49.797041
 20
160.440710
 30
0.0
 10
47.327881
 20
160.410910
 30
0.0
 10
45.134201
 20
158.192400
 30
0.0
 10
45.218571
 20
155.709840
 30
0.0
  0
SPLINE
  5
163
100
AcDbEntity
  8
0
 62
1
100
AcDbSpline
 70
8
 71
3
 72
8
 73
4
 74
0
 40
0
 40
0
 40
0
 40
0
 40
1
 40
1
 40
1
 40
1
 10
45.218571
 20
155.709840
 30
0.0
 10
45.170371
 20
153.131460
 30
0.0
 10
47.585801
 20
150.853370
 30
0.0
 10
50.166861
 20
151.065160
 30
0.0
  0
SPLINE
  5
164
100
AcDbEntity
  8
0
 62
1
100
AcDbSpline
 70
8
 71
3
 72
8
 73
4
 74
0
 40
0
 40
0
 40
0
 40
0
 40
1
 40
1
 40
1
 40
1
 10
50.166861
 20
151.065160
 30
0.0
 10
52.646901
 20
151.147360
 30
0.0
 10
54.752521
 20
153.463360
 30
0.0
 10
54.603341
 20
155.937640
 30
0.0
  0
SPLINE
  5
165
100
AcDbEntity
  8
0
 62
1
100
AcDbSpline
 70
8
 71
3
 72
8
 73
4
 74
0
 40
0
 40
0
 40
0
 40
0
 40
1
 40
1
 40
1
 40
1
 10
54.603341
 20
155.937640
 30
0.0
 10
54.580741
 20
158.414440
 30
0.0
 10
52.271081
 20
160.567610
 30
0.0
 10
49.797041
 20
160.440710
 30
0.0
  0
LINE
  5
166
100
AcDbEntity
  8
0
 62
1
100
AcDbLine
 10
49.797041
 20
160.440710
 30
0.0
 11
49.797041
 21
160.440710
 31
0.0
  0
SPLINE
  5
167
100
AcDbEntity
  8
0
 62
1
100
AcDbSpline
 70
8
 71
3
 72
8
 73
4
 74
0
 40
0
 40
0
 40
0
 40
0
 40
1
 40
1
 40
1
 40
1
 10
126.351670
 20
156.369200
 30
0.0
 10
124.535970
 20
156.366200
 30
0.0
 10
123.018060
 20
154.524430
 30
0.0
 10
123.422260
 20
152.742550
 30
0.0
  0
SPLINE
  5
168
100
AcDbEntity
  8
0
 62
1
100
AcDbSpline
 70
8
 71
3
 72
8
 73
4
 74
0
 40
0
 40
0
 40
0
 40
0
 40
1
 40
1
 40
1
 40
1
 10
123.422260
 20
152.742550
 30
0.0
 10
123.692940
 20
150.872490
 30
0.0
 10
125.953450
 20
149.670050
 30
0.0
 10
127.650770
 20
150.518720
 30
0.0
  0
SPLINE
  5
169
100
AcDbEntity
  8
0
 62
1
100
AcDbSpline
 70
8
 71
3
 72
8
 73
4
 74
0
 40
0
 40
0
 40
0
 40
0
 40
1
 40
1
 40
1
 40
1
 10
127.650770
 20
150.518720
 30
0.0
 10
129.475750
 20
151.222620
 30
0.0
 10
130.081290
 20
153.815360
 30
0.0
 10
128.775500
 20
155.271540
 30
0.0
  0
SPLINE
  5
16a
100
AcDbEntity
  8
0
 62
1
100
AcDbSpline
 70
8
 71
3
 72
8
 73
4
 74
0
 40
0
 40
0
 40
0
 40
0
 40
1
 40
1
 40
1
 40
1
 10
128.775500
 20
155.271540
 30
0.0
 10
128.188200
 20
155.978160
 30
0.0
 10
127.271180
 20
156.401120
 30
0.0
 10
126.351670
 20
156.369200
 30
0.0
  0
LINE
  5
16b
100
AcDbEntity
  8
0
 62
1
100
AcDbLine
 10
126.351670
 20
156.369200
 30
0.0
 11
126.351670
 21
156.369200
 31
0.0
  0
SPLINE
  5
16c
100
AcDbEntity
  8
0
 62
7
100
AcDbSpline
 70
8
 71
3
 72
8
 73
4
 74
0
 40
0
 40
0
 40
0
 40
0
 40
1
 40
1
 40
1
 40
1
 10
204.882770
 20
434.582704
 30
0.0
 10
204.548370
 20
434.582704
 30
0.0
 10
204.258983
 20
434.540903
 30
0.0
 10
204.014610
 20
434.457302
 30
0.0
  0
SPLINE
  5
16d
100
AcDbEntity
  8
0
 62
7
100
AcDbSpline
 70
8
 71
3
 72
8
 73
4
 74
0
 40
0
 40
0
 40
0
 40
0
 40
1
 40
1
 40
1
 40
1
 10
204.014610
 20
434.457302
 30
0.0
 10
203.583743
 20
434.302961
 30
0.0
 10
203.258983
 20
434.016788
 30
0.0
 10
203.040330
 20
433.598782
 30
0.0
  0
LINE
  5
16e
100
AcDbEntity
  8
0
 62
7
100
AcDbLine
 10
203.040330
 20
433.598782
 30
0.0
 11
200.570890
 21
433.714537
 31
0.0
  0
LINE
  5
16f
100
AcDbEntity
  8
0
 62
7
100
AcDbLine
 10
200.570890
 20
433.714537
 30
0.0
 11
201.554810
 21
441.441201
 31
0.0
  0
LINE
  5
170
100
AcDbEntity
  8
0
 62
7
100
AcDbLine
 10
201.554810
 20
441.441201
 30
0.0
 11
209.262180
 21
441.441201
 31
0.0
  0
LINE
  5
171
100
AcDbEntity
  8
0
 62
7
100
AcDbLine
 10
209.262180
 20
441.441201
 30
0.0
 11
209.262180
 21
439.106804
 31
0.0
  0
LINE
  5
172
100
AcDbEntity
  8
0
 62
7
100
AcDbLine
 10
209.262180
 20
439.106804
 30
0.0
 11
203.541940
 21
439.106804
 31
0.0
  0
LINE
  5
173
100
AcDbEntity
  8
0
 62
7
100
AcDbLine
 10
203.541940
 20
439.106804
 30
0.0
 11
203.040330
 21
436.048935
 31
0.0
  0
SPLINE
  5
174
100
AcDbEntity
  8
0
 62
7
100
AcDbSpline
 70
8
 71
3
 72
8
 73
4
 74
0
 40
0
 40
0
 40
0
 40
0
 40
1
 40
1
 40
1
 40
1
 10
203.040330
 20
436.048935
 30
0.0
 10
203.464770
 20
436.325462
 30
0.0
 10
203.795960
 20
436.508741
 30
0.0
 10
204.033900
 20
436.598773
 30
0.0
  0
SPLINE
  5
175
100
AcDbEntity
  8
0
 62
7
100
AcDbSpline
 70
8
 71
3
 72
8
 73
4
 74
0
 40
0
 40
0
 40
0
 40
0
 40
1
 40
1
 40
1
 40
1
 10
204.033900
 20
436.598773
 30
0.0
 10
204.432613
 20
436.746682
 30
0.0
 10
204.918143
 20
436.820637
 30
0.0
 10
205.490490
 20
436.820637
 30
0.0
  0
SPLINE
  5
176
100
AcDbEntity
  8
0
 62
7
100
AcDbSpline
 70
8
 71
3
 72
8
 73
4
 74
0
 40
0
 40
0
 40
0
 40
0
 40
1
 40
1
 40
1
 40
1
 10
205.490490
 20
436.820637
 30
0.0
 10
206.648043
 20
436.820637
 30
0.0
 10
207.657687
 20
436.431571
 30
0.0
 10
208.519420
 20
435.653438
 30
0.0
  0
SPLINE
  5
177
100
AcDbEntity
  8
0
 62
7
100
AcDbSpline
 70
8
 71
3
 72
8
 73
4
 74
0
 40
0
 40
0
 40
0
 40
0
 40
1
 40
1
 40
1
 40
1
 10
208.519420
 20
435.653438
 30
0.0
 10
209.381153
 20
434.875305
 30
0.0
 10
209.812020
 20
433.743476
 30
0.0
 10
209.812020
 20
432.257950
 30
0.0
  0
SPLINE
  5
178
100
AcDbEntity
  8
0
 62
7
100
AcDbSpline
 70
8
 71
3
 72
8
 73
4
 74
0
 40
0
 40
0
 40
0
 40
0
 40
1
 40
1
 40
1
 40
1
 10
209.812020
 20
432.257950
 30
0.0
 10
209.812020
 20
430.965349
 30
0.0
 10
209.397230
 20
429.811013
 30
0.0
 10
208.567650
 20
428.794941
 30
0.0
  0
SPLINE
  5
179
100
AcDbEntity
  8
0
 62
7
100
AcDbSpline
 70
8
 71
3
 72
8
 73
4
 74
0
 40
0
 40
0
 40
0
 40
0
 40
1
 40
1
 40
1
 40
1
 10
208.567650
 20
428.794941
 30
0.0
 10
207.738070
 20
427.778867
 30
0.0
 10
206.496917
 20
427.270830
 30
0.0
 10
204.844190
 20
427.270830
 30
0.0
  0
SPLINE
  5
17a
100
AcDbEntity
  8
0
 62
7
100
AcDbSpline
 70
8
 71
3
 72
8
 73
4
 74
0
 40
0
 40
0
 40
0
 40
0
 40
1
 40
1
 40
1
 40
1
 10
204.844190
 20
427.270830
 30
0.0
 10
203.513003
 20
427.270830
 30
0.0
 10
202.419760
 20
427.627741
 30
0.0
 10
201.564460
 20
428.341564
 30
0.0
  0
SPLINE
  5
17b
100
AcDbEntity
  8
0
 62
7
100
AcDbSpline
 70
8
 71
3
 72
8
 73
4
 74
0
 40
0
 40
0
 40
0
 40
0
 40
1
 40
1
 40
1
 40
1
 10
201.564460
 20
428.341564
 30
0.0
 10
200.709153
 20
429.055389
 30
0.0
 10
200.233270
 20
430.068247
 30
0.0
 10
200.136810
 20
431.380139
 30
0.0
  0
LINE
  5
17c
100
AcDbEntity
  8
0
 62
7
100
AcDbLine
 10
200.136810
 20
431.380139
 30
0.0
 11
202.876350
 21
431.380139
 31
0.0
  0
SPLINE
  5
17d
100
AcDbEntity
  8
0
 62
7
100
AcDbSpline
 70
8
 71
3
 72
8
 73
4
 74
0
 40
0
 40
0
 40
0
 40
0
 40
1
 40
1
 40
1
 40
1
 10
202.876350
 20
431.380139
 30
0.0
 10
202.985670
 20
430.782072
 30
0.0
 10
203.194673
 20
430.319051
 30
0.0
 10
203.503360
 20
429.991077
 30
0.0
  0
SPLINE
  5
17e
100
AcDbEntity
  8
0
 62
7
100
AcDbSpline
 70
8
 71
3
 72
8
 73
4
 74
0
 40
0
 40
0
 40
0
 40
0
 40
1
 40
1
 40
1
 40
1
 10
203.503360
 20
429.991077
 30
0.0
 10
203.812040
 20
429.669534
 30
0.0
 10
204.262197
 20
429.508763
 30
0.0
 10
204.853830
 20
429.508763
 30
0.0
  0
SPLINE
  5
17f
100
AcDbEntity
  8
0
 62
7
100
AcDbSpline
 70
8
 71
3
 72
8
 73
4
 74
0
 40
0
 40
0
 40
0
 40
0
 40
1
 40
1
 40
1
 40
1
 10
204.853830
 20
429.508763
 30
0.0
 10
205.535503
 20
429.508763
 30
0.0
 10
206.053187
 20
429.746704
 30
0.0
 10
206.406880
 20
430.222587
 30
0.0
  0
SPLINE
  5
180
100
AcDbEntity
  8
0
 62
7
100
AcDbSpline
 70
8
 71
3
 72
8
 73
4
 74
0
 40
0
 40
0
 40
0
 40
0
 40
1
 40
1
 40
1
 40
1
 10
206.406880
 20
430.222587
 30
0.0
 10
206.767013
 20
430.704902
 30
0.0
 10
206.947080
 20
431.309402
 30
0.0
 10
206.947080
 20
432.036087
 30
0.0
  0
SPLINE
  5
181
100
AcDbEntity
  8
0
 62
7
100
AcDbSpline
 70
8
 71
3
 72
8
 73
4
 74
0
 40
0
 40
0
 40
0
 40
0
 40
1
 40
1
 40
1
 40
1
 10
206.947080
 20
432.036087
 30
0.0
 10
206.947080
 20
432.749912
 30
0.0
 10
206.779877
 20
433.351196
 30
0.0
 10
206.445470
 20
433.839939
 30
0.0
  0
SPLINE
  5
182
100
AcDbEntity
  8
0
 62
7
100
AcDbSpline
 70
8
 71
3
 72
8
 73
4
 74
0
 40
0
 40
0
 40
0
 40
0
 40
1
 40
1
 40
1
 40
1
 10
206.445470
 20
433.839939
 30
0.0
 10
206.111063
 20
434.335116
 30
0.0
 10
205.590163
 20
434.582704
 30
0.0
 10
204.882770
 20
434.582704
 30
0.0
  0
LINE
  5
183
100
AcDbEntity
  8
0
 62
7
100
AcDbLine
 10
204.882770
 20
434.582704
 30
0.0
 11
204.882770
 21
434.582704
 31
0.0
  0
SPLINE
  5
184
100
AcDbEntity
  8
0
 62
7
100
AcDbSpline
 70
8
 71
3
 72
8
 73
4
 74
0
 40
0
 40
0
 40
0
 40
0
 40
1
 40
1
 40
1
 40
1
 10
205.596600
 20
192.348490
 30
0.0
 10
204.863480
 20
191.306690
 30
0.0
 10
204.249333
 20
190.232737
 30
0.0
 10
203.754160
 20
189.126630
 30
0.0
  0
SPLINE
  5
185
100
AcDbEntity
  8
0
 62
7
100
AcDbSpline
 70
8
 71
3
 72
8
 73
4
 74
0
 40
0
 40
0
 40
0
 40
0
 40
1
 40
1
 40
1
 40
1
 10
203.754160
 20
189.126630
 30
0.0
 10
203.361880
 20
188.258463
 30
0.0
 10
203.008183
 20
187.197373
 30
0.0
 10
202.693070
 20
185.943360
 30
0.0
  0
SPLINE
  5
186
100
AcDbEntity
  8
0
 62
7
100
AcDbSpline
 70
8
 71
3
 72
8
 73
4
 74
0
 40
0
 40
0
 40
0
 40
0
 40
1
 40
1
 40
1
 40
1
 10
202.693070
 20
185.943360
 30
0.0
 10
202.377957
 20
184.689347
 30
0.0
 10
202.220400
 20
183.660410
 30
0.0
 10
202.220400
 20
182.856550
 30
0.0
  0
LINE
  5
187
100
AcDbEntity
  8
0
 62
7
100
AcDbLine
 10
202.220400
 20
182.856550
 30
0.0
 11
199.365110
 21
182.856550
 31
0.0
  0
SPLINE
  5
188
100
AcDbEntity
  8
0
 62
7
100
AcDbSpline
 70
8
 71
3
 72
8
 73
4
 74
0
 40
0
 40
0
 40
0
 40
0
 40
1
 40
1
 40
1
 40
1
 10
199.365110
 20
182.856550
 30
0.0
 10
199.448710
 20
185.364583
 30
0.0
 10
200.271857
 20
187.972293
 30
0.0
 10
201.834550
 20
190.679680
 30
0.0
  0
SPLINE
  5
189
100
AcDbEntity
  8
0
 62
7
100
AcDbSpline
 70
8
 71
3
 72
8
 73
4
 74
0
 40
0
 40
0
 40
0
 40
0
 40
1
 40
1
 40
1
 40
1
 10
201.834550
 20
190.679680
 30
0.0
 10
202.844197
 20
192.358133
 30
0.0
 10
203.689853
 20
193.528550
 30
0.0
 10
204.371520
 20
194.190930
 30
0.0
  0
LINE
  5
18a
100
AcDbEntity
  8
0
 62
7
100
AcDbLine
 10
204.371520
 20
194.190930
 30
0.0
 11
197.397260
 21
194.190930
 31
0.0
  0
LINE
  5
18b
100
AcDbEntity
  8
0
 62
7
100
AcDbLine
 10
197.397260
 20
194.190930
 30
0.0
 11
197.435860
 21
196.660370
 31
0.0
  0
LINE
  5
18c
100
AcDbEntity
  8
0
 62
7
100
AcDbLine
 10
197.435860
 20
196.660370
 30
0.0
 11
207.313640
 21
196.660370
 31
0.0
  0
LINE
  5
18d
100
AcDbEntity
  8
0
 62
7
100
AcDbLine
 10
207.313640
 20
196.660370
 30
0.0
 11
207.313640
 21
194.509250
 31
0.0
  0
SPLINE
  5
18e
100
AcDbEntity
  8
0
 62
7
100
AcDbSpline
 70
8
 71
3
 72
8
 73
4
 74
0
 40
0
 40
0
 40
0
 40
0
 40
1
 40
1
 40
1
 40
1
 10
207.313640
 20
194.509250
 30
0.0
 10
206.902067
 20
194.104103
 30
0.0
 10
206.329723
 20
193.383850
 30
0.0
 10
205.596610
 20
192.348490
 30
0.0
  0
LINE
  5
18f
100
AcDbEntity
  8
0
 62
7
100
AcDbLine
 10
205.596610
 20
192.348490
 30
0.0
 11
205.596600
 21
192.348490
 31
0.0
  0
SPLINE
  5
190
100
AcDbEntity
  8
0
 62
1
100
AcDbSpline
 70
8
 71
3
 72
8
 73
4
 74
0
 40
0
 40
0
 40
0
 40
0
 40
1
 40
1
 40
1
 40
1
 10
148.608630
 20
368.756730
 30
0.0
 10
112.279420
 20
368.732830
 30
0.0
 10
75.947976
 20
368.775630
 30
0.0
 10
39.620534
 20
368.626450
 30
0.0
  0
SPLINE
  5
191
100
AcDbEntity
  8
0
 62
1
100
AcDbSpline
 70
8
 71
3
 72
8
 73
4
 74
0
 40
0
 40
0
 40
0
 40
0
 40
1
 40
1
 40
1
 40
1
 10
39.620534
 20
368.626450
 30
0.0
 10
31.800820
 20
367.735440
 30
0.0
 10
25.474994
 20
360.159710
 30
0.0
 10
25.866505
 20
352.320790
 30
0.0
  0
SPLINE
  5
192
100
AcDbEntity
  8
0
 62
1
100
AcDbSpline
 70
8
 71
3
 72
8
 73
4
 74
0
 40
0
 40
0
 40
0
 40
0
 40
1
 40
1
 40
1
 40
1
 10
25.866505
 20
352.320790
 30
0.0
 10
26.002431
 20
325.461710
 30
0.0
 10
25.732045
 20
298.600450
 30
0.0
 10
26.147407
 20
271.743060
 30
0.0
  0
SPLINE
  5
193
100
AcDbEntity
  8
0
 62
1
100
AcDbSpline
 70
8
 71
3
 72
8
 73
4
 74
0
 40
0
 40
0
 40
0
 40
0
 40
1
 40
1
 40
1
 40
1
 10
26.147407
 20
271.743060
 30
0.0
 10
27.317643
 20
262.985000
 30
0.0
 10
34.766137
 20
255.615280
 30
0.0
 10
43.522407
 20
254.401260
 30
0.0
  0
SPLINE
  5
194
100
AcDbEntity
  8
0
 62
1
100
AcDbSpline
 70
8
 71
3
 72
8
 73
4
 74
0
 40
0
 40
0
 40
0
 40
0
 40
1
 40
1
 40
1
 40
1
 10
43.522407
 20
254.401260
 30
0.0
 10
45.990199
 20
254.079170
 30
0.0
 10
48.485832
 20
254.315060
 30
0.0
 10
50.966542
 20
254.237940
 30
0.0
  0
SPLINE
  5
195
100
AcDbEntity
  8
0
 62
1
100
AcDbSpline
 70
8
 71
3
 72
8
 73
4
 74
0
 40
0
 40
0
 40
0
 40
0
 40
1
 40
1
 40
1
 40
1
 10
50.966542
 20
254.237940
 30
0.0
 10
100.061260
 20
254.138640
 30
0.0
 10
149.156520
 20
254.148040
 30
0.0
 10
198.251270
 20
254.261440
 30
0.0
  0
SPLINE
  5
196
100
AcDbEntity
  8
0
 62
1
100
AcDbSpline
 70
8
 71
3
 72
8
 73
4
 74
0
 40
0
 40
0
 40
0
 40
0
 40
1
 40
1
 40
1
 40
1
 10
198.251270
 20
254.261440
 30
0.0
 10
201.830810
 20
254.300540
 30
0.0
 10
205.422860
 20
254.247040
 30
0.0
 10
208.992000
 20
254.502770
 30
0.0
  0
SPLINE
  5
197
100
AcDbEntity
  8
0
 62
1
100
AcDbSpline
 70
8
 71
3
 72
8
 73
4
 74
0
 40
0
 40
0
 40
0
 40
0
 40
1
 40
1
 40
1
 40
1
 10
208.992000
 20
254.502770
 30
0.0
 10
214.341340
 20
255.539500
 30
0.0
 10
218.824100
 20
259.834930
 30
0.0
 10
220.622400
 20
264.815370
 30
0.0
  0
SPLINE
  5
198
100
AcDbEntity
  8
0
 62
1
100
AcDbSpline
 70
8
 71
3
 72
8
 73
4
 74
0
 40
0
 40
0
 40
0
 40
0
 40
1
 40
1
 40
1
 40
1
 10
220.622400
 20
264.815370
 30
0.0
 10
221.437100
 20
266.973380
 30
0.0
 10
221.658100
 20
269.304760
 30
0.0
 10
221.483890
 20
271.592330
 30
0.0
  0
SPLINE
  5
199
100
AcDbEntity
  8
0
 62
1
100
AcDbSpline
 70
8
 71
3
 72
8
 73
4
 74
0
 40
0
 40
0
 40
0
 40
0
 40
1
 40
1
 40
1
 40
1
 10
221.483890
 20
271.592330
 30
0.0
 10
221.461290
 20
298.119870
 30
0.0
 10
221.625180
 20
324.651550
 30
0.0
 10
221.263790
 20
351.175980
 30
0.0
  0
SPLINE
  5
19a
100
AcDbEntity
  8
0
 62
1
100
AcDbSpline
 70
8
 71
3
 72
8
 73
4
 74
0
 40
0
 40
0
 40
0
 40
0
 40
1
 40
1
 40
1
 40
1
 10
221.263790
 20
351.175980
 30
0.0
 10
219.997740
 20
360.807160
 30
0.0
 10
210.983840
 20
368.793890
 30
0.0
 10
201.240370
 20
368.722290
 30
0.0
  0
SPLINE
  5
19b
100
AcDbEntity
  8
0
 62
1
100
AcDbSpline
 70
8
 71
3
 72
8
 73
4
 74
0
 40
0
 40
0
 40
0
 40
0
 40
1
 40
1
 40
1
 40
1
 10
201.240370
 20
368.722290
 30
0.0
 10
183.696530
 20
368.773690
 30
0.0
 10
166.152620
 20
368.758190
 30
0.0
 10
148.608630
 20
368.756790
 30
0.0
  0
LINE
  5
19c
100
AcDbEntity
  8
0
 62
1
100
AcDbLine
 10
148.608630
 20
368.756790
 30
0.0
 11
148.608630
 21
368.756730
 31
0.0
  0
SPLINE
  5
19d
100
AcDbEntity
  8
0
 62
1
100
AcDbSpline
 70
8
 71
3
 72
8
 73
4
 74
0
 40
0
 40
0
 40
0
 40
0
 40
1
 40
1
 40
1
 40
1
 10
185.727870
 20
345.590720
 30
0.0
 10
184.181970
 20
345.584720
 30
0.0
 10
183.129380
 20
343.664500
 30
0.0
 10
184.000340
 20
342.373510
 30
0.0
  0
SPLINE
  5
19e
100
AcDbEntity
  8
0
 62
1
100
AcDbSpline
 70
8
 71
3
 72
8
 73
4
 74
0
 40
0
 40
0
 40
0
 40
0
 40
1
 40
1
 40
1
 40
1
 10
184.000340
 20
342.373510
 30
0.0
 10
184.757600
 20
340.950310
 30
0.0
 10
187.102040
 20
341.052860
 30
0.0
 10
187.711570
 20
342.553410
 30
0.0
  0
SPLINE
  5
19f
100
AcDbEntity
  8
0
 62
1
100
AcDbSpline
 70
8
 71
3
 72
8
 73
4
 74
0
 40
0
 40
0
 40
0
 40
0
 40
1
 40
1
 40
1
 40
1
 10
187.711570
 20
342.553410
 30
0.0
 10
188.452080
 20
343.935390
 30
0.0
 10
187.287820
 20
345.696790
 30
0.0
 10
185.727870
 20
345.590720
 30
0.0
  0
LINE
  5
1a0
100
AcDbEntity
  8
0
 62
1
100
AcDbLine
 10
185.727870
 20
345.590720
 30
0.0
 11
185.727870
 21
345.590720
 31
0.0
  0
SPLINE
  5
1a1
100
AcDbEntity
  8
0
 62
1
100
AcDbSpline
 70
8
 71
3
 72
8
 73
4
 74
0
 40
0
 40
0
 40
0
 40
0
 40
1
 40
1
 40
1
 40
1
 10
185.727870
 20
277.010640
 30
0.0
 10
184.181970
 20
277.004640
 30
0.0
 10
183.129380
 20
275.084420
 30
0.0
 10
184.000340
 20
273.793430
 30
0.0
  0
SPLINE
  5
1a2
100
AcDbEntity
  8
0
 62
1
100
AcDbSpline
 70
8
 71
3
 72
8
 73
4
 74
0
 40
0
 40
0
 40
0
 40
0
 40
1
 40
1
 40
1
 40
1
 10
184.000340
 20
273.793430
 30
0.0
 10
184.757600
 20
272.370230
 30
0.0
 10
187.102040
 20
272.472780
 30
0.0
 10
187.711570
 20
273.973330
 30
0.0
  0
SPLINE
  5
1a3
100
AcDbEntity
  8
0
 62
1
100
AcDbSpline
 70
8
 71
3
 72
8
 73
4
 74
0
 40
0
 40
0
 40
0
 40
0
 40
1
 40
1
 40
1
 40
1
 10
187.711570
 20
273.973330
 30
0.0
 10
188.452080
 20
275.355310
 30
0.0
 10
187.287820
 20
277.116710
 30
0.0
 10
185.727870
 20
277.010640
 30
0.0
  0
LINE
  5
1a4
100
AcDbEntity
  8
0
 62
1
100
AcDbLine
 10
185.727870
 20
277.010640
 30
0.0
 11
185.727870
 21
277.010640
 31
0.0
  0
SPLINE
  5
1a5
100
AcDbEntity
  8
0
 62
1
100
AcDbSpline
 70
8
 71
3
 72
8
 73
4
 74
0
 40
0
 40
0
 40
0
 40
0
 40
1
 40
1
 40
1
 40
1
 10
63.807568
 20
345.590720
 30
0.0
 10
62.261664
 20
345.584720
 30
0.0
 10
61.209078
 20
343.664500
 30
0.0
 10
62.080033
 20
342.373510
 30
0.0
  0
SPLINE
  5
1a6
100
AcDbEntity
  8
0
 62
1
100
AcDbSpline
 70
8
 71
3
 72
8
 73
4
 74
0
 40
0
 40
0
 40
0
 40
0
 40
1
 40
1
 40
1
 40
1
 10
62.080033
 20
342.373510
 30
0.0
 10
62.837294
 20
340.950310
 30
0.0
 10
65.181741
 20
341.052860
 30
0.0
 10
65.791263
 20
342.553410
 30
0.0
  0
SPLINE
  5
1a7
100
AcDbEntity
  8
0
 62
1
100
AcDbSpline
 70
8
 71
3
 72
8
 73
4
 74
0
 40
0
 40
0
 40
0
 40
0
 40
1
 40
1
 40
1
 40
1
 10
65.791263
 20
342.553410
 30
0.0
 10
66.531047
 20
343.934930
 30
0.0
 10
65.367739
 20
345.697050
 30
0.0
 10
63.807568
 20
345.590720
 30
0.0
  0
LINE
  5
1a8
100
AcDbEntity
  8
0
 62
1
100
AcDbLine
 10
63.807568
 20
345.590720
 30
0.0
 11
63.807568
 21
345.590720
 31
0.0
  0
SPLINE
  5
1a9
100
AcDbEntity
  8
0
 62
1
100
AcDbSpline
 70
8
 71
3
 72
8
 73
4
 74
0
 40
0
 40
0
 40
0
 40
0
 40
1
 40
1
 40
1
 40
1
 10
63.807568
 20
277.010640
 30
0.0
 10
62.261664
 20
277.004640
 30
0.0
 10
61.209078
 20
275.084420
 30
0.0
 10
62.080033
 20
273.793430
 30
0.0
  0
SPLINE
  5
1aa
100
AcDbEntity
  8
0
 62
1
100
AcDbSpline
 70
8
 71
3
 72
8
 73
4
 74
0
 40
0
 40
0
 40
0
 40
0
 40
1
 40
1
 40
1
 40
1
 10
62.080033
 20
273.793430
 30
0.0
 10
62.837294
 20
272.370230
 30
0.0
 10
65.181741
 20
272.472780
 30
0.0
 10
65.791263
 20
273.973330
 30
0.0
  0
SPLINE
  5
1ab
100
AcDbEntity
  8
0
 62
1
100
AcDbSpline
 70
8
 71
3
 72
8
 73
4
 74
0
 40
0
 40
0
 40
0
 40
0
 40
1
 40
1
 40
1
 40
1
 10
65.791263
 20
273.973330
 30
0.0
 10
66.531047
 20
275.354850
 30
0.0
 10
65.367739
 20
277.116970
 30
0.0
 10
63.807568
 20
277.010640
 30
0.0
  0
LINE
  5
1ac
100
AcDbEntity
  8
0
 62
1
100
AcDbLine
 10
63.807568
 20
277.010640
 30
0.0
 11
63.807568
 21
277.010640
 31
0.0
  0
SPLINE
  5
1ad
100
AcDbEntity
  8
0
 62
1
100
AcDbSpline
 70
8
 71
3
 72
8
 73
4
 74
0
 40
0
 40
0
 40
0
 40
0
 40
1
 40
1
 40
1
 40
1
 10
99.291225
 20
345.499970
 30
0.0
 10
96.822066
 20
345.470170
 30
0.0
 10
94.628386
 20
343.251660
 30
0.0
 10
94.712756
 20
340.769100
 30
0.0
  0
SPLINE
  5
1ae
100
AcDbEntity
  8
0
 62
1
100
AcDbSpline
 70
8
 71
3
 72
8
 73
4
 74
0
 40
0
 40
0
 40
0
 40
0
 40
1
 40
1
 40
1
 40
1
 10
94.712756
 20
340.769100
 30
0.0
 10
94.664556
 20
338.190720
 30
0.0
 10
97.079986
 20
335.912630
 30
0.0
 10
99.661045
 20
336.124420
 30
0.0
  0
SPLINE
  5
1af
100
AcDbEntity
  8
0
 62
1
100
AcDbSpline
 70
8
 71
3
 72
8
 73
4
 74
0
 40
0
 40
0
 40
0
 40
0
 40
1
 40
1
 40
1
 40
1
 10
99.661045
 20
336.124420
 30
0.0
 10
102.141100
 20
336.206620
 30
0.0
 10
104.246730
 20
338.522610
 30
0.0
 10
104.097550
 20
340.996900
 30
0.0
  0
SPLINE
  5
1b0
100
AcDbEntity
  8
0
 62
1
100
AcDbSpline
 70
8
 71
3
 72
8
 73
4
 74
0
 40
0
 40
0
 40
0
 40
0
 40
1
 40
1
 40
1
 40
1
 10
104.097550
 20
340.996900
 30
0.0
 10
104.074950
 20
343.473700
 30
0.0
 10
101.765270
 20
345.626860
 30
0.0
 10
99.291225
 20
345.499970
 30
0.0
  0
LINE
  5
1b1
100
AcDbEntity
  8
0
 62
1
100
AcDbLine
 10
99.291225
 20
345.499970
 30
0.0
 11
99.291225
 21
345.499970
 31
0.0
  0
SPLINE
  5
1b2
100
AcDbEntity
  8
0
 62
1
100
AcDbSpline
 70
8
 71
3
 72
8
 73
4
 74
0
 40
0
 40
0
 40
0
 40
0
 40
1
 40
1
 40
1
 40
1
 10
150.091510
 20
345.500600
 30
0.0
 10
147.622330
 20
345.470800
 30
0.0
 10
145.428640
 20
343.252290
 30
0.0
 10
145.513010
 20
340.769730
 30
0.0
  0
SPLINE
  5
1b3
100
AcDbEntity
  8
0
 62
1
100
AcDbSpline
 70
8
 71
3
 72
8
 73
4
 74
0
 40
0
 40
0
 40
0
 40
0
 40
1
 40
1
 40
1
 40
1
 10
145.513010
 20
340.769730
 30
0.0
 10
145.464810
 20
338.191350
 30
0.0
 10
147.880250
 20
335.913260
 30
0.0
 10
150.461330
 20
336.125060
 30
0.0
  0
SPLINE
  5
1b4
100
AcDbEntity
  8
0
 62
1
100
AcDbSpline
 70
8
 71
3
 72
8
 73
4
 74
0
 40
0
 40
0
 40
0
 40
0
 40
1
 40
1
 40
1
 40
1
 10
150.461330
 20
336.125060
 30
0.0
 10
152.941380
 20
336.207260
 30
0.0
 10
155.047020
 20
338.523250
 30
0.0
 10
154.897830
 20
340.997530
 30
0.0
  0
SPLINE
  5
1b5
100
AcDbEntity
  8
0
 62
1
100
AcDbSpline
 70
8
 71
3
 72
8
 73
4
 74
0
 40
0
 40
0
 40
0
 40
0
 40
1
 40
1
 40
1
 40
1
 10
154.897830
 20
340.997530
 30
0.0
 10
154.875230
 20
343.474330
 30
0.0
 10
152.565560
 20
345.627500
 30
0.0
 10
150.091510
 20
345.500600
 30
0.0
  0
LINE
  5
1b6
100
AcDbEntity
  8
0
 62
1
100
AcDbLine
 10
150.091510
 20
345.500600
 30
0.0
 11
150.091510
 21
345.500600
 31
0.0
  0
SPLINE
  5
1b7
100
AcDbEntity
  8
0
 62
1
100
AcDbSpline
 70
8
 71
3
 72
8
 73
4
 74
0
 40
0
 40
0
 40
0
 40
0
 40
1
 40
1
 40
1
 40
1
 10
200.872500
 20
282.011600
 30
0.0
 10
198.403340
 20
281.981800
 30
0.0
 10
196.209660
 20
279.763290
 30
0.0
 10
196.294030
 20
277.280730
 30
0.0
  0
SPLINE
  5
1b8
100
AcDbEntity
  8
0
 62
1
100
AcDbSpline
 70
8
 71
3
 72
8
 73
4
 74
0
 40
0
 40
0
 40
0
 40
0
 40
1
 40
1
 40
1
 40
1
 10
196.294030
 20
277.280730
 30
0.0
 10
196.245830
 20
274.702350
 30
0.0
 10
198.661260
 20
272.424260
 30
0.0
 10
201.242320
 20
272.636050
 30
0.0
  0
SPLINE
  5
1b9
100
AcDbEntity
  8
0
 62
1
100
AcDbSpline
 70
8
 71
3
 72
8
 73
4
 74
0
 40
0
 40
0
 40
0
 40
0
 40
1
 40
1
 40
1
 40
1
 10
201.242320
 20
272.636050
 30
0.0
 10
203.722360
 20
272.718250
 30
0.0
 10
205.827980
 20
275.034250
 30
0.0
 10
205.678800
 20
277.508530
 30
0.0
  0
SPLINE
  5
1ba
100
AcDbEntity
  8
0
 62
1
100
AcDbSpline
 70
8
 71
3
 72
8
 73
4
 74
0
 40
0
 40
0
 40
0
 40
0
 40
1
 40
1
 40
1
 40
1
 10
205.678800
 20
277.508530
 30
0.0
 10
205.656200
 20
279.985330
 30
0.0
 10
203.346540
 20
282.138500
 30
0.0
 10
200.872500
 20
282.011600
 30
0.0
  0
LINE
  5
1bb
100
AcDbEntity
  8
0
 62
1
100
AcDbLine
 10
200.872500
 20
282.011600
 30
0.0
 11
200.872500
 21
282.011600
 31
0.0
  0
SPLINE
  5
1bc
100
AcDbEntity
  8
0
 62
1
100
AcDbSpline
 70
8
 71
3
 72
8
 73
4
 74
0
 40
0
 40
0
 40
0
 40
0
 40
1
 40
1
 40
1
 40
1
 10
48.491214
 20
282.021600
 30
0.0
 10
46.022054
 20
281.991800
 30
0.0
 10
43.828374
 20
279.773290
 30
0.0
 10
43.912744
 20
277.290730
 30
0.0
  0
SPLINE
  5
1bd
100
AcDbEntity
  8
0
 62
1
100
AcDbSpline
 70
8
 71
3
 72
8
 73
4
 74
0
 40
0
 40
0
 40
0
 40
0
 40
1
 40
1
 40
1
 40
1
 10
43.912744
 20
277.290730
 30
0.0
 10
43.864544
 20
274.712350
 30
0.0
 10
46.279974
 20
272.434260
 30
0.0
 10
48.861034
 20
272.646050
 30
0.0
  0
SPLINE
  5
1be
100
AcDbEntity
  8
0
 62
1
100
AcDbSpline
 70
8
 71
3
 72
8
 73
4
 74
0
 40
0
 40
0
 40
0
 40
0
 40
1
 40
1
 40
1
 40
1
 10
48.861034
 20
272.646050
 30
0.0
 10
51.341074
 20
272.728250
 30
0.0
 10
53.446694
 20
275.044250
 30
0.0
 10
53.297514
 20
277.518530
 30
0.0
  0
SPLINE
  5
1bf
100
AcDbEntity
  8
0
 62
1
100
AcDbSpline
 70
8
 71
3
 72
8
 73
4
 74
0
 40
0
 40
0
 40
0
 40
0
 40
1
 40
1
 40
1
 40
1
 10
53.297514
 20
277.518530
 30
0.0
 10
53.274914
 20
279.995330
 30
0.0
 10
50.965254
 20
282.148500
 30
0.0
 10
48.491214
 20
282.021600
 30
0.0
  0
LINE
  5
1c0
100
AcDbEntity
  8
0
 62
1
100
AcDbLine
 10
48.491214
 20
282.021600
 30
0.0
 11
48.491214
 21
282.021600
 31
0.0
  0
SPLINE
  5
1c1
100
AcDbEntity
  8
0
 62
1
100
AcDbSpline
 70
8
 71
3
 72
8
 73
4
 74
0
 40
0
 40
0
 40
0
 40
0
 40
1
 40
1
 40
1
 40
1
 10
125.046000
 20
277.950090
 30
0.0
 10
123.230280
 20
277.947090
 30
0.0
 10
121.712370
 20
276.105320
 30
0.0
 10
122.116570
 20
274.323440
 30
0.0
  0
SPLINE
  5
1c2
100
AcDbEntity
  8
0
 62
1
100
AcDbSpline
 70
8
 71
3
 72
8
 73
4
 74
0
 40
0
 40
0
 40
0
 40
0
 40
1
 40
1
 40
1
 40
1
 10
122.116570
 20
274.323440
 30
0.0
 10
122.387250
 20
272.453380
 30
0.0
 10
124.647770
 20
271.250940
 30
0.0
 10
126.345100
 20
272.099610
 30
0.0
  0
SPLINE
  5
1c3
100
AcDbEntity
  8
0
 62
1
100
AcDbSpline
 70
8
 71
3
 72
8
 73
4
 74
0
 40
0
 40
0
 40
0
 40
0
 40
1
 40
1
 40
1
 40
1
 10
126.345100
 20
272.099610
 30
0.0
 10
128.170090
 20
272.803510
 30
0.0
 10
128.775640
 20
275.396250
 30
0.0
 10
127.469840
 20
276.852430
 30
0.0
  0
SPLINE
  5
1c4
100
AcDbEntity
  8
0
 62
1
100
AcDbSpline
 70
8
 71
3
 72
8
 73
4
 74
0
 40
0
 40
0
 40
0
 40
0
 40
1
 40
1
 40
1
 40
1
 10
127.469840
 20
276.852430
 30
0.0
 10
126.882530
 20
277.559050
 30
0.0
 10
125.965510
 20
277.982010
 30
0.0
 10
125.046000
 20
277.950090
 30
0.0
  0
LINE
  5
1c5
100
AcDbEntity
  8
0
 62
1
100
AcDbLine
 10
125.046000
 20
277.950090
 30
0.0
 11
125.046000
 21
277.950090
 31
0.0
  0
SPLINE
  5
1c6
100
AcDbEntity
  8
0
 62
7
100
AcDbSpline
 70
8
 71
3
 72
8
 73
4
 74
0
 40
0
 40
0
 40
0
 40
0
 40
1
 40
1
 40
1
 40
1
 10
204.348650
 20
313.548340
 30
0.0
 10
205.589803
 20
313.548340
 30
0.0
 10
206.605877
 20
313.127120
 30
0.0
 10
207.396870
 20
312.284680
 30
0.0
  0
SPLINE
  5
1c7
100
AcDbEntity
  8
0
 62
7
100
AcDbSpline
 70
8
 71
3
 72
8
 73
4
 74
0
 40
0
 40
0
 40
0
 40
0
 40
1
 40
1
 40
1
 40
1
 10
207.396870
 20
312.284680
 30
0.0
 10
208.194297
 20
311.442233
 30
0.0
 10
208.593010
 20
310.365063
 30
0.0
 10
208.593010
 20
309.053170
 30
0.0
  0
SPLINE
  5
1c8
100
AcDbEntity
  8
0
 62
7
100
AcDbSpline
 70
8
 71
3
 72
8
 73
4
 74
0
 40
0
 40
0
 40
0
 40
0
 40
1
 40
1
 40
1
 40
1
 10
208.593010
 20
309.053170
 30
0.0
 10
208.593010
 20
307.747710
 30
0.0
 10
208.203943
 20
306.596590
 30
0.0
 10
207.425810
 20
305.599810
 30
0.0
  0
SPLINE
  5
1c9
100
AcDbEntity
  8
0
 62
7
100
AcDbSpline
 70
8
 71
3
 72
8
 73
4
 74
0
 40
0
 40
0
 40
0
 40
0
 40
1
 40
1
 40
1
 40
1
 10
207.425810
 20
305.599810
 30
0.0
 10
206.647677
 20
304.603030
 30
0.0
 10
205.438677
 20
304.104640
 30
0.0
 10
203.798810
 20
304.104640
 30
0.0
  0
SPLINE
  5
1ca
100
AcDbEntity
  8
0
 62
7
100
AcDbSpline
 70
8
 71
3
 72
8
 73
4
 74
0
 40
0
 40
0
 40
0
 40
0
 40
1
 40
1
 40
1
 40
1
 10
203.798810
 20
304.104640
 30
0.0
 10
202.036757
 20
304.104640
 30
0.0
 10
200.737727
 20
304.840970
 30
0.0
 10
199.901720
 20
306.313630
 30
0.0
  0
SPLINE
  5
1cb
100
AcDbEntity
  8
0
 62
7
100
AcDbSpline
 70
8
 71
3
 72
8
 73
4
 74
0
 40
0
 40
0
 40
0
 40
0
 40
1
 40
1
 40
1
 40
1
 10
199.901720
 20
306.313630
 30
0.0
 10
199.252200
 20
307.464750
 30
0.0
 10
198.927440
 20
308.950277
 30
0.0
 10
198.927440
 20
310.770210
 30
0.0
  0
SPLINE
  5
1cc
100
AcDbEntity
  8
0
 62
7
100
AcDbSpline
 70
8
 71
3
 72
8
 73
4
 74
0
 40
0
 40
0
 40
0
 40
0
 40
1
 40
1
 40
1
 40
1
 10
198.927440
 20
310.770210
 30
0.0
 10
198.927440
 20
311.837730
 30
0.0
 10
198.972457
 20
312.705893
 30
0.0
 10
199.062490
 20
313.374700
 30
0.0
  0
SPLINE
  5
1cd
100
AcDbEntity
  8
0
 62
7
100
AcDbSpline
 70
8
 71
3
 72
8
 73
4
 74
0
 40
0
 40
0
 40
0
 40
0
 40
1
 40
1
 40
1
 40
1
 10
199.062490
 20
313.374700
 30
0.0
 10
199.223263
 20
314.564413
 30
0.0
 10
199.535160
 20
315.554763
 30
0.0
 10
199.998180
 20
316.345750
 30
0.0
  0
SPLINE
  5
1ce
100
AcDbEntity
  8
0
 62
7
100
AcDbSpline
 70
8
 71
3
 72
8
 73
4
 74
0
 40
0
 40
0
 40
0
 40
0
 40
1
 40
1
 40
1
 40
1
 10
199.998180
 20
316.345750
 30
0.0
 10
200.396893
 20
317.020990
 30
0.0
 10
200.917793
 20
317.564397
 30
0.0
 10
201.560880
 20
317.975970
 30
0.0
  0
SPLINE
  5
1cf
100
AcDbEntity
  8
0
 62
7
100
AcDbSpline
 70
8
 71
3
 72
8
 73
4
 74
0
 40
0
 40
0
 40
0
 40
0
 40
1
 40
1
 40
1
 40
1
 10
201.560880
 20
317.975970
 30
0.0
 10
202.210393
 20
318.387550
 30
0.0
 10
202.985310
 20
318.593340
 30
0.0
 10
203.885630
 20
318.593340
 30
0.0
  0
SPLINE
  5
1d0
100
AcDbEntity
  8
0
 62
7
100
AcDbSpline
 70
8
 71
3
 72
8
 73
4
 74
0
 40
0
 40
0
 40
0
 40
0
 40
1
 40
1
 40
1
 40
1
 10
203.885630
 20
318.593340
 30
0.0
 10
205.184657
 20
318.593340
 30
0.0
 10
206.220023
 20
318.258933
 30
0.0
 10
206.991730
 20
317.590120
 30
0.0
  0
SPLINE
  5
1d1
100
AcDbEntity
  8
0
 62
7
100
AcDbSpline
 70
8
 71
3
 72
8
 73
4
 74
0
 40
0
 40
0
 40
0
 40
0
 40
1
 40
1
 40
1
 40
1
 10
206.991730
 20
317.590120
 30
0.0
 10
207.763430
 20
316.927747
 30
0.0
 10
208.197510
 20
316.043507
 30
0.0
 10
208.293970
 20
314.937400
 30
0.0
  0
LINE
  5
1d2
100
AcDbEntity
  8
0
 62
7
100
AcDbLine
 10
208.293970
 20
314.937400
 30
0.0
 11
205.554430
 21
314.937400
 31
0.0
  0
SPLINE
  5
1d3
100
AcDbEntity
  8
0
 62
7
100
AcDbSpline
 70
8
 71
3
 72
8
 73
4
 74
0
 40
0
 40
0
 40
0
 40
0
 40
1
 40
1
 40
1
 40
1
 10
205.554430
 20
314.937400
 30
0.0
 10
205.554430
 20
315.162480
 30
0.0
 10
205.467617
 20
315.410067
 30
0.0
 10
205.293990
 20
315.680160
 30
0.0
  0
SPLINE
  5
1d4
100
AcDbEntity
  8
0
 62
7
100
AcDbSpline
 70
8
 71
3
 72
8
 73
4
 74
0
 40
0
 40
0
 40
0
 40
0
 40
1
 40
1
 40
1
 40
1
 10
205.293990
 20
315.680160
 30
0.0
 10
204.998170
 20
316.117460
 30
0.0
 10
204.551223
 20
316.336110
 30
0.0
 10
203.953150
 20
316.336110
 30
0.0
  0
SPLINE
  5
1d5
100
AcDbEntity
  8
0
 62
7
100
AcDbSpline
 70
8
 71
3
 72
8
 73
4
 74
0
 40
0
 40
0
 40
0
 40
0
 40
1
 40
1
 40
1
 40
1
 10
203.953150
 20
316.336110
 30
0.0
 10
203.059263
 20
316.336110
 30
0.0
 10
202.422610
 20
315.834503
 30
0.0
 10
202.043190
 20
314.831290
 30
0.0
  0
SPLINE
  5
1d6
100
AcDbEntity
  8
0
 62
7
100
AcDbSpline
 70
8
 71
3
 72
8
 73
4
 74
0
 40
0
 40
0
 40
0
 40
0
 40
1
 40
1
 40
1
 40
1
 10
202.043190
 20
314.831290
 30
0.0
 10
201.837403
 20
314.278237
 30
0.0
 10
201.695923
 20
313.461520
 30
0.0
 10
201.618750
 20
312.381140
 30
0.0
  0
SPLINE
  5
1d7
100
AcDbEntity
  8
0
 62
7
100
AcDbSpline
 70
8
 71
3
 72
8
 73
4
 74
0
 40
0
 40
0
 40
0
 40
0
 40
1
 40
1
 40
1
 40
1
 10
201.618750
 20
312.381140
 30
0.0
 10
201.959590
 20
312.786280
 30
0.0
 10
202.355090
 20
313.082100
 30
0.0
 10
202.805250
 20
313.268600
 30
0.0
  0
SPLINE
  5
1d8
100
AcDbEntity
  8
0
 62
7
100
AcDbSpline
 70
8
 71
3
 72
8
 73
4
 74
0
 40
0
 40
0
 40
0
 40
0
 40
1
 40
1
 40
1
 40
1
 10
202.805250
 20
313.268600
 30
0.0
 10
203.255410
 20
313.455093
 30
0.0
 10
203.769877
 20
313.548340
 30
0.0
 10
204.348650
 20
313.548340
 30
0.0
  0
LINE
  5
1d9
100
AcDbEntity
  8
0
 62
7
100
AcDbLine
 10
204.348650
 20
313.548340
 30
0.0
 11
204.348650
 21
313.548340
 31
0.0
  0
SPLINE
  5
1da
100
AcDbEntity
  8
0
 62
7
100
AcDbSpline
 70
8
 71
3
 72
8
 73
4
 74
0
 40
0
 40
0
 40
0
 40
0
 40
1
 40
1
 40
1
 40
1
 10
202.496560
 20
310.924550
 30
0.0
 10
201.956373
 20
310.506543
 30
0.0
 10
201.686280
 20
309.831303
 30
0.0
 10
201.686280
 20
308.898830
 30
0.0
  0
SPLINE
  5
1db
100
AcDbEntity
  8
0
 62
7
100
AcDbSpline
 70
8
 71
3
 72
8
 73
4
 74
0
 40
0
 40
0
 40
0
 40
0
 40
1
 40
1
 40
1
 40
1
 10
201.686280
 20
308.898830
 30
0.0
 10
201.686280
 20
308.146423
 30
0.0
 10
201.888850
 20
307.532280
 30
0.0
 10
202.293990
 20
307.056400
 30
0.0
  0
SPLINE
  5
1dc
100
AcDbEntity
  8
0
 62
7
100
AcDbSpline
 70
8
 71
3
 72
8
 73
4
 74
0
 40
0
 40
0
 40
0
 40
0
 40
1
 40
1
 40
1
 40
1
 10
202.293990
 20
307.056400
 30
0.0
 10
202.699137
 20
306.580513
 30
0.0
 10
203.213607
 20
306.342570
 30
0.0
 10
203.837400
 20
306.342570
 30
0.0
  0
SPLINE
  5
1dd
100
AcDbEntity
  8
0
 62
7
100
AcDbSpline
 70
8
 71
3
 72
8
 73
4
 74
0
 40
0
 40
0
 40
0
 40
0
 40
1
 40
1
 40
1
 40
1
 10
203.837400
 20
306.342570
 30
0.0
 10
204.448327
 20
306.342570
 30
0.0
 10
204.927423
 20
306.570867
 30
0.0
 10
205.274690
 20
307.027460
 30
0.0
  0
SPLINE
  5
1de
100
AcDbEntity
  8
0
 62
7
100
AcDbSpline
 70
8
 71
3
 72
8
 73
4
 74
0
 40
0
 40
0
 40
0
 40
0
 40
1
 40
1
 40
1
 40
1
 10
205.274690
 20
307.027460
 30
0.0
 10
205.628390
 20
307.490480
 30
0.0
 10
205.805240
 20
308.088547
 30
0.0
 10
205.805240
 20
308.821660
 30
0.0
  0
SPLINE
  5
1df
100
AcDbEntity
  8
0
 62
7
100
AcDbSpline
 70
8
 71
3
 72
8
 73
4
 74
0
 40
0
 40
0
 40
0
 40
0
 40
1
 40
1
 40
1
 40
1
 10
205.805240
 20
308.821660
 30
0.0
 10
205.805240
 20
309.638380
 30
0.0
 10
205.605883
 20
310.262173
 30
0.0
 10
205.207170
 20
310.693040
 30
0.0
  0
SPLINE
  5
1e0
100
AcDbEntity
  8
0
 62
7
100
AcDbSpline
 70
8
 71
3
 72
8
 73
4
 74
0
 40
0
 40
0
 40
0
 40
0
 40
1
 40
1
 40
1
 40
1
 10
205.207170
 20
310.693040
 30
0.0
 10
204.808457
 20
311.130340
 30
0.0
 10
204.319710
 20
311.348990
 30
0.0
 10
203.740930
 20
311.348990
 30
0.0
  0
SPLINE
  5
1e1
100
AcDbEntity
  8
0
 62
7
100
AcDbSpline
 70
8
 71
3
 72
8
 73
4
 74
0
 40
0
 40
0
 40
0
 40
0
 40
1
 40
1
 40
1
 40
1
 10
203.740930
 20
311.348990
 30
0.0
 10
203.271483
 20
311.348990
 30
0.0
 10
202.856693
 20
311.207510
 30
0.0
 10
202.496560
 20
310.924550
 30
0.0
  0
LINE
  5
1e2
100
AcDbEntity
  8
0
 62
7
100
AcDbLine
 10
202.496560
 20
310.924550
 30
0.0
 11
202.496560
 21
310.924550
 31
0.0
  0
SPLINE
  5
1e3
100
AcDbEntity
  8
0
 62
1
100
AcDbSpline
 70
8
 71
3
 72
8
 73
4
 74
0
 40
0
 40
0
 40
0
 40
0
 40
1
 40
1
 40
1
 40
1
 10
153.168060
 20
121.506940
 30
0.0
 10
116.838910
 20
121.483040
 30
0.0
 10
80.507519
 20
121.525840
 30
0.0
 10
44.180081
 20
121.376660
 30
0.0
  0
SPLINE
  5
1e4
100
AcDbEntity
  8
0
 62
1
100
AcDbSpline
 70
8
 71
3
 72
8
 73
4
 74
0
 40
0
 40
0
 40
0
 40
0
 40
1
 40
1
 40
1
 40
1
 10
44.180081
 20
121.376660
 30
0.0
 10
36.360363
 20
120.485650
 30
0.0
 10
30.034538
 20
112.909920
 30
0.0
 10
30.426048
 20
105.071000
 30
0.0
  0
SPLINE
  5
1e5
100
AcDbEntity
  8
0
 62
1
100
AcDbSpline
 70
8
 71
3
 72
8
 73
4
 74
0
 40
0
 40
0
 40
0
 40
0
 40
1
 40
1
 40
1
 40
1
 10
30.426048
 20
105.071000
 30
0.0
 10
30.561974
 20
78.211920
 30
0.0
 10
30.291588
 20
51.350660
 30
0.0
 10
30.706950
 20
24.493270
 30
0.0
  0
SPLINE
  5
1e6
100
AcDbEntity
  8
0
 62
1
100
AcDbSpline
 70
8
 71
3
 72
8
 73
4
 74
0
 40
0
 40
0
 40
0
 40
0
 40
1
 40
1
 40
1
 40
1
 10
30.706950
 20
24.493270
 30
0.0
 10
31.877186
 20
15.735210
 30
0.0
 10
39.325682
 20
8.365490
 30
0.0
 10
48.081957
 20
7.151470
 30
0.0
  0
SPLINE
  5
1e7
100
AcDbEntity
  8
0
 62
1
100
AcDbSpline
 70
8
 71
3
 72
8
 73
4
 74
0
 40
0
 40
0
 40
0
 40
0
 40
1
 40
1
 40
1
 40
1
 10
48.081957
 20
7.151470
 30
0.0
 10
50.549750
 20
6.829380
 30
0.0
 10
53.045385
 20
7.065270
 30
0.0
 10
55.526096
 20
6.988150
 30
0.0
  0
SPLINE
  5
1e8
100
AcDbEntity
  8
0
 62
1
100
AcDbSpline
 70
8
 71
3
 72
8
 73
4
 74
0
 40
0
 40
0
 40
0
 40
0
 40
1
 40
1
 40
1
 40
1
 10
55.526096
 20
6.988150
 30
0.0
 10
104.620810
 20
6.888850
 30
0.0
 10
153.715950
 20
6.898250
 30
0.0
 10
202.810600
 20
7.011650
 30
0.0
  0
SPLINE
  5
1e9
100
AcDbEntity
  8
0
 62
1
100
AcDbSpline
 70
8
 71
3
 72
8
 73
4
 74
0
 40
0
 40
0
 40
0
 40
0
 40
1
 40
1
 40
1
 40
1
 10
202.810600
 20
7.011650
 30
0.0
 10
206.390140
 20
7.050750
 30
0.0
 10
209.982190
 20
6.997250
 30
0.0
 10
213.551330
 20
7.252980
 30
0.0
  0
SPLINE
  5
1ea
100
AcDbEntity
  8
0
 62
1
100
AcDbSpline
 70
8
 71
3
 72
8
 73
4
 74
0
 40
0
 40
0
 40
0
 40
0
 40
1
 40
1
 40
1
 40
1
 10
213.551330
 20
7.252980
 30
0.0
 10
218.900670
 20
8.289710
 30
0.0
 10
223.383430
 20
12.585140
 30
0.0
 10
225.181730
 20
17.565580
 30
0.0
  0
SPLINE
  5
1eb
100
AcDbEntity
  8
0
 62
1
100
AcDbSpline
 70
8
 71
3
 72
8
 73
4
 74
0
 40
0
 40
0
 40
0
 40
0
 40
1
 40
1
 40
1
 40
1
 10
225.181730
 20
17.565580
 30
0.0
 10
225.996430
 20
19.723590
 30
0.0
 10
226.217430
 20
22.054970
 30
0.0
 10
226.043220
 20
24.342540
 30
0.0
  0
SPLINE
  5
1ec
100
AcDbEntity
  8
0
 62
1
100
AcDbSpline
 70
8
 71
3
 72
8
 73
4
 74
0
 40
0
 40
0
 40
0
 40
0
 40
1
 40
1
 40
1
 40
1
 10
226.043220
 20
24.342540
 30
0.0
 10
226.020620
 20
50.870080
 30
0.0
 10
226.184510
 20
77.401760
 30
0.0
 10
225.823120
 20
103.926190
 30
0.0
  0
SPLINE
  5
1ed
100
AcDbEntity
  8
0
 62
1
100
AcDbSpline
 70
8
 71
3
 72
8
 73
4
 74
0
 40
0
 40
0
 40
0
 40
0
 40
1
 40
1
 40
1
 40
1
 10
225.823120
 20
103.926190
 30
0.0
 10
224.557070
 20
113.557370
 30
0.0
 10
215.543170
 20
121.544100
 30
0.0
 10
205.799700
 20
121.472500
 30
0.0
  0
SPLINE
  5
1ee
100
AcDbEntity
  8
0
 62
1
100
AcDbSpline
 70
8
 71
3
 72
8
 73
4
 74
0
 40
0
 40
0
 40
0
 40
0
 40
1
 40
1
 40
1
 40
1
 10
205.799700
 20
121.472500
 30
0.0
 10
188.255860
 20
121.523900
 30
0.0
 10
170.711950
 20
121.508400
 30
0.0
 10
153.168060
 20
121.507000
 30
0.0
  0
LINE
  5
1ef
100
AcDbEntity
  8
0
 62
1
100
AcDbLine
 10
153.168060
 20
121.507000
 30
0.0
 11
153.168060
 21
121.506940
 31
0.0
  0
SPLINE
  5
1f0
100
AcDbEntity
  8
0
 62
1
100
AcDbSpline
 70
8
 71
3
 72
8
 73
4
 74
0
 40
0
 40
0
 40
0
 40
0
 40
1
 40
1
 40
1
 40
1
 10
190.287200
 20
98.340920
 30
0.0
 10
188.741300
 20
98.334920
 30
0.0
 10
187.688710
 20
96.414710
 30
0.0
 10
188.559670
 20
95.123720
 30
0.0
  0
SPLINE
  5
1f1
100
AcDbEntity
  8
0
 62
1
100
AcDbSpline
 70
8
 71
3
 72
8
 73
4
 74
0
 40
0
 40
0
 40
0
 40
0
 40
1
 40
1
 40
1
 40
1
 10
188.559670
 20
95.123720
 30
0.0
 10
189.316930
 20
93.700520
 30
0.0
 10
191.661370
 20
93.803070
 30
0.0
 10
192.270900
 20
95.303620
 30
0.0
  0
SPLINE
  5
1f2
100
AcDbEntity
  8
0
 62
1
100
AcDbSpline
 70
8
 71
3
 72
8
 73
4
 74
0
 40
0
 40
0
 40
0
 40
0
 40
1
 40
1
 40
1
 40
1
 10
192.270900
 20
95.303620
 30
0.0
 10
193.011410
 20
96.685600
 30
0.0
 10
191.847150
 20
98.447000
 30
0.0
 10
190.287200
 20
98.340920
 30
0.0
  0
LINE
  5
1f3
100
AcDbEntity
  8
0
 62
1
100
AcDbLine
 10
190.287200
 20
98.340920
 30
0.0
 11
190.287200
 21
98.340920
 31
0.0
  0
SPLINE
  5
1f4
100
AcDbEntity
  8
0
 62
1
100
AcDbSpline
 70
8
 71
3
 72
8
 73
4
 74
0
 40
0
 40
0
 40
0
 40
0
 40
1
 40
1
 40
1
 40
1
 10
190.287200
 20
29.760850
 30
0.0
 10
188.741300
 20
29.754850
 30
0.0
 10
187.688710
 20
27.834630
 30
0.0
 10
188.559670
 20
26.543640
 30
0.0
  0
SPLINE
  5
1f5
100
AcDbEntity
  8
0
 62
1
100
AcDbSpline
 70
8
 71
3
 72
8
 73
4
 74
0
 40
0
 40
0
 40
0
 40
0
 40
1
 40
1
 40
1
 40
1
 10
188.559670
 20
26.543640
 30
0.0
 10
189.316930
 20
25.120440
 30
0.0
 10
191.661370
 20
25.222990
 30
0.0
 10
192.270900
 20
26.723540
 30
0.0
  0
SPLINE
  5
1f6
100
AcDbEntity
  8
0
 62
1
100
AcDbSpline
 70
8
 71
3
 72
8
 73
4
 74
0
 40
0
 40
0
 40
0
 40
0
 40
1
 40
1
 40
1
 40
1
 10
192.270900
 20
26.723540
 30
0.0
 10
193.011410
 20
28.105520
 30
0.0
 10
191.847150
 20
29.866920
 30
0.0
 10
190.287200
 20
29.760850
 30
0.0
  0
LINE
  5
1f7
100
AcDbEntity
  8
0
 62
1
100
AcDbLine
 10
190.287200
 20
29.760850
 30
0.0
 11
190.287200
 21
29.760850
 31
0.0
  0
SPLINE
  5
1f8
100
AcDbEntity
  8
0
 62
1
100
AcDbSpline
 70
8
 71
3
 72
8
 73
4
 74
0
 40
0
 40
0
 40
0
 40
0
 40
1
 40
1
 40
1
 40
1
 10
68.367118
 20
98.340920
 30
0.0
 10
66.821215
 20
98.334920
 30
0.0
 10
65.768630
 20
96.414710
 30
0.0
 10
66.639584
 20
95.123720
 30
0.0
  0
SPLINE
  5
1f9
100
AcDbEntity
  8
0
 62
1
100
AcDbSpline
 70
8
 71
3
 72
8
 73
4
 74
0
 40
0
 40
0
 40
0
 40
0
 40
1
 40
1
 40
1
 40
1
 10
66.639584
 20
95.123720
 30
0.0
 10
67.396845
 20
93.700520
 30
0.0
 10
69.741290
 20
93.803070
 30
0.0
 10
70.350812
 20
95.303620
 30
0.0
  0
SPLINE
  5
1fa
100
AcDbEntity
  8
0
 62
1
100
AcDbSpline
 70
8
 71
3
 72
8
 73
4
 74
0
 40
0
 40
0
 40
0
 40
0
 40
1
 40
1
 40
1
 40
1
 10
70.350812
 20
95.303620
 30
0.0
 10
71.090596
 20
96.685140
 30
0.0
 10
69.927288
 20
98.447260
 30
0.0
 10
68.367118
 20
98.340920
 30
0.0
  0
LINE
  5
1fb
100
AcDbEntity
  8
0
 62
1
100
AcDbLine
 10
68.367118
 20
98.340920
 30
0.0
 11
68.367118
 21
98.340920
 31
0.0
  0
SPLINE
  5
1fc
100
AcDbEntity
  8
0
 62
1
100
AcDbSpline
 70
8
 71
3
 72
8
 73
4
 74
0
 40
0
 40
0
 40
0
 40
0
 40
1
 40
1
 40
1
 40
1
 10
68.367118
 20
29.760850
 30
0.0
 10
66.821215
 20
29.754850
 30
0.0
 10
65.768630
 20
27.834630
 30
0.0
 10
66.639584
 20
26.543640
 30
0.0
  0
SPLINE
  5
1fd
100
AcDbEntity
  8
0
 62
1
100
AcDbSpline
 70
8
 71
3
 72
8
 73
4
 74
0
 40
0
 40
0
 40
0
 40
0
 40
1
 40
1
 40
1
 40
1
 10
66.639584
 20
26.543640
 30
0.0
 10
67.396845
 20
25.120440
 30
0.0
 10
69.741290
 20
25.222990
 30
0.0
 10
70.350812
 20
26.723540
 30
0.0
  0
SPLINE
  5
1fe
100
AcDbEntity
  8
0
 62
1
100
AcDbSpline
 70
8
 71
3
 72
8
 73
4
 74
0
 40
0
 40
0
 40
0
 40
0
 40
1
 40
1
 40
1
 40
1
 10
70.350812
 20
26.723540
 30
0.0
 10
71.090596
 20
28.105060
 30
0.0
 10
69.927288
 20
29.867180
 30
0.0
 10
68.367118
 20
29.760850
 30
0.0
  0
LINE
  5
1ff
100
AcDbEntity
  8
0
 62
1
100
AcDbLine
 10
68.367118
 20
29.760850
 30
0.0
 11
68.367118
 21
29.760850
 31
0.0
  0
SPLINE
  5
200
100
AcDbEntity
  8
0
 62
1
100
AcDbSpline
 70
8
 71
3
 72
8
 73
4
 74
0
 40
0
 40
0
 40
0
 40
0
 40
1
 40
1
 40
1
 40
1
 10
103.850770
 20
98.250180
 30
0.0
 10
101.381610
 20
98.220380
 30
0.0
 10
99.187929
 20
96.001870
 30
0.0
 10
99.272299
 20
93.519310
 30
0.0
  0
SPLINE
  5
201
100
AcDbEntity
  8
0
 62
1
100
AcDbSpline
 70
8
 71
3
 72
8
 73
4
 74
0
 40
0
 40
0
 40
0
 40
0
 40
1
 40
1
 40
1
 40
1
 10
99.272299
 20
93.519310
 30
0.0
 10
99.224099
 20
90.940930
 30
0.0
 10
101.639530
 20
88.662840
 30
0.0
 10
104.220590
 20
88.874630
 30
0.0
  0
SPLINE
  5
202
100
AcDbEntity
  8
0
 62
1
100
AcDbSpline
 70
8
 71
3
 72
8
 73
4
 74
0
 40
0
 40
0
 40
0
 40
0
 40
1
 40
1
 40
1
 40
1
 10
104.220590
 20
88.874630
 30
0.0
 10
106.700630
 20
88.956830
 30
0.0
 10
108.806250
 20
91.272820
 30
0.0
 10
108.657070
 20
93.747110
 30
0.0
  0
SPLINE
  5
203
100
AcDbEntity
  8
0
 62
1
100
AcDbSpline
 70
8
 71
3
 72
8
 73
4
 74
0
 40
0
 40
0
 40
0
 40
0
 40
1
 40
1
 40
1
 40
1
 10
108.657070
 20
93.747110
 30
0.0
 10
108.634470
 20
96.223910
 30
0.0
 10
106.324810
 20
98.377070
 30
0.0
 10
103.850770
 20
98.250180
 30
0.0
  0
LINE
  5
204
100
AcDbEntity
  8
0
 62
1
100
AcDbLine
 10
103.850770
 20
98.250180
 30
0.0
 11
103.850770
 21
98.250180
 31
0.0
  0
SPLINE
  5
205
100
AcDbEntity
  8
0
 62
1
100
AcDbSpline
 70
8
 71
3
 72
8
 73
4
 74
0
 40
0
 40
0
 40
0
 40
0
 40
1
 40
1
 40
1
 40
1
 10
154.650930
 20
98.250810
 30
0.0
 10
152.181770
 20
98.221010
 30
0.0
 10
149.988090
 20
96.002500
 30
0.0
 10
150.072460
 20
93.519940
 30
0.0
  0
SPLINE
  5
206
100
AcDbEntity
  8
0
 62
1
100
AcDbSpline
 70
8
 71
3
 72
8
 73
4
 74
0
 40
0
 40
0
 40
0
 40
0
 40
1
 40
1
 40
1
 40
1
 10
150.072460
 20
93.519940
 30
0.0
 10
150.024260
 20
90.941560
 30
0.0
 10
152.439690
 20
88.663470
 30
0.0
 10
155.020750
 20
88.875260
 30
0.0
  0
SPLINE
  5
207
100
AcDbEntity
  8
0
 62
1
100
AcDbSpline
 70
8
 71
3
 72
8
 73
4
 74
0
 40
0
 40
0
 40
0
 40
0
 40
1
 40
1
 40
1
 40
1
 10
155.020750
 20
88.875260
 30
0.0
 10
157.500790
 20
88.957460
 30
0.0
 10
159.606410
 20
91.273460
 30
0.0
 10
159.457230
 20
93.747740
 30
0.0
  0
SPLINE
  5
208
100
AcDbEntity
  8
0
 62
1
100
AcDbSpline
 70
8
 71
3
 72
8
 73
4
 74
0
 40
0
 40
0
 40
0
 40
0
 40
1
 40
1
 40
1
 40
1
 10
159.457230
 20
93.747740
 30
0.0
 10
159.434630
 20
96.224540
 30
0.0
 10
157.124970
 20
98.377710
 30
0.0
 10
154.650930
 20
98.250810
 30
0.0
  0
LINE
  5
209
100
AcDbEntity
  8
0
 62
1
100
AcDbLine
 10
154.650930
 20
98.250810
 30
0.0
 11
154.650930
 21
98.250810
 31
0.0
  0
SPLINE
  5
20a
100
AcDbEntity
  8
0
 62
1
100
AcDbSpline
 70
8
 71
3
 72
8
 73
4
 74
0
 40
0
 40
0
 40
0
 40
0
 40
1
 40
1
 40
1
 40
1
 10
205.431830
 20
34.761810
 30
0.0
 10
202.962670
 20
34.732010
 30
0.0
 10
200.768990
 20
32.513500
 30
0.0
 10
200.853360
 20
30.030940
 30
0.0
  0
SPLINE
  5
20b
100
AcDbEntity
  8
0
 62
1
100
AcDbSpline
 70
8
 71
3
 72
8
 73
4
 74
0
 40
0
 40
0
 40
0
 40
0
 40
1
 40
1
 40
1
 40
1
 10
200.853360
 20
30.030940
 30
0.0
 10
200.805160
 20
27.452560
 30
0.0
 10
203.220590
 20
25.174470
 30
0.0
 10
205.801650
 20
25.386260
 30
0.0
  0
SPLINE
  5
20c
100
AcDbEntity
  8
0
 62
1
100
AcDbSpline
 70
8
 71
3
 72
8
 73
4
 74
0
 40
0
 40
0
 40
0
 40
0
 40
1
 40
1
 40
1
 40
1
 10
205.801650
 20
25.386260
 30
0.0
 10
208.281690
 20
25.468460
 30
0.0
 10
210.387310
 20
27.784460
 30
0.0
 10
210.238130
 20
30.258740
 30
0.0
  0
SPLINE
  5
20d
100
AcDbEntity
  8
0
 62
1
100
AcDbSpline
 70
8
 71
3
 72
8
 73
4
 74
0
 40
0
 40
0
 40
0
 40
0
 40
1
 40
1
 40
1
 40
1
 10
210.238130
 20
30.258740
 30
0.0
 10
210.215530
 20
32.735540
 30
0.0
 10
207.905870
 20
34.888710
 30
0.0
 10
205.431830
 20
34.761810
 30
0.0
  0
LINE
  5
20e
100
AcDbEntity
  8
0
 62
1
100
AcDbLine
 10
205.431830
 20
34.761810
 30
0.0
 11
205.431830
 21
34.761810
 31
0.0
  0
SPLINE
  5
20f
100
AcDbEntity
  8
0
 62
1
100
AcDbSpline
 70
8
 71
3
 72
8
 73
4
 74
0
 40
0
 40
0
 40
0
 40
0
 40
1
 40
1
 40
1
 40
1
 10
53.050767
 20
34.771810
 30
0.0
 10
50.581605
 20
34.742010
 30
0.0
 10
48.387924
 20
32.523500
 30
0.0
 10
48.472294
 20
30.040940
 30
0.0
  0
SPLINE
  5
210
100
AcDbEntity
  8
0
 62
1
100
AcDbSpline
 70
8
 71
3
 72
8
 73
4
 74
0
 40
0
 40
0
 40
0
 40
0
 40
1
 40
1
 40
1
 40
1
 10
48.472294
 20
30.040940
 30
0.0
 10
48.424094
 20
27.462560
 30
0.0
 10
50.839525
 20
25.184470
 30
0.0
 10
53.420587
 20
25.396260
 30
0.0
  0
SPLINE
  5
211
100
AcDbEntity
  8
0
 62
1
100
AcDbSpline
 70
8
 71
3
 72
8
 73
4
 74
0
 40
0
 40
0
 40
0
 40
0
 40
1
 40
1
 40
1
 40
1
 10
53.420587
 20
25.396260
 30
0.0
 10
55.900628
 20
25.478460
 30
0.0
 10
58.006249
 20
27.794460
 30
0.0
 10
57.857069
 20
30.268740
 30
0.0
  0
SPLINE
  5
212
100
AcDbEntity
  8
0
 62
1
100
AcDbSpline
 70
8
 71
3
 72
8
 73
4
 74
0
 40
0
 40
0
 40
0
 40
0
 40
1
 40
1
 40
1
 40
1
 10
57.857069
 20
30.268740
 30
0.0
 10
57.834469
 20
32.745540
 30
0.0
 10
55.524808
 20
34.898710
 30
0.0
 10
53.050767
 20
34.771810
 30
0.0
  0
LINE
  5
213
100
AcDbEntity
  8
0
 62
1
100
AcDbLine
 10
53.050767
 20
34.771810
 30
0.0
 11
53.050767
 21
34.771810
 31
0.0
  0
SPLINE
  5
214
100
AcDbEntity
  8
0
 62
1
100
AcDbSpline
 70
8
 71
3
 72
8
 73
4
 74
0
 40
0
 40
0
 40
0
 40
0
 40
1
 40
1
 40
1
 40
1
 10
129.605450
 20
30.700300
 30
0.0
 10
127.789750
 20
30.697300
 30
0.0
 10
126.271830
 20
28.855530
 30
0.0
 10
126.676030
 20
27.073650
 30
0.0
  0
SPLINE
  5
215
100
AcDbEntity
  8
0
 62
1
100
AcDbSpline
 70
8
 71
3
 72
8
 73
4
 74
0
 40
0
 40
0
 40
0
 40
0
 40
1
 40
1
 40
1
 40
1
 10
126.676030
 20
27.073650
 30
0.0
 10
126.946710
 20
25.203590
 30
0.0
 10
129.207230
 20
24.001150
 30
0.0
 10
130.904560
 20
24.849820
 30
0.0
  0
SPLINE
  5
216
100
AcDbEntity
  8
0
 62
1
100
AcDbSpline
 70
8
 71
3
 72
8
 73
4
 74
0
 40
0
 40
0
 40
0
 40
0
 40
1
 40
1
 40
1
 40
1
 10
130.904560
 20
24.849820
 30
0.0
 10
132.729550
 20
25.553720
 30
0.0
 10
133.335100
 20
28.146460
 30
0.0
 10
132.029300
 20
29.602640
 30
0.0
  0
SPLINE
  5
217
100
AcDbEntity
  8
0
 62
1
100
AcDbSpline
 70
8
 71
3
 72
8
 73
4
 74
0
 40
0
 40
0
 40
0
 40
0
 40
1
 40
1
 40
1
 40
1
 10
132.029300
 20
29.602640
 30
0.0
 10
131.442000
 20
30.309260
 30
0.0
 10
130.524970
 20
30.732220
 30
0.0
 10
129.605450
 20
30.700300
 30
0.0
  0
LINE
  5
218
100
AcDbEntity
  8
0
 62
1
100
AcDbLine
 10
129.605450
 20
30.700300
 30
0.0
 11
129.605450
 21
30.700300
 31
0.0
  0
SPLINE
  5
219
100
AcDbEntity
  8
0
 62
7
100
AcDbSpline
 70
8
 71
3
 72
8
 73
4
 74
0
 40
0
 40
0
 40
0
 40
0
 40
1
 40
1
 40
1
 40
1
 10
201.876070
 20
58.065460
 30
0.0
 10
201.072210
 20
58.888613
 30
0.0
 10
200.670280
 20
59.888613
 30
0.0
 10
200.670280
 20
61.065460
 30
0.0
  0
SPLINE
  5
21a
100
AcDbEntity
  8
0
 62
7
100
AcDbSpline
 70
8
 71
3
 72
8
 73
4
 74
0
 40
0
 40
0
 40
0
 40
0
 40
1
 40
1
 40
1
 40
1
 10
200.670280
 20
61.065460
 30
0.0
 10
200.670280
 20
61.850020
 30
0.0
 10
200.847130
 20
62.560627
 30
0.0
 10
201.200830
 20
63.197280
 30
0.0
  0
SPLINE
  5
21b
100
AcDbEntity
  8
0
 62
7
100
AcDbSpline
 70
8
 71
3
 72
8
 73
4
 74
0
 40
0
 40
0
 40
0
 40
0
 40
1
 40
1
 40
1
 40
1
 10
201.200830
 20
63.197280
 30
0.0
 10
201.560957
 20
63.833933
 30
0.0
 10
202.085070
 20
64.313033
 30
0.0
 10
202.773170
 20
64.634580
 30
0.0
  0
SPLINE
  5
21c
100
AcDbEntity
  8
0
 62
7
100
AcDbSpline
 70
8
 71
3
 72
8
 73
4
 74
0
 40
0
 40
0
 40
0
 40
0
 40
1
 40
1
 40
1
 40
1
 10
202.773170
 20
64.634580
 30
0.0
 10
202.097930
 20
65.084733
 30
0.0
 10
201.657417
 20
65.570260
 30
0.0
 10
201.451630
 20
66.091160
 30
0.0
  0
SPLINE
  5
21d
100
AcDbEntity
  8
0
 62
7
100
AcDbSpline
 70
8
 71
3
 72
8
 73
4
 74
0
 40
0
 40
0
 40
0
 40
0
 40
1
 40
1
 40
1
 40
1
 10
201.451630
 20
66.091160
 30
0.0
 10
201.252277
 20
66.618493
 30
0.0
 10
201.152600
 20
67.110453
 30
0.0
 10
201.152600
 20
67.567040
 30
0.0
  0
SPLINE
  5
21e
100
AcDbEntity
  8
0
 62
7
100
AcDbSpline
 70
8
 71
3
 72
8
 73
4
 74
0
 40
0
 40
0
 40
0
 40
0
 40
1
 40
1
 40
1
 40
1
 10
201.152600
 20
67.567040
 30
0.0
 10
201.152600
 20
68.583113
 30
0.0
 10
201.535233
 20
69.448063
 30
0.0
 10
202.300500
 20
70.161890
 30
0.0
  0
SPLINE
  5
21f
100
AcDbEntity
  8
0
 62
7
100
AcDbSpline
 70
8
 71
3
 72
8
 73
4
 74
0
 40
0
 40
0
 40
0
 40
0
 40
1
 40
1
 40
1
 40
1
 10
202.300500
 20
70.161890
 30
0.0
 10
203.065773
 20
70.882143
 30
0.0
 10
204.146157
 20
71.242270
 30
0.0
 10
205.541650
 20
71.242270
 30
0.0
  0
SPLINE
  5
220
100
AcDbEntity
  8
0
 62
7
100
AcDbSpline
 70
8
 71
3
 72
8
 73
4
 74
0
 40
0
 40
0
 40
0
 40
0
 40
1
 40
1
 40
1
 40
1
 10
205.541650
 20
71.242270
 30
0.0
 10
206.937143
 20
71.242270
 30
0.0
 10
208.017527
 20
70.882143
 30
0.0
 10
208.782800
 20
70.161890
 30
0.0
  0
SPLINE
  5
221
100
AcDbEntity
  8
0
 62
7
100
AcDbSpline
 70
8
 71
3
 72
8
 73
4
 74
0
 40
0
 40
0
 40
0
 40
0
 40
1
 40
1
 40
1
 40
1
 10
208.782800
 20
70.161890
 30
0.0
 10
209.548073
 20
69.448063
 30
0.0
 10
209.930710
 20
68.583113
 30
0.0
 10
209.930710
 20
67.567040
 30
0.0
  0
SPLINE
  5
222
100
AcDbEntity
  8
0
 62
7
100
AcDbSpline
 70
8
 71
3
 72
8
 73
4
 74
0
 40
0
 40
0
 40
0
 40
0
 40
1
 40
1
 40
1
 40
1
 10
209.930710
 20
67.567040
 30
0.0
 10
209.930710
 20
67.110453
 30
0.0
 10
209.827817
 20
66.618493
 30
0.0
 10
209.622030
 20
66.091160
 30
0.0
  0
SPLINE
  5
223
100
AcDbEntity
  8
0
 62
7
100
AcDbSpline
 70
8
 71
3
 72
8
 73
4
 74
0
 40
0
 40
0
 40
0
 40
0
 40
1
 40
1
 40
1
 40
1
 10
209.622030
 20
66.091160
 30
0.0
 10
209.422670
 20
65.570260
 30
0.0
 10
208.985370
 20
65.116887
 30
0.0
 10
208.310130
 20
64.731040
 30
0.0
  0
SPLINE
  5
224
100
AcDbEntity
  8
0
 62
7
100
AcDbSpline
 70
8
 71
3
 72
8
 73
4
 74
0
 40
0
 40
0
 40
0
 40
0
 40
1
 40
1
 40
1
 40
1
 10
208.310130
 20
64.731040
 30
0.0
 10
208.998230
 20
64.345187
 30
0.0
 10
209.515913
 20
63.833933
 30
0.0
 10
209.863180
 20
63.197280
 30
0.0
  0
SPLINE
  5
225
100
AcDbEntity
  8
0
 62
7
100
AcDbSpline
 70
8
 71
3
 72
8
 73
4
 74
0
 40
0
 40
0
 40
0
 40
0
 40
1
 40
1
 40
1
 40
1
 10
209.863180
 20
63.197280
 30
0.0
 10
210.210447
 20
62.560627
 30
0.0
 10
210.384080
 20
61.850020
 30
0.0
 10
210.384080
 20
61.065460
 30
0.0
  0
SPLINE
  5
226
100
AcDbEntity
  8
0
 62
7
100
AcDbSpline
 70
8
 71
3
 72
8
 73
4
 74
0
 40
0
 40
0
 40
0
 40
0
 40
1
 40
1
 40
1
 40
1
 10
210.384080
 20
61.065460
 30
0.0
 10
210.384080
 20
59.888613
 30
0.0
 10
209.946783
 20
58.885400
 30
0.0
 10
209.072190
 20
58.055820
 30
0.0
  0
SPLINE
  5
227
100
AcDbEntity
  8
0
 62
7
100
AcDbSpline
 70
8
 71
3
 72
8
 73
4
 74
0
 40
0
 40
0
 40
0
 40
0
 40
1
 40
1
 40
1
 40
1
 10
209.072190
 20
58.055820
 30
0.0
 10
208.204023
 20
57.232673
 30
0.0
 10
206.988593
 20
56.821100
 30
0.0
 10
205.425900
 20
56.821100
 30
0.0
  0
SPLINE
  5
228
100
AcDbEntity
  8
0
 62
7
100
AcDbSpline
 70
8
 71
3
 72
8
 73
4
 74
0
 40
0
 40
0
 40
0
 40
0
 40
1
 40
1
 40
1
 40
1
 10
205.425900
 20
56.821100
 30
0.0
 10
203.863200
 20
56.821100
 30
0.0
 10
202.679923
 20
57.235887
 30
0.0
 10
201.876070
 20
58.065460
 30
0.0
  0
LINE
  5
229
100
AcDbEntity
  8
0
 62
7
100
AcDbLine
 10
201.876070
 20
58.065460
 30
0.0
 11
201.876070
 21
58.065460
 31
0.0
  0
SPLINE
  5
22a
100
AcDbEntity
  8
0
 62
7
100
AcDbSpline
 70
8
 71
3
 72
8
 73
4
 74
0
 40
0
 40
0
 40
0
 40
0
 40
1
 40
1
 40
1
 40
1
 10
203.525580
 20
61.248740
 30
0.0
 10
203.525580
 20
60.560640
 30
0.0
 10
203.702430
 20
60.026877
 30
0.0
 10
204.056130
 20
59.647450
 30
0.0
  0
SPLINE
  5
22b
100
AcDbEntity
  8
0
 62
7
100
AcDbSpline
 70
8
 71
3
 72
8
 73
4
 74
0
 40
0
 40
0
 40
0
 40
0
 40
1
 40
1
 40
1
 40
1
 10
204.056130
 20
59.647450
 30
0.0
 10
204.416257
 20
59.268030
 30
0.0
 10
204.911430
 20
59.078320
 30
0.0
 10
205.541650
 20
59.078320
 30
0.0
  0
SPLINE
  5
22c
100
AcDbEntity
  8
0
 62
7
100
AcDbSpline
 70
8
 71
3
 72
8
 73
4
 74
0
 40
0
 40
0
 40
0
 40
0
 40
1
 40
1
 40
1
 40
1
 10
205.541650
 20
59.078320
 30
0.0
 10
206.171877
 20
59.078320
 30
0.0
 10
206.663837
 20
59.268030
 30
0.0
 10
207.017530
 20
59.647450
 30
0.0
  0
SPLINE
  5
22d
100
AcDbEntity
  8
0
 62
7
100
AcDbSpline
 70
8
 71
3
 72
8
 73
4
 74
0
 40
0
 40
0
 40
0
 40
0
 40
1
 40
1
 40
1
 40
1
 10
207.017530
 20
59.647450
 30
0.0
 10
207.377657
 20
60.026877
 30
0.0
 10
207.557720
 20
60.560640
 30
0.0
 10
207.557720
 20
61.248740
 30
0.0
  0
SPLINE
  5
22e
100
AcDbEntity
  8
0
 62
7
100
AcDbSpline
 70
8
 71
3
 72
8
 73
4
 74
0
 40
0
 40
0
 40
0
 40
0
 40
1
 40
1
 40
1
 40
1
 10
207.557720
 20
61.248740
 30
0.0
 10
207.557720
 20
61.962560
 30
0.0
 10
207.374443
 20
62.502750
 30
0.0
 10
207.007890
 20
62.869310
 30
0.0
  0
SPLINE
  5
22f
100
AcDbEntity
  8
0
 62
7
100
AcDbSpline
 70
8
 71
3
 72
8
 73
4
 74
0
 40
0
 40
0
 40
0
 40
0
 40
1
 40
1
 40
1
 40
1
 10
207.007890
 20
62.869310
 30
0.0
 10
206.647757
 20
63.242297
 30
0.0
 10
206.159010
 20
63.428790
 30
0.0
 10
205.541650
 20
63.428790
 30
0.0
  0
SPLINE
  5
230
100
AcDbEntity
  8
0
 62
7
100
AcDbSpline
 70
8
 71
3
 72
8
 73
4
 74
0
 40
0
 40
0
 40
0
 40
0
 40
1
 40
1
 40
1
 40
1
 10
205.541650
 20
63.428790
 30
0.0
 10
204.924290
 20
63.428790
 30
0.0
 10
204.432330
 20
63.242297
 30
0.0
 10
204.065770
 20
62.869310
 30
0.0
  0
SPLINE
  5
231
100
AcDbEntity
  8
0
 62
7
100
AcDbSpline
 70
8
 71
3
 72
8
 73
4
 74
0
 40
0
 40
0
 40
0
 40
0
 40
1
 40
1
 40
1
 40
1
 10
204.065770
 20
62.869310
 30
0.0
 10
203.705643
 20
62.502750
 30
0.0
 10
203.525580
 20
61.962560
 30
0.0
 10
203.525580
 20
61.248740
 30
0.0
  0
LINE
  5
232
100
AcDbEntity
  8
0
 62
7
100
AcDbLine
 10
203.525580
 20
61.248740
 30
0.0
 11
203.525580
 21
61.248740
 31
0.0
  0
SPLINE
  5
233
100
AcDbEntity
  8
0
 62
7
100
AcDbSpline
 70
8
 71
3
 72
8
 73
4
 74
0
 40
0
 40
0
 40
0
 40
0
 40
1
 40
1
 40
1
 40
1
 10
204.249050
 20
66.013990
 30
0.0
 10
204.557730
 20
65.692450
 30
0.0
 10
204.988597
 20
65.531680
 30
0.0
 10
205.541650
 20
65.531680
 30
0.0
  0
SPLINE
  5
234
100
AcDbEntity
  8
0
 62
7
100
AcDbSpline
 70
8
 71
3
 72
8
 73
4
 74
0
 40
0
 40
0
 40
0
 40
0
 40
1
 40
1
 40
1
 40
1
 10
205.541650
 20
65.531680
 30
0.0
 10
206.101137
 20
65.531680
 30
0.0
 10
206.532003
 20
65.692450
 30
0.0
 10
206.834250
 20
66.013990
 30
0.0
  0
SPLINE
  5
235
100
AcDbEntity
  8
0
 62
7
100
AcDbSpline
 70
8
 71
3
 72
8
 73
4
 74
0
 40
0
 40
0
 40
0
 40
0
 40
1
 40
1
 40
1
 40
1
 10
206.834250
 20
66.013990
 30
0.0
 10
207.142930
 20
66.335537
 30
0.0
 10
207.297270
 20
66.750327
 30
0.0
 10
207.297270
 20
67.258360
 30
0.0
  0
SPLINE
  5
236
100
AcDbEntity
  8
0
 62
7
100
AcDbSpline
 70
8
 71
3
 72
8
 73
4
 74
0
 40
0
 40
0
 40
0
 40
0
 40
1
 40
1
 40
1
 40
1
 10
207.297270
 20
67.258360
 30
0.0
 10
207.297270
 20
67.811413
 30
0.0
 10
207.142930
 20
68.242280
 30
0.0
 10
206.834250
 20
68.550960
 30
0.0
  0
SPLINE
  5
237
100
AcDbEntity
  8
0
 62
7
100
AcDbSpline
 70
8
 71
3
 72
8
 73
4
 74
0
 40
0
 40
0
 40
0
 40
0
 40
1
 40
1
 40
1
 40
1
 10
206.834250
 20
68.550960
 30
0.0
 10
206.532003
 20
68.866073
 30
0.0
 10
206.101137
 20
69.023630
 30
0.0
 10
205.541650
 20
69.023630
 30
0.0
  0
SPLINE
  5
238
100
AcDbEntity
  8
0
 62
7
100
AcDbSpline
 70
8
 71
3
 72
8
 73
4
 74
0
 40
0
 40
0
 40
0
 40
0
 40
1
 40
1
 40
1
 40
1
 10
205.541650
 20
69.023630
 30
0.0
 10
204.988597
 20
69.023630
 30
0.0
 10
204.554517
 20
68.866073
 30
0.0
 10
204.239410
 20
68.550960
 30
0.0
  0
SPLINE
  5
239
100
AcDbEntity
  8
0
 62
7
100
AcDbSpline
 70
8
 71
3
 72
8
 73
4
 74
0
 40
0
 40
0
 40
0
 40
0
 40
1
 40
1
 40
1
 40
1
 10
204.239410
 20
68.550960
 30
0.0
 10
203.930723
 20
68.242280
 30
0.0
 10
203.776380
 20
67.811413
 30
0.0
 10
203.776380
 20
67.258360
 30
0.0
  0
SPLINE
  5
23a
100
AcDbEntity
  8
0
 62
7
100
AcDbSpline
 70
8
 71
3
 72
8
 73
4
 74
0
 40
0
 40
0
 40
0
 40
0
 40
1
 40
1
 40
1
 40
1
 10
203.776380
 20
67.258360
 30
0.0
 10
203.776380
 20
66.750327
 30
0.0
 10
203.933937
 20
66.335537
 30
0.0
 10
204.249050
 20
66.013990
 30
0.0
  0
LINE
  5
23b
100
AcDbEntity
  8
0
 62
7
100
AcDbLine
 10
204.249050
 20
66.013990
 30
0.0
 11
204.249050
 21
66.013990
 31
0.0
  0
ENDSEC
  0
SECTION
  2
OBJECTS
  0
DICTIONARY
  5
C
330
0
100
AcDbDictionary
  3
ACAD_GROUP
350
D
  3
ACAD_MLINESTYLE
350
17
  0
DICTIONARY
  5
D
330
C
100
AcDbDictionary
  0
DICTIONARY
  5
1A
330
C
100
AcDbDictionary
  0
DICTIONARY
  5
17
330
C
100
AcDbDictionary
  3
STANDARD
350
18
  0
DICTIONARY
  5
19
330
C
100
AcDbDictionary
  0
ENDSEC
  0
EOF
