  0
SECTION
  2
HEADER
  9
$ACADVER
  1
AC1014
  9
$HANDSEED
  5
FFFF
  9
$INSUNITS
 70
     4
  9
$MEASUREMENT
 70
     1
  0
ENDSEC
  0
SECTION
  2
TABLES
  0
TABLE
  2
VPORT
  5
8
330
0
100
AcDbSymbolTable
 70
     4
  0
VPORT
  5
2E
330
8
100
AcDbSymbolTableRecord
100
AcDbViewportTableRecord
  2
*ACTIVE
 70
     0
 10
0.0
 20
0.0
 11
1.0
 21
1.0
 12
210.0
 22
148.5
 13
0.0
 23
0.0
 14
10.0
 24
10.0
 15
10.0
 25
10.0
 16
0.0
 26
0.0
 36
1.0
 17
0.0
 27
0.0
 37
0.0
 40
341.0
 41
1.24
 42
50.0
 43
0.0
 44
0.0
 50
0.0
 51
0.0
 71
     0
 72
   100
 73
     1
 74
     3
 75
     0
 76
     0
 77
     0
 78
     0
  0
ENDTAB
  0
TABLE
  2
LTYPE
  5
5
330
0
100
AcDbSymbolTable
 70
     1
  0
LTYPE
  5
14
330
5
100
AcDbSymbolTableRecord
100
AcDbLinetypeTableRecord
  2
BYBLOCK
 70
     0
  3

 72
    65
 73
     0
 40
0.0
  0
LTYPE
  5
15
330
5
100
AcDbSymbolTableRecord
100
AcDbLinetypeTableRecord
  2
BYLAYER
 70
     0
  3

 72
    65
 73
     0
 40
0.0
  0
LTYPE
  5
16
330
5
100
AcDbSymbolTableRecord
100
AcDbLinetypeTableRecord
  2
CONTINUOUS
 70
     0
  3
Solid line
 72
    65
 73
     0
 40
0.0
  0
ENDTAB
  0
TABLE
  2
LAYER
  5
2
100
AcDbSymbolTable
 70
1
  0
LAYER
  5
50
100
AcDbSymbolTableRecord
100
AcDbLayerTableRecord
  2
0
 70
0
  6
CONTINUOUS
  0
ENDTAB
  0
TABLE
  2
STYLE
  5
3
330
0
100
AcDbSymbolTable
 70
     1
  0
STYLE
  5
11
330
3
100
AcDbSymbolTableRecord
100
AcDbTextStyleTableRecord
  2
STANDARD
 70
     0
 40
0.0
 41
1.0
 50
0.0
 71
     0
 42
2.5
  3
txt
  4

  0
ENDTAB
  0
TABLE
  2
VIEW
  5
6
330
0
100
AcDbSymbolTable
 70
     0
  0
ENDTAB
  0
TABLE
  2
UCS
  5
7
330
0
100
AcDbSymbolTable
 70
     0
  0
ENDTAB
  0
TABLE
  2
APPID
  5
9
330
0
100
AcDbSymbolTable
 70
     2
  0
APPID
  5
12
330
9
100
AcDbSymbolTableRecord
100
AcDbRegAppTableRecord
  2
ACAD
 70
     0
  0
ENDTAB
  0
TABLE
  2
DIMSTYLE
  5
A
330
0
100
AcDbSymbolTable
 70
     1
  0
DIMSTYLE
105
27
330
A
100
AcDbSymbolTableRecord
100
AcDbDimStyleTableRecord
  2
ISO-25
 70
     0
  3

  4

  5

  6

  7

 40
1.0
 41
2.5
 42
0.625
 43
3.75
 44
1.25
 45
0.0
 46
0.0
 47
0.0
 48
0.0
140
2.5
141
2.5
142
0.0
143
0.03937007874016
144
1.0
145
0.0
146
1.0
147
0.625
 71
     0
 72
     0
 73
     0
 74
     0
 75
     0
 76
     0
 77
     1
 78
     8
170
     0
171
     3
172
     1
173
     0
174
     0
175
     0
176
     0
177
     0
178
     0
270
     2
271
     2
272
     2
273
     2
274
     3
340
11
275
     0
280
     0
281
     0
282
     0
283
     0
284
     8
285
     0
286
     0
287
     3
288
     0
  0
ENDTAB
  0
TABLE
  2
BLOCK_RECORD
  5
1
330
0
100
AcDbSymbolTable
 70
     1
  0
BLOCK_RECORD
  5
1F
330
1
100
AcDbSymbolTableRecord
100
AcDbBlockTableRecord
  2
*MODEL_SPACE
  0
BLOCK_RECORD
  5
1B
330
1
100
AcDbSymbolTableRecord
100
AcDbBlockTableRecord
  2
*PAPER_SPACE
  0
ENDTAB
  0
ENDSEC
  0
SECTION
  2
BLOCKS
  0
BLOCK
  5
20
330
1F
100
AcDbEntity
  8
0
100
AcDbBlockBegin
  2
*MODEL_SPACE
 70
     0
 10
0.0
 20
0.0
 30
0.0
  3
*MODEL_SPACE
  1

  0
ENDBLK
  5
21
330
1F
100
AcDbEntity
  8
0
100
AcDbBlockEnd
  0
BLOCK
  5
1C
330
1B
100
AcDbEntity
 67
     1
  8
0
100
AcDbBlockBegin
  2
*PAPER_SPACE
  1

  0
ENDBLK
  5
1D
330
1B
100
AcDbEntity
 67
     1
  8
0
100
AcDbBlockEnd
  0
ENDSEC
  0
SECTION
  2
ENTITIES
  0
SPLINE
  5
100
100
AcDbEntity
  8
0
 62
1
100
AcDbSpline
 70
8
 71
3
 72
8
 73
4
 74
0
 40
0
 40
0
 40
0
 40
0
 40
1
 40
1
 40
1
 40
1
 10
149.914170
 20
369.549380
 30
0.0
 10
113.585170
 20
369.525480
 30
0.0
 10
77.253791
 20
369.568280
 30
0.0
 10
40.926361
 20
369.419100
 30
0.0
  0
SPLINE
  5
101
100
AcDbEntity
  8
0
 62
1
100
AcDbSpline
 70
8
 71
3
 72
8
 73
4
 74
0
 40
0
 40
0
 40
0
 40
0
 40
1
 40
1
 40
1
 40
1
 10
40.926361
 20
369.419100
 30
0.0
 10
33.106647
 20
368.528090
 30
0.0
 10
26.780821
 20
360.952360
 30
0.0
 10
27.172332
 20
353.113440
 30
0.0
  0
SPLINE
  5
102
100
AcDbEntity
  8
0
 62
1
100
AcDbSpline
 70
8
 71
3
 72
8
 73
4
 74
0
 40
0
 40
0
 40
0
 40
0
 40
1
 40
1
 40
1
 40
1
 10
27.172332
 20
353.113440
 30
0.0
 10
27.308258
 20
326.254360
 30
0.0
 10
27.037872
 20
299.393100
 30
0.0
 10
27.453234
 20
272.535710
 30
0.0
  0
SPLINE
  5
103
100
AcDbEntity
  8
0
 62
1
100
AcDbSpline
 70
8
 71
3
 72
8
 73
4
 74
0
 40
0
 40
0
 40
0
 40
0
 40
1
 40
1
 40
1
 40
1
 10
27.453234
 20
272.535710
 30
0.0
 10
28.623470
 20
263.777650
 30
0.0
 10
36.071964
 20
256.407930
 30
0.0
 10
44.828234
 20
255.193910
 30
0.0
  0
SPLINE
  5
104
100
AcDbEntity
  8
0
 62
1
100
AcDbSpline
 70
8
 71
3
 72
8
 73
4
 74
0
 40
0
 40
0
 40
0
 40
0
 40
1
 40
1
 40
1
 40
1
 10
44.828234
 20
255.193910
 30
0.0
 10
47.296026
 20
254.871820
 30
0.0
 10
49.791659
 20
255.107710
 30
0.0
 10
52.272369
 20
255.030590
 30
0.0
  0
SPLINE
  5
105
100
AcDbEntity
  8
0
 62
1
100
AcDbSpline
 70
8
 71
3
 72
8
 73
4
 74
0
 40
0
 40
0
 40
0
 40
0
 40
1
 40
1
 40
1
 40
1
 10
52.272369
 20
255.030590
 30
0.0
 10
101.367080
 20
254.931290
 30
0.0
 10
150.462060
 20
254.940690
 30
0.0
 10
199.556710
 20
255.054090
 30
0.0
  0
SPLINE
  5
106
100
AcDbEntity
  8
0
 62
1
100
AcDbSpline
 70
8
 71
3
 72
8
 73
4
 74
0
 40
0
 40
0
 40
0
 40
0
 40
1
 40
1
 40
1
 40
1
 10
199.556710
 20
255.054090
 30
0.0
 10
203.136250
 20
255.093190
 30
0.0
 10
206.728300
 20
255.039690
 30
0.0
 10
210.297440
 20
255.295420
 30
0.0
  0
SPLINE
  5
107
100
AcDbEntity
  8
0
 62
1
100
AcDbSpline
 70
8
 71
3
 72
8
 73
4
 74
0
 40
0
 40
0
 40
0
 40
0
 40
1
 40
1
 40
1
 40
1
 10
210.297440
 20
255.295420
 30
0.0
 10
215.646780
 20
256.332150
 30
0.0
 10
220.129540
 20
260.627580
 30
0.0
 10
221.927840
 20
265.608020
 30
0.0
  0
SPLINE
  5
108
100
AcDbEntity
  8
0
 62
1
100
AcDbSpline
 70
8
 71
3
 72
8
 73
4
 74
0
 40
0
 40
0
 40
0
 40
0
 40
1
 40
1
 40
1
 40
1
 10
221.927840
 20
265.608020
 30
0.0
 10
222.742540
 20
267.766030
 30
0.0
 10
222.963540
 20
270.097410
 30
0.0
 10
222.789330
 20
272.384980
 30
0.0
  0
SPLINE
  5
109
100
AcDbEntity
  8
0
 62
1
100
AcDbSpline
 70
8
 71
3
 72
8
 73
4
 74
0
 40
0
 40
0
 40
0
 40
0
 40
1
 40
1
 40
1
 40
1
 10
222.789330
 20
272.384980
 30
0.0
 10
222.766730
 20
298.912520
 30
0.0
 10
222.930620
 20
325.444200
 30
0.0
 10
222.569230
 20
351.968630
 30
0.0
  0
SPLINE
  5
10a
100
AcDbEntity
  8
0
 62
1
100
AcDbSpline
 70
8
 71
3
 72
8
 73
4
 74
0
 40
0
 40
0
 40
0
 40
0
 40
1
 40
1
 40
1
 40
1
 10
222.569230
 20
351.968630
 30
0.0
 10
221.303180
 20
361.599820
 30
0.0
 10
212.289280
 20
369.586540
 30
0.0
 10
202.545810
 20
369.514940
 30
0.0
  0
SPLINE
  5
10b
100
AcDbEntity
  8
0
 62
1
100
AcDbSpline
 70
8
 71
3
 72
8
 73
4
 74
0
 40
0
 40
0
 40
0
 40
0
 40
1
 40
1
 40
1
 40
1
 10
202.545810
 20
369.514940
 30
0.0
 10
185.001970
 20
369.566340
 30
0.0
 10
167.458060
 20
369.550840
 30
0.0
 10
149.914170
 20
369.549440
 30
0.0
  0
LINE
  5
10c
100
AcDbEntity
  8
0
 62
1
100
AcDbLine
 10
149.914170
 20
369.549440
 30
0.0
 11
149.914170
 21
369.549380
 31
0.0
  0
SPLINE
  5
10d
100
AcDbEntity
  8
0
 62
1
100
AcDbSpline
 70
8
 71
3
 72
8
 73
4
 74
0
 40
0
 40
0
 40
0
 40
0
 40
1
 40
1
 40
1
 40
1
 10
187.033310
 20
346.383370
 30
0.0
 10
185.487410
 20
346.377370
 30
0.0
 10
184.434820
 20
344.457150
 30
0.0
 10
185.305780
 20
343.166160
 30
0.0
  0
SPLINE
  5
10e
100
AcDbEntity
  8
0
 62
1
100
AcDbSpline
 70
8
 71
3
 72
8
 73
4
 74
0
 40
0
 40
0
 40
0
 40
0
 40
1
 40
1
 40
1
 40
1
 10
185.305780
 20
343.166160
 30
0.0
 10
186.063040
 20
341.742960
 30
0.0
 10
188.407480
 20
341.845510
 30
0.0
 10
189.017010
 20
343.346060
 30
0.0
  0
SPLINE
  5
10f
100
AcDbEntity
  8
0
 62
1
100
AcDbSpline
 70
8
 71
3
 72
8
 73
4
 74
0
 40
0
 40
0
 40
0
 40
0
 40
1
 40
1
 40
1
 40
1
 10
189.017010
 20
343.346060
 30
0.0
 10
189.757520
 20
344.728040
 30
0.0
 10
188.593260
 20
346.489440
 30
0.0
 10
187.033310
 20
346.383370
 30
0.0
  0
LINE
  5
110
100
AcDbEntity
  8
0
 62
1
100
AcDbLine
 10
187.033310
 20
346.383370
 30
0.0
 11
187.033310
 21
346.383370
 31
0.0
  0
SPLINE
  5
111
100
AcDbEntity
  8
0
 62
1
100
AcDbSpline
 70
8
 71
3
 72
8
 73
4
 74
0
 40
0
 40
0
 40
0
 40
0
 40
1
 40
1
 40
1
 40
1
 10
187.033310
 20
277.803290
 30
0.0
 10
185.487410
 20
277.797290
 30
0.0
 10
184.434820
 20
275.877070
 30
0.0
 10
185.305780
 20
274.586080
 30
0.0
  0
SPLINE
  5
112
100
AcDbEntity
  8
0
 62
1
100
AcDbSpline
 70
8
 71
3
 72
8
 73
4
 74
0
 40
0
 40
0
 40
0
 40
0
 40
1
 40
1
 40
1
 40
1
 10
185.305780
 20
274.586080
 30
0.0
 10
186.063040
 20
273.162880
 30
0.0
 10
188.407480
 20
273.265430
 30
0.0
 10
189.017010
 20
274.765980
 30
0.0
  0
SPLINE
  5
113
100
AcDbEntity
  8
0
 62
1
100
AcDbSpline
 70
8
 71
3
 72
8
 73
4
 74
0
 40
0
 40
0
 40
0
 40
0
 40
1
 40
1
 40
1
 40
1
 10
189.017010
 20
274.765980
 30
0.0
 10
189.757520
 20
276.147960
 30
0.0
 10
188.593260
 20
277.909360
 30
0.0
 10
187.033310
 20
277.803290
 30
0.0
  0
LINE
  5
114
100
AcDbEntity
  8
0
 62
1
100
AcDbLine
 10
187.033310
 20
277.803290
 30
0.0
 11
187.033310
 21
277.803290
 31
0.0
  0
SPLINE
  5
115
100
AcDbEntity
  8
0
 62
1
100
AcDbSpline
 70
8
 71
3
 72
8
 73
4
 74
0
 40
0
 40
0
 40
0
 40
0
 40
1
 40
1
 40
1
 40
1
 10
65.113390
 20
346.383370
 30
0.0
 10
63.567487
 20
346.377370
 30
0.0
 10
62.514902
 20
344.457150
 30
0.0
 10
63.385856
 20
343.166160
 30
0.0
  0
SPLINE
  5
116
100
AcDbEntity
  8
0
 62
1
100
AcDbSpline
 70
8
 71
3
 72
8
 73
4
 74
0
 40
0
 40
0
 40
0
 40
0
 40
1
 40
1
 40
1
 40
1
 10
63.385856
 20
343.166160
 30
0.0
 10
64.143117
 20
341.742960
 30
0.0
 10
66.487562
 20
341.845510
 30
0.0
 10
67.097084
 20
343.346060
 30
0.0
  0
SPLINE
  5
117
100
AcDbEntity
  8
0
 62
1
100
AcDbSpline
 70
8
 71
3
 72
8
 73
4
 74
0
 40
0
 40
0
 40
0
 40
0
 40
1
 40
1
 40
1
 40
1
 10
67.097084
 20
343.346060
 30
0.0
 10
67.836868
 20
344.727580
 30
0.0
 10
66.673560
 20
346.489700
 30
0.0
 10
65.113390
 20
346.383370
 30
0.0
  0
LINE
  5
118
100
AcDbEntity
  8
0
 62
1
100
AcDbLine
 10
65.113390
 20
346.383370
 30
0.0
 11
65.113390
 21
346.383370
 31
0.0
  0
SPLINE
  5
119
100
AcDbEntity
  8
0
 62
1
100
AcDbSpline
 70
8
 71
3
 72
8
 73
4
 74
0
 40
0
 40
0
 40
0
 40
0
 40
1
 40
1
 40
1
 40
1
 10
65.113390
 20
277.803290
 30
0.0
 10
63.567487
 20
277.797290
 30
0.0
 10
62.514902
 20
275.877070
 30
0.0
 10
63.385856
 20
274.586080
 30
0.0
  0
SPLINE
  5
11a
100
AcDbEntity
  8
0
 62
1
100
AcDbSpline
 70
8
 71
3
 72
8
 73
4
 74
0
 40
0
 40
0
 40
0
 40
0
 40
1
 40
1
 40
1
 40
1
 10
63.385856
 20
274.586080
 30
0.0
 10
64.143117
 20
273.162880
 30
0.0
 10
66.487562
 20
273.265430
 30
0.0
 10
67.097084
 20
274.765980
 30
0.0
  0
SPLINE
  5
11b
100
AcDbEntity
  8
0
 62
1
100
AcDbSpline
 70
8
 71
3
 72
8
 73
4
 74
0
 40
0
 40
0
 40
0
 40
0
 40
1
 40
1
 40
1
 40
1
 10
67.097084
 20
274.765980
 30
0.0
 10
67.836868
 20
276.147500
 30
0.0
 10
66.673560
 20
277.909620
 30
0.0
 10
65.113390
 20
277.803290
 30
0.0
  0
LINE
  5
11c
100
AcDbEntity
  8
0
 62
1
100
AcDbLine
 10
65.113390
 20
277.803290
 30
0.0
 11
65.113390
 21
277.803290
 31
0.0
  0
SPLINE
  5
11d
100
AcDbEntity
  8
0
 62
1
100
AcDbSpline
 70
8
 71
3
 72
8
 73
4
 74
0
 40
0
 40
0
 40
0
 40
0
 40
1
 40
1
 40
1
 40
1
 10
149.914170
 20
124.802300
 30
0.0
 10
113.585170
 20
124.778400
 30
0.0
 10
77.253791
 20
124.821200
 30
0.0
 10
40.926361
 20
124.672020
 30
0.0
  0
SPLINE
  5
11e
100
AcDbEntity
  8
0
 62
1
100
AcDbSpline
 70
8
 71
3
 72
8
 73
4
 74
0
 40
0
 40
0
 40
0
 40
0
 40
1
 40
1
 40
1
 40
1
 10
40.926361
 20
124.672020
 30
0.0
 10
33.106647
 20
123.781010
 30
0.0
 10
26.780821
 20
116.205280
 30
0.0
 10
27.172332
 20
108.366360
 30
0.0
  0
SPLINE
  5
11f
100
AcDbEntity
  8
0
 62
1
100
AcDbSpline
 70
8
 71
3
 72
8
 73
4
 74
0
 40
0
 40
0
 40
0
 40
0
 40
1
 40
1
 40
1
 40
1
 10
27.172332
 20
108.366360
 30
0.0
 10
27.308258
 20
81.507280
 30
0.0
 10
27.037872
 20
54.646020
 30
0.0
 10
27.453234
 20
27.788630
 30
0.0
  0
SPLINE
  5
120
100
AcDbEntity
  8
0
 62
1
100
AcDbSpline
 70
8
 71
3
 72
8
 73
4
 74
0
 40
0
 40
0
 40
0
 40
0
 40
1
 40
1
 40
1
 40
1
 10
27.453234
 20
27.788630
 30
0.0
 10
28.623470
 20
19.030570
 30
0.0
 10
36.071964
 20
11.660850
 30
0.0
 10
44.828234
 20
10.446830
 30
0.0
  0
SPLINE
  5
121
100
AcDbEntity
  8
0
 62
1
100
AcDbSpline
 70
8
 71
3
 72
8
 73
4
 74
0
 40
0
 40
0
 40
0
 40
0
 40
1
 40
1
 40
1
 40
1
 10
44.828234
 20
10.446830
 30
0.0
 10
47.296026
 20
10.124740
 30
0.0
 10
49.791659
 20
10.360630
 30
0.0
 10
52.272369
 20
10.283510
 30
0.0
  0
SPLINE
  5
122
100
AcDbEntity
  8
0
 62
1
100
AcDbSpline
 70
8
 71
3
 72
8
 73
4
 74
0
 40
0
 40
0
 40
0
 40
0
 40
1
 40
1
 40
1
 40
1
 10
52.272369
 20
10.283510
 30
0.0
 10
101.367080
 20
10.184210
 30
0.0
 10
150.462060
 20
10.193610
 30
0.0
 10
199.556710
 20
10.307010
 30
0.0
  0
SPLINE
  5
123
100
AcDbEntity
  8
0
 62
1
100
AcDbSpline
 70
8
 71
3
 72
8
 73
4
 74
0
 40
0
 40
0
 40
0
 40
0
 40
1
 40
1
 40
1
 40
1
 10
199.556710
 20
10.307010
 30
0.0
 10
203.136250
 20
10.346110
 30
0.0
 10
206.728300
 20
10.292610
 30
0.0
 10
210.297440
 20
10.548340
 30
0.0
  0
SPLINE
  5
124
100
AcDbEntity
  8
0
 62
1
100
AcDbSpline
 70
8
 71
3
 72
8
 73
4
 74
0
 40
0
 40
0
 40
0
 40
0
 40
1
 40
1
 40
1
 40
1
 10
210.297440
 20
10.548340
 30
0.0
 10
215.646780
 20
11.585070
 30
0.0
 10
220.129540
 20
15.880500
 30
0.0
 10
221.927840
 20
20.860940
 30
0.0
  0
SPLINE
  5
125
100
AcDbEntity
  8
0
 62
1
100
AcDbSpline
 70
8
 71
3
 72
8
 73
4
 74
0
 40
0
 40
0
 40
0
 40
0
 40
1
 40
1
 40
1
 40
1
 10
221.927840
 20
20.860940
 30
0.0
 10
222.742540
 20
23.018950
 30
0.0
 10
222.963540
 20
25.350330
 30
0.0
 10
222.789330
 20
27.637900
 30
0.0
  0
SPLINE
  5
126
100
AcDbEntity
  8
0
 62
1
100
AcDbSpline
 70
8
 71
3
 72
8
 73
4
 74
0
 40
0
 40
0
 40
0
 40
0
 40
1
 40
1
 40
1
 40
1
 10
222.789330
 20
27.637900
 30
0.0
 10
222.766730
 20
54.165440
 30
0.0
 10
222.930620
 20
80.697120
 30
0.0
 10
222.569230
 20
107.221550
 30
0.0
  0
SPLINE
  5
127
100
AcDbEntity
  8
0
 62
1
100
AcDbSpline
 70
8
 71
3
 72
8
 73
4
 74
0
 40
0
 40
0
 40
0
 40
0
 40
1
 40
1
 40
1
 40
1
 10
222.569230
 20
107.221550
 30
0.0
 10
221.303180
 20
116.852730
 30
0.0
 10
212.289280
 20
124.839460
 30
0.0
 10
202.545810
 20
124.767860
 30
0.0
  0
SPLINE
  5
128
100
AcDbEntity
  8
0
 62
1
100
AcDbSpline
 70
8
 71
3
 72
8
 73
4
 74
0
 40
0
 40
0
 40
0
 40
0
 40
1
 40
1
 40
1
 40
1
 10
202.545810
 20
124.767860
 30
0.0
 10
185.001970
 20
124.819260
 30
0.0
 10
167.458060
 20
124.803760
 30
0.0
 10
149.914170
 20
124.802360
 30
0.0
  0
LINE
  5
129
100
AcDbEntity
  8
0
 62
1
100
AcDbLine
 10
149.914170
 20
124.802360
 30
0.0
 11
149.914170
 21
124.802300
 31
0.0
  0
SPLINE
  5
12a
100
AcDbEntity
  8
0
 62
1
100
AcDbSpline
 70
8
 71
3
 72
8
 73
4
 74
0
 40
0
 40
0
 40
0
 40
0
 40
1
 40
1
 40
1
 40
1
 10
187.033310
 20
101.636280
 30
0.0
 10
185.487410
 20
101.630280
 30
0.0
 10
184.434820
 20
99.710070
 30
0.0
 10
185.305780
 20
98.419080
 30
0.0
  0
SPLINE
  5
12b
100
AcDbEntity
  8
0
 62
1
100
AcDbSpline
 70
8
 71
3
 72
8
 73
4
 74
0
 40
0
 40
0
 40
0
 40
0
 40
1
 40
1
 40
1
 40
1
 10
185.305780
 20
98.419080
 30
0.0
 10
186.063040
 20
96.995880
 30
0.0
 10
188.407480
 20
97.098430
 30
0.0
 10
189.017010
 20
98.598980
 30
0.0
  0
SPLINE
  5
12c
100
AcDbEntity
  8
0
 62
1
100
AcDbSpline
 70
8
 71
3
 72
8
 73
4
 74
0
 40
0
 40
0
 40
0
 40
0
 40
1
 40
1
 40
1
 40
1
 10
189.017010
 20
98.598980
 30
0.0
 10
189.757520
 20
99.980960
 30
0.0
 10
188.593260
 20
101.742360
 30
0.0
 10
187.033310
 20
101.636280
 30
0.0
  0
LINE
  5
12d
100
AcDbEntity
  8
0
 62
1
100
AcDbLine
 10
187.033310
 20
101.636280
 30
0.0
 11
187.033310
 21
101.636280
 31
0.0
  0
SPLINE
  5
12e
100
AcDbEntity
  8
0
 62
1
100
AcDbSpline
 70
8
 71
3
 72
8
 73
4
 74
0
 40
0
 40
0
 40
0
 40
0
 40
1
 40
1
 40
1
 40
1
 10
187.033310
 20
33.056210
 30
0.0
 10
185.487410
 20
33.050210
 30
0.0
 10
184.434820
 20
31.129990
 30
0.0
 10
185.305780
 20
29.839000
 30
0.0
  0
SPLINE
  5
12f
100
AcDbEntity
  8
0
 62
1
100
AcDbSpline
 70
8
 71
3
 72
8
 73
4
 74
0
 40
0
 40
0
 40
0
 40
0
 40
1
 40
1
 40
1
 40
1
 10
185.305780
 20
29.839000
 30
0.0
 10
186.063040
 20
28.415800
 30
0.0
 10
188.407480
 20
28.518350
 30
0.0
 10
189.017010
 20
30.018900
 30
0.0
  0
SPLINE
  5
130
100
AcDbEntity
  8
0
 62
1
100
AcDbSpline
 70
8
 71
3
 72
8
 73
4
 74
0
 40
0
 40
0
 40
0
 40
0
 40
1
 40
1
 40
1
 40
1
 10
189.017010
 20
30.018900
 30
0.0
 10
189.757520
 20
31.400880
 30
0.0
 10
188.593260
 20
33.162280
 30
0.0
 10
187.033310
 20
33.056210
 30
0.0
  0
LINE
  5
131
100
AcDbEntity
  8
0
 62
1
100
AcDbLine
 10
187.033310
 20
33.056210
 30
0.0
 11
187.033310
 21
33.056210
 31
0.0
  0
SPLINE
  5
132
100
AcDbEntity
  8
0
 62
1
100
AcDbSpline
 70
8
 71
3
 72
8
 73
4
 74
0
 40
0
 40
0
 40
0
 40
0
 40
1
 40
1
 40
1
 40
1
 10
65.113390
 20
101.636280
 30
0.0
 10
63.567487
 20
101.630280
 30
0.0
 10
62.514902
 20
99.710070
 30
0.0
 10
63.385856
 20
98.419080
 30
0.0
  0
SPLINE
  5
133
100
AcDbEntity
  8
0
 62
1
100
AcDbSpline
 70
8
 71
3
 72
8
 73
4
 74
0
 40
0
 40
0
 40
0
 40
0
 40
1
 40
1
 40
1
 40
1
 10
63.385856
 20
98.419080
 30
0.0
 10
64.143117
 20
96.995880
 30
0.0
 10
66.487562
 20
97.098430
 30
0.0
 10
67.097084
 20
98.598980
 30
0.0
  0
SPLINE
  5
134
100
AcDbEntity
  8
0
 62
1
100
AcDbSpline
 70
8
 71
3
 72
8
 73
4
 74
0
 40
0
 40
0
 40
0
 40
0
 40
1
 40
1
 40
1
 40
1
 10
67.097084
 20
98.598980
 30
0.0
 10
67.836868
 20
99.980500
 30
0.0
 10
66.673560
 20
101.742620
 30
0.0
 10
65.113390
 20
101.636280
 30
0.0
  0
LINE
  5
135
100
AcDbEntity
  8
0
 62
1
100
AcDbLine
 10
65.113390
 20
101.636280
 30
0.0
 11
65.113390
 21
101.636280
 31
0.0
  0
SPLINE
  5
136
100
AcDbEntity
  8
0
 62
1
100
AcDbSpline
 70
8
 71
3
 72
8
 73
4
 74
0
 40
0
 40
0
 40
0
 40
0
 40
1
 40
1
 40
1
 40
1
 10
65.113390
 20
33.056210
 30
0.0
 10
63.567487
 20
33.050210
 30
0.0
 10
62.514902
 20
31.129990
 30
0.0
 10
63.385856
 20
29.839000
 30
0.0
  0
SPLINE
  5
137
100
AcDbEntity
  8
0
 62
1
100
AcDbSpline
 70
8
 71
3
 72
8
 73
4
 74
0
 40
0
 40
0
 40
0
 40
0
 40
1
 40
1
 40
1
 40
1
 10
63.385856
 20
29.839000
 30
0.0
 10
64.143117
 20
28.415800
 30
0.0
 10
66.487562
 20
28.518350
 30
0.0
 10
67.097084
 20
30.018900
 30
0.0
  0
SPLINE
  5
138
100
AcDbEntity
  8
0
 62
1
100
AcDbSpline
 70
8
 71
3
 72
8
 73
4
 74
0
 40
0
 40
0
 40
0
 40
0
 40
1
 40
1
 40
1
 40
1
 10
67.097084
 20
30.018900
 30
0.0
 10
67.836868
 20
31.400420
 30
0.0
 10
66.673560
 20
33.162540
 30
0.0
 10
65.113390
 20
33.056210
 30
0.0
  0
LINE
  5
139
100
AcDbEntity
  8
0
 62
1
100
AcDbLine
 10
65.113390
 20
33.056210
 30
0.0
 11
65.113390
 21
33.056210
 31
0.0
  0
SPLINE
  5
13a
100
AcDbEntity
  8
0
 62
1
100
AcDbSpline
 70
8
 71
3
 72
8
 73
4
 74
0
 40
0
 40
0
 40
0
 40
0
 40
1
 40
1
 40
1
 40
1
 10
152.249100
 20
491.512758
 30
0.0
 10
115.920100
 20
491.488858
 30
0.0
 10
79.588732
 20
491.531658
 30
0.0
 10
43.261323
 20
491.382478
 30
0.0
  0
SPLINE
  5
13b
100
AcDbEntity
  8
0
 62
1
100
AcDbSpline
 70
8
 71
3
 72
8
 73
4
 74
0
 40
0
 40
0
 40
0
 40
0
 40
1
 40
1
 40
1
 40
1
 10
43.261323
 20
491.382478
 30
0.0
 10
35.441619
 20
490.491468
 30
0.0
 10
29.115792
 20
482.915738
 30
0.0
 10
29.507302
 20
475.076818
 30
0.0
  0
SPLINE
  5
13c
100
AcDbEntity
  8
0
 62
1
100
AcDbSpline
 70
8
 71
3
 72
8
 73
4
 74
0
 40
0
 40
0
 40
0
 40
0
 40
1
 40
1
 40
1
 40
1
 10
29.507302
 20
475.076818
 30
0.0
 10
29.643232
 20
448.217740
 30
0.0
 10
29.372842
 20
421.356495
 30
0.0
 10
29.788202
 20
394.499120
 30
0.0
  0
SPLINE
  5
13d
100
AcDbEntity
  8
0
 62
1
100
AcDbSpline
 70
8
 71
3
 72
8
 73
4
 74
0
 40
0
 40
0
 40
0
 40
0
 40
1
 40
1
 40
1
 40
1
 10
29.788202
 20
394.499120
 30
0.0
 10
30.958442
 20
385.741060
 30
0.0
 10
38.406926
 20
378.371340
 30
0.0
 10
47.163190
 20
377.157320
 30
0.0
  0
SPLINE
  5
13e
100
AcDbEntity
  8
0
 62
1
100
AcDbSpline
 70
8
 71
3
 72
8
 73
4
 74
0
 40
0
 40
0
 40
0
 40
0
 40
1
 40
1
 40
1
 40
1
 10
47.163190
 20
377.157320
 30
0.0
 10
49.630990
 20
376.835230
 30
0.0
 10
52.126620
 20
377.071120
 30
0.0
 10
54.607327
 20
376.994000
 30
0.0
  0
SPLINE
  5
13f
100
AcDbEntity
  8
0
 62
1
100
AcDbSpline
 70
8
 71
3
 72
8
 73
4
 74
0
 40
0
 40
0
 40
0
 40
0
 40
1
 40
1
 40
1
 40
1
 10
54.607327
 20
376.994000
 30
0.0
 10
103.702010
 20
376.894700
 30
0.0
 10
152.796990
 20
376.904100
 30
0.0
 10
201.891640
 20
377.017500
 30
0.0
  0
SPLINE
  5
140
100
AcDbEntity
  8
0
 62
1
100
AcDbSpline
 70
8
 71
3
 72
8
 73
4
 74
0
 40
0
 40
0
 40
0
 40
0
 40
1
 40
1
 40
1
 40
1
 10
201.891640
 20
377.017500
 30
0.0
 10
205.471180
 20
377.056600
 30
0.0
 10
209.063230
 20
377.003100
 30
0.0
 10
212.632370
 20
377.258830
 30
0.0
  0
SPLINE
  5
141
100
AcDbEntity
  8
0
 62
1
100
AcDbSpline
 70
8
 71
3
 72
8
 73
4
 74
0
 40
0
 40
0
 40
0
 40
0
 40
1
 40
1
 40
1
 40
1
 10
212.632370
 20
377.258830
 30
0.0
 10
217.981710
 20
378.295560
 30
0.0
 10
222.464470
 20
382.590990
 30
0.0
 10
224.262770
 20
387.571430
 30
0.0
  0
SPLINE
  5
142
100
AcDbEntity
  8
0
 62
1
100
AcDbSpline
 70
8
 71
3
 72
8
 73
4
 74
0
 40
0
 40
0
 40
0
 40
0
 40
1
 40
1
 40
1
 40
1
 10
224.262770
 20
387.571430
 30
0.0
 10
225.077470
 20
389.729440
 30
0.0
 10
225.298470
 20
392.060820
 30
0.0
 10
225.124260
 20
394.348390
 30
0.0
  0
SPLINE
  5
143
100
AcDbEntity
  8
0
 62
1
100
AcDbSpline
 70
8
 71
3
 72
8
 73
4
 74
0
 40
0
 40
0
 40
0
 40
0
 40
1
 40
1
 40
1
 40
1
 10
225.124260
 20
394.348390
 30
0.0
 10
225.101660
 20
420.875918
 30
0.0
 10
225.265550
 20
447.407583
 30
0.0
 10
224.904160
 20
473.932008
 30
0.0
  0
SPLINE
  5
144
100
AcDbEntity
  8
0
 62
1
100
AcDbSpline
 70
8
 71
3
 72
8
 73
4
 74
0
 40
0
 40
0
 40
0
 40
0
 40
1
 40
1
 40
1
 40
1
 10
224.904160
 20
473.932008
 30
0.0
 10
223.638110
 20
483.563198
 30
0.0
 10
214.624210
 20
491.549918
 30
0.0
 10
204.880740
 20
491.478318
 30
0.0
  0
SPLINE
  5
145
100
AcDbEntity
  8
0
 62
1
100
AcDbSpline
 70
8
 71
3
 72
8
 73
4
 74
0
 40
0
 40
0
 40
0
 40
0
 40
1
 40
1
 40
1
 40
1
 10
204.880740
 20
491.478318
 30
0.0
 10
187.336900
 20
491.529718
 30
0.0
 10
169.792990
 20
491.514218
 30
0.0
 10
152.249100
 20
491.512818
 30
0.0
  0
LINE
  5
146
100
AcDbEntity
  8
0
 62
1
100
AcDbLine
 10
152.249100
 20
491.512818
 30
0.0
 11
152.249100
 21
491.512758
 31
0.0
  0
SPLINE
  5
147
100
AcDbEntity
  8
0
 62
1
100
AcDbSpline
 70
8
 71
3
 72
8
 73
4
 74
0
 40
0
 40
0
 40
0
 40
0
 40
1
 40
1
 40
1
 40
1
 10
189.368240
 20
468.346748
 30
0.0
 10
187.822340
 20
468.340748
 30
0.0
 10
186.769750
 20
466.420528
 30
0.0
 10
187.640710
 20
465.129538
 30
0.0
  0
SPLINE
  5
148
100
AcDbEntity
  8
0
 62
1
100
AcDbSpline
 70
8
 71
3
 72
8
 73
4
 74
0
 40
0
 40
0
 40
0
 40
0
 40
1
 40
1
 40
1
 40
1
 10
187.640710
 20
465.129538
 30
0.0
 10
188.397970
 20
463.706338
 30
0.0
 10
190.742410
 20
463.808888
 30
0.0
 10
191.351940
 20
465.309438
 30
0.0
  0
SPLINE
  5
149
100
AcDbEntity
  8
0
 62
1
100
AcDbSpline
 70
8
 71
3
 72
8
 73
4
 74
0
 40
0
 40
0
 40
0
 40
0
 40
1
 40
1
 40
1
 40
1
 10
191.351940
 20
465.309438
 30
0.0
 10
192.092450
 20
466.691418
 30
0.0
 10
190.928190
 20
468.452818
 30
0.0
 10
189.368240
 20
468.346748
 30
0.0
  0
LINE
  5
14a
100
AcDbEntity
  8
0
 62
1
100
AcDbLine
 10
189.368240
 20
468.346748
 30
0.0
 11
189.368240
 21
468.346748
 31
0.0
  0
SPLINE
  5
14b
100
AcDbEntity
  8
0
 62
1
100
AcDbSpline
 70
8
 71
3
 72
8
 73
4
 74
0
 40
0
 40
0
 40
0
 40
0
 40
1
 40
1
 40
1
 40
1
 10
189.368240
 20
399.766700
 30
0.0
 10
187.822340
 20
399.760700
 30
0.0
 10
186.769750
 20
397.840480
 30
0.0
 10
187.640710
 20
396.549490
 30
0.0
  0
SPLINE
  5
14c
100
AcDbEntity
  8
0
 62
1
100
AcDbSpline
 70
8
 71
3
 72
8
 73
4
 74
0
 40
0
 40
0
 40
0
 40
0
 40
1
 40
1
 40
1
 40
1
 10
187.640710
 20
396.549490
 30
0.0
 10
188.397970
 20
395.126290
 30
0.0
 10
190.742410
 20
395.228840
 30
0.0
 10
191.351940
 20
396.729390
 30
0.0
  0
SPLINE
  5
14d
100
AcDbEntity
  8
0
 62
1
100
AcDbSpline
 70
8
 71
3
 72
8
 73
4
 74
0
 40
0
 40
0
 40
0
 40
0
 40
1
 40
1
 40
1
 40
1
 10
191.351940
 20
396.729390
 30
0.0
 10
192.092450
 20
398.111370
 30
0.0
 10
190.928190
 20
399.872770
 30
0.0
 10
189.368240
 20
399.766700
 30
0.0
  0
LINE
  5
14e
100
AcDbEntity
  8
0
 62
1
100
AcDbLine
 10
189.368240
 20
399.766700
 30
0.0
 11
189.368240
 21
399.766700
 31
0.0
  0
SPLINE
  5
14f
100
AcDbEntity
  8
0
 62
1
100
AcDbSpline
 70
8
 71
3
 72
8
 73
4
 74
0
 40
0
 40
0
 40
0
 40
0
 40
1
 40
1
 40
1
 40
1
 10
67.448341
 20
468.346748
 30
0.0
 10
65.902441
 20
468.340748
 30
0.0
 10
64.849851
 20
466.420528
 30
0.0
 10
65.720811
 20
465.129538
 30
0.0
  0
SPLINE
  5
150
100
AcDbEntity
  8
0
 62
1
100
AcDbSpline
 70
8
 71
3
 72
8
 73
4
 74
0
 40
0
 40
0
 40
0
 40
0
 40
1
 40
1
 40
1
 40
1
 10
65.720811
 20
465.129538
 30
0.0
 10
66.478071
 20
463.706338
 30
0.0
 10
68.822508
 20
463.808888
 30
0.0
 10
69.432028
 20
465.309438
 30
0.0
  0
SPLINE
  5
151
100
AcDbEntity
  8
0
 62
1
100
AcDbSpline
 70
8
 71
3
 72
8
 73
4
 74
0
 40
0
 40
0
 40
0
 40
0
 40
1
 40
1
 40
1
 40
1
 10
69.432028
 20
465.309438
 30
0.0
 10
70.171818
 20
466.690958
 30
0.0
 10
69.008508
 20
468.453078
 30
0.0
 10
67.448341
 20
468.346748
 30
0.0
  0
LINE
  5
152
100
AcDbEntity
  8
0
 62
1
100
AcDbLine
 10
67.448341
 20
468.346748
 30
0.0
 11
67.448341
 21
468.346748
 31
0.0
  0
SPLINE
  5
153
100
AcDbEntity
  8
0
 62
1
100
AcDbSpline
 70
8
 71
3
 72
8
 73
4
 74
0
 40
0
 40
0
 40
0
 40
0
 40
1
 40
1
 40
1
 40
1
 10
67.448341
 20
399.766700
 30
0.0
 10
65.902441
 20
399.760700
 30
0.0
 10
64.849851
 20
397.840480
 30
0.0
 10
65.720811
 20
396.549490
 30
0.0
  0
SPLINE
  5
154
100
AcDbEntity
  8
0
 62
1
100
AcDbSpline
 70
8
 71
3
 72
8
 73
4
 74
0
 40
0
 40
0
 40
0
 40
0
 40
1
 40
1
 40
1
 40
1
 10
65.720811
 20
396.549490
 30
0.0
 10
66.478071
 20
395.126290
 30
0.0
 10
68.822508
 20
395.228840
 30
0.0
 10
69.432028
 20
396.729390
 30
0.0
  0
SPLINE
  5
155
100
AcDbEntity
  8
0
 62
1
100
AcDbSpline
 70
8
 71
3
 72
8
 73
4
 74
0
 40
0
 40
0
 40
0
 40
0
 40
1
 40
1
 40
1
 40
1
 10
69.432028
 20
396.729390
 30
0.0
 10
70.171818
 20
398.110910
 30
0.0
 10
69.008508
 20
399.873030
 30
0.0
 10
67.448341
 20
399.766700
 30
0.0
  0
LINE
  5
156
100
AcDbEntity
  8
0
 62
1
100
AcDbLine
 10
67.448341
 20
399.766700
 30
0.0
 11
67.448341
 21
399.766700
 31
0.0
  0
SPLINE
  5
157
100
AcDbEntity
  8
0
 62
1
100
AcDbSpline
 70
8
 71
3
 72
8
 73
4
 74
0
 40
0
 40
0
 40
0
 40
0
 40
1
 40
1
 40
1
 40
1
 10
152.249100
 20
246.765710
 30
0.0
 10
115.920100
 20
246.741810
 30
0.0
 10
79.588732
 20
246.784610
 30
0.0
 10
43.261323
 20
246.635430
 30
0.0
  0
SPLINE
  5
158
100
AcDbEntity
  8
0
 62
1
100
AcDbSpline
 70
8
 71
3
 72
8
 73
4
 74
0
 40
0
 40
0
 40
0
 40
0
 40
1
 40
1
 40
1
 40
1
 10
43.261323
 20
246.635430
 30
0.0
 10
35.441619
 20
245.744420
 30
0.0
 10
29.115792
 20
238.168690
 30
0.0
 10
29.507302
 20
230.329770
 30
0.0
  0
SPLINE
  5
159
100
AcDbEntity
  8
0
 62
1
100
AcDbSpline
 70
8
 71
3
 72
8
 73
4
 74
0
 40
0
 40
0
 40
0
 40
0
 40
1
 40
1
 40
1
 40
1
 10
29.507302
 20
230.329770
 30
0.0
 10
29.643232
 20
203.470690
 30
0.0
 10
29.372842
 20
176.609430
 30
0.0
 10
29.788202
 20
149.752040
 30
0.0
  0
SPLINE
  5
15a
100
AcDbEntity
  8
0
 62
1
100
AcDbSpline
 70
8
 71
3
 72
8
 73
4
 74
0
 40
0
 40
0
 40
0
 40
0
 40
1
 40
1
 40
1
 40
1
 10
29.788202
 20
149.752040
 30
0.0
 10
30.958442
 20
140.993980
 30
0.0
 10
38.406926
 20
133.624260
 30
0.0
 10
47.163190
 20
132.410240
 30
0.0
  0
SPLINE
  5
15b
100
AcDbEntity
  8
0
 62
1
100
AcDbSpline
 70
8
 71
3
 72
8
 73
4
 74
0
 40
0
 40
0
 40
0
 40
0
 40
1
 40
1
 40
1
 40
1
 10
47.163190
 20
132.410240
 30
0.0
 10
49.630990
 20
132.088150
 30
0.0
 10
52.126620
 20
132.324040
 30
0.0
 10
54.607327
 20
132.246920
 30
0.0
  0
SPLINE
  5
15c
100
AcDbEntity
  8
0
 62
1
100
AcDbSpline
 70
8
 71
3
 72
8
 73
4
 74
0
 40
0
 40
0
 40
0
 40
0
 40
1
 40
1
 40
1
 40
1
 10
54.607327
 20
132.246920
 30
0.0
 10
103.702010
 20
132.147620
 30
0.0
 10
152.796990
 20
132.157020
 30
0.0
 10
201.891640
 20
132.270420
 30
0.0
  0
SPLINE
  5
15d
100
AcDbEntity
  8
0
 62
1
100
AcDbSpline
 70
8
 71
3
 72
8
 73
4
 74
0
 40
0
 40
0
 40
0
 40
0
 40
1
 40
1
 40
1
 40
1
 10
201.891640
 20
132.270420
 30
0.0
 10
205.471180
 20
132.309520
 30
0.0
 10
209.063230
 20
132.256020
 30
0.0
 10
212.632370
 20
132.511750
 30
0.0
  0
SPLINE
  5
15e
100
AcDbEntity
  8
0
 62
1
100
AcDbSpline
 70
8
 71
3
 72
8
 73
4
 74
0
 40
0
 40
0
 40
0
 40
0
 40
1
 40
1
 40
1
 40
1
 10
212.632370
 20
132.511750
 30
0.0
 10
217.981710
 20
133.548480
 30
0.0
 10
222.464470
 20
137.843910
 30
0.0
 10
224.262770
 20
142.824350
 30
0.0
  0
SPLINE
  5
15f
100
AcDbEntity
  8
0
 62
1
100
AcDbSpline
 70
8
 71
3
 72
8
 73
4
 74
0
 40
0
 40
0
 40
0
 40
0
 40
1
 40
1
 40
1
 40
1
 10
224.262770
 20
142.824350
 30
0.0
 10
225.077470
 20
144.982360
 30
0.0
 10
225.298470
 20
147.313740
 30
0.0
 10
225.124260
 20
149.601310
 30
0.0
  0
SPLINE
  5
160
100
AcDbEntity
  8
0
 62
1
100
AcDbSpline
 70
8
 71
3
 72
8
 73
4
 74
0
 40
0
 40
0
 40
0
 40
0
 40
1
 40
1
 40
1
 40
1
 10
225.124260
 20
149.601310
 30
0.0
 10
225.101660
 20
176.128850
 30
0.0
 10
225.265550
 20
202.660530
 30
0.0
 10
224.904160
 20
229.184960
 30
0.0
  0
SPLINE
  5
161
100
AcDbEntity
  8
0
 62
1
100
AcDbSpline
 70
8
 71
3
 72
8
 73
4
 74
0
 40
0
 40
0
 40
0
 40
0
 40
1
 40
1
 40
1
 40
1
 10
224.904160
 20
229.184960
 30
0.0
 10
223.638110
 20
238.816140
 30
0.0
 10
214.624210
 20
246.802870
 30
0.0
 10
204.880740
 20
246.731270
 30
0.0
  0
SPLINE
  5
162
100
AcDbEntity
  8
0
 62
1
100
AcDbSpline
 70
8
 71
3
 72
8
 73
4
 74
0
 40
0
 40
0
 40
0
 40
0
 40
1
 40
1
 40
1
 40
1
 10
204.880740
 20
246.731270
 30
0.0
 10
187.336900
 20
246.782670
 30
0.0
 10
169.792990
 20
246.767170
 30
0.0
 10
152.249100
 20
246.765770
 30
0.0
  0
LINE
  5
163
100
AcDbEntity
  8
0
 62
1
100
AcDbLine
 10
152.249100
 20
246.765770
 30
0.0
 11
152.249100
 21
246.765710
 31
0.0
  0
SPLINE
  5
164
100
AcDbEntity
  8
0
 62
1
100
AcDbSpline
 70
8
 71
3
 72
8
 73
4
 74
0
 40
0
 40
0
 40
0
 40
0
 40
1
 40
1
 40
1
 40
1
 10
189.368240
 20
223.599690
 30
0.0
 10
187.822340
 20
223.593690
 30
0.0
 10
186.769750
 20
221.673480
 30
0.0
 10
187.640710
 20
220.382490
 30
0.0
  0
SPLINE
  5
165
100
AcDbEntity
  8
0
 62
1
100
AcDbSpline
 70
8
 71
3
 72
8
 73
4
 74
0
 40
0
 40
0
 40
0
 40
0
 40
1
 40
1
 40
1
 40
1
 10
187.640710
 20
220.382490
 30
0.0
 10
188.397970
 20
218.959290
 30
0.0
 10
190.742410
 20
219.061840
 30
0.0
 10
191.351940
 20
220.562390
 30
0.0
  0
SPLINE
  5
166
100
AcDbEntity
  8
0
 62
1
100
AcDbSpline
 70
8
 71
3
 72
8
 73
4
 74
0
 40
0
 40
0
 40
0
 40
0
 40
1
 40
1
 40
1
 40
1
 10
191.351940
 20
220.562390
 30
0.0
 10
192.092450
 20
221.944370
 30
0.0
 10
190.928190
 20
223.705770
 30
0.0
 10
189.368240
 20
223.599690
 30
0.0
  0
LINE
  5
167
100
AcDbEntity
  8
0
 62
1
100
AcDbLine
 10
189.368240
 20
223.599690
 30
0.0
 11
189.368240
 21
223.599690
 31
0.0
  0
SPLINE
  5
168
100
AcDbEntity
  8
0
 62
1
100
AcDbSpline
 70
8
 71
3
 72
8
 73
4
 74
0
 40
0
 40
0
 40
0
 40
0
 40
1
 40
1
 40
1
 40
1
 10
189.368240
 20
155.019620
 30
0.0
 10
187.822340
 20
155.013620
 30
0.0
 10
186.769750
 20
153.093400
 30
0.0
 10
187.640710
 20
151.802410
 30
0.0
  0
SPLINE
  5
169
100
AcDbEntity
  8
0
 62
1
100
AcDbSpline
 70
8
 71
3
 72
8
 73
4
 74
0
 40
0
 40
0
 40
0
 40
0
 40
1
 40
1
 40
1
 40
1
 10
187.640710
 20
151.802410
 30
0.0
 10
188.397970
 20
150.379210
 30
0.0
 10
190.742410
 20
150.481760
 30
0.0
 10
191.351940
 20
151.982310
 30
0.0
  0
SPLINE
  5
16a
100
AcDbEntity
  8
0
 62
1
100
AcDbSpline
 70
8
 71
3
 72
8
 73
4
 74
0
 40
0
 40
0
 40
0
 40
0
 40
1
 40
1
 40
1
 40
1
 10
191.351940
 20
151.982310
 30
0.0
 10
192.092450
 20
153.364290
 30
0.0
 10
190.928190
 20
155.125690
 30
0.0
 10
189.368240
 20
155.019620
 30
0.0
  0
LINE
  5
16b
100
AcDbEntity
  8
0
 62
1
100
AcDbLine
 10
189.368240
 20
155.019620
 30
0.0
 11
189.368240
 21
155.019620
 31
0.0
  0
SPLINE
  5
16c
100
AcDbEntity
  8
0
 62
1
100
AcDbSpline
 70
8
 71
3
 72
8
 73
4
 74
0
 40
0
 40
0
 40
0
 40
0
 40
1
 40
1
 40
1
 40
1
 10
67.448341
 20
223.599690
 30
0.0
 10
65.902441
 20
223.593690
 30
0.0
 10
64.849851
 20
221.673480
 30
0.0
 10
65.720811
 20
220.382490
 30
0.0
  0
SPLINE
  5
16d
100
AcDbEntity
  8
0
 62
1
100
AcDbSpline
 70
8
 71
3
 72
8
 73
4
 74
0
 40
0
 40
0
 40
0
 40
0
 40
1
 40
1
 40
1
 40
1
 10
65.720811
 20
220.382490
 30
0.0
 10
66.478071
 20
218.959290
 30
0.0
 10
68.822508
 20
219.061840
 30
0.0
 10
69.432028
 20
220.562390
 30
0.0
  0
SPLINE
  5
16e
100
AcDbEntity
  8
0
 62
1
100
AcDbSpline
 70
8
 71
3
 72
8
 73
4
 74
0
 40
0
 40
0
 40
0
 40
0
 40
1
 40
1
 40
1
 40
1
 10
69.432028
 20
220.562390
 30
0.0
 10
70.171818
 20
221.943910
 30
0.0
 10
69.008508
 20
223.706030
 30
0.0
 10
67.448341
 20
223.599690
 30
0.0
  0
LINE
  5
16f
100
AcDbEntity
  8
0
 62
1
100
AcDbLine
 10
67.448341
 20
223.599690
 30
0.0
 11
67.448341
 21
223.599690
 31
0.0
  0
SPLINE
  5
170
100
AcDbEntity
  8
0
 62
1
100
AcDbSpline
 70
8
 71
3
 72
8
 73
4
 74
0
 40
0
 40
0
 40
0
 40
0
 40
1
 40
1
 40
1
 40
1
 10
67.448341
 20
155.019620
 30
0.0
 10
65.902441
 20
155.013620
 30
0.0
 10
64.849851
 20
153.093400
 30
0.0
 10
65.720811
 20
151.802410
 30
0.0
  0
SPLINE
  5
171
100
AcDbEntity
  8
0
 62
1
100
AcDbSpline
 70
8
 71
3
 72
8
 73
4
 74
0
 40
0
 40
0
 40
0
 40
0
 40
1
 40
1
 40
1
 40
1
 10
65.720811
 20
151.802410
 30
0.0
 10
66.478071
 20
150.379210
 30
0.0
 10
68.822508
 20
150.481760
 30
0.0
 10
69.432028
 20
151.982310
 30
0.0
  0
SPLINE
  5
172
100
AcDbEntity
  8
0
 62
1
100
AcDbSpline
 70
8
 71
3
 72
8
 73
4
 74
0
 40
0
 40
0
 40
0
 40
0
 40
1
 40
1
 40
1
 40
1
 10
69.432028
 20
151.982310
 30
0.0
 10
70.171818
 20
153.363830
 30
0.0
 10
69.008508
 20
155.125950
 30
0.0
 10
67.448341
 20
155.019620
 30
0.0
  0
LINE
  5
173
100
AcDbEntity
  8
0
 62
1
100
AcDbLine
 10
67.448341
 20
155.019620
 30
0.0
 11
67.448341
 21
155.019620
 31
0.0
  0
ENDSEC
  0
SECTION
  2
OBJECTS
  0
DICTIONARY
  5
C
330
0
100
AcDbDictionary
  3
ACAD_GROUP
350
D
  3
ACAD_MLINESTYLE
350
17
  0
DICTIONARY
  5
D
330
C
100
AcDbDictionary
  0
DICTIONARY
  5
1A
330
C
100
AcDbDictionary
  0
DICTIONARY
  5
17
330
C
100
AcDbDictionary
  3
STANDARD
350
18
  0
DICTIONARY
  5
19
330
C
100
AcDbDictionary
  0
ENDSEC
  0
EOF
