%FSLAX45Y45*%
G04 Gerber Fmt 4.5, Leading zero omitted, Abs format (unit mm)*
G04 Created by KiCad (PCBNEW (5.1.9-0-10_14)) date 2024-01-04 20:04:51*
%MOMM*%
%LPD*%
G01*
G04 APERTURE LIST*
%TA.AperFunction,Profile*%
%ADD10C,0.100000*%
%TD*%
%ADD11C,0.200000*%
%ADD12C,0.300000*%
G04 APERTURE END LIST*
D10*
X22884000Y-4064000D02*
X22884000Y-13514000D01*
X5334000Y-4064000D02*
X22884000Y-4064000D01*
X5334000Y-13514000D02*
X5334000Y-4064000D01*
X22884000Y-13514000D02*
X5334000Y-13514000D01*
D11*
X7968000Y-5428000D02*
X8288000Y-5748000D01*
X8288000Y-5428000D02*
X7968000Y-5748000D01*
X7968000Y-12286000D02*
X8288000Y-12606000D01*
X8288000Y-12286000D02*
X7968000Y-12606000D01*
X20160000Y-5428000D02*
X20480000Y-5748000D01*
X20480000Y-5428000D02*
X20160000Y-5748000D01*
X20160000Y-12286000D02*
X20480000Y-12606000D01*
X20480000Y-12286000D02*
X20160000Y-12606000D01*
D12*
X5615428Y-13984714D02*
X5615428Y-13684714D01*
X5686857Y-13684714D01*
X5729714Y-13699000D01*
X5758286Y-13727571D01*
X5772571Y-13756143D01*
X5786857Y-13813286D01*
X5786857Y-13856143D01*
X5772571Y-13913286D01*
X5758286Y-13941857D01*
X5729714Y-13970429D01*
X5686857Y-13984714D01*
X5615428Y-13984714D01*
X5915428Y-13984714D02*
X5915428Y-13784714D01*
X5915428Y-13841857D02*
X5929714Y-13813286D01*
X5944000Y-13799000D01*
X5972571Y-13784714D01*
X6001143Y-13784714D01*
X6101143Y-13984714D02*
X6101143Y-13784714D01*
X6101143Y-13684714D02*
X6086857Y-13699000D01*
X6101143Y-13713286D01*
X6115428Y-13699000D01*
X6101143Y-13684714D01*
X6101143Y-13713286D01*
X6286857Y-13984714D02*
X6258286Y-13970429D01*
X6244000Y-13941857D01*
X6244000Y-13684714D01*
X6444000Y-13984714D02*
X6415428Y-13970429D01*
X6401143Y-13941857D01*
X6401143Y-13684714D01*
X6786857Y-13984714D02*
X6786857Y-13684714D01*
X6886857Y-13899000D01*
X6986857Y-13684714D01*
X6986857Y-13984714D01*
X7258286Y-13984714D02*
X7258286Y-13827571D01*
X7244000Y-13799000D01*
X7215428Y-13784714D01*
X7158286Y-13784714D01*
X7129714Y-13799000D01*
X7258286Y-13970429D02*
X7229714Y-13984714D01*
X7158286Y-13984714D01*
X7129714Y-13970429D01*
X7115428Y-13941857D01*
X7115428Y-13913286D01*
X7129714Y-13884714D01*
X7158286Y-13870429D01*
X7229714Y-13870429D01*
X7258286Y-13856143D01*
X7401143Y-13784714D02*
X7401143Y-14084714D01*
X7401143Y-13799000D02*
X7429714Y-13784714D01*
X7486857Y-13784714D01*
X7515428Y-13799000D01*
X7529714Y-13813286D01*
X7544000Y-13841857D01*
X7544000Y-13927571D01*
X7529714Y-13956143D01*
X7515428Y-13970429D01*
X7486857Y-13984714D01*
X7429714Y-13984714D01*
X7401143Y-13970429D01*
X7672571Y-13956143D02*
X7686857Y-13970429D01*
X7672571Y-13984714D01*
X7658286Y-13970429D01*
X7672571Y-13956143D01*
X7672571Y-13984714D01*
X7672571Y-13799000D02*
X7686857Y-13813286D01*
X7672571Y-13827571D01*
X7658286Y-13813286D01*
X7672571Y-13799000D01*
X7672571Y-13827571D01*
X5009000Y-14319000D02*
X5329000Y-14639000D01*
X5329000Y-14319000D02*
X5009000Y-14639000D01*
X5586857Y-14314714D02*
X5772571Y-14314714D01*
X5672571Y-14429000D01*
X5715428Y-14429000D01*
X5744000Y-14443286D01*
X5758286Y-14457571D01*
X5772571Y-14486143D01*
X5772571Y-14557571D01*
X5758286Y-14586143D01*
X5744000Y-14600429D01*
X5715428Y-14614714D01*
X5629714Y-14614714D01*
X5601143Y-14600429D01*
X5586857Y-14586143D01*
X5901143Y-14586143D02*
X5915428Y-14600429D01*
X5901143Y-14614714D01*
X5886857Y-14600429D01*
X5901143Y-14586143D01*
X5901143Y-14614714D01*
X6029714Y-14343286D02*
X6044000Y-14329000D01*
X6072571Y-14314714D01*
X6144000Y-14314714D01*
X6172571Y-14329000D01*
X6186857Y-14343286D01*
X6201143Y-14371857D01*
X6201143Y-14400429D01*
X6186857Y-14443286D01*
X6015428Y-14614714D01*
X6201143Y-14614714D01*
X6386857Y-14314714D02*
X6415428Y-14314714D01*
X6444000Y-14329000D01*
X6458286Y-14343286D01*
X6472571Y-14371857D01*
X6486857Y-14429000D01*
X6486857Y-14500429D01*
X6472571Y-14557571D01*
X6458286Y-14586143D01*
X6444000Y-14600429D01*
X6415428Y-14614714D01*
X6386857Y-14614714D01*
X6358286Y-14600429D01*
X6344000Y-14586143D01*
X6329714Y-14557571D01*
X6315428Y-14500429D01*
X6315428Y-14429000D01*
X6329714Y-14371857D01*
X6344000Y-14343286D01*
X6358286Y-14329000D01*
X6386857Y-14314714D01*
X6615428Y-14614714D02*
X6615428Y-14414714D01*
X6615428Y-14443286D02*
X6629714Y-14429000D01*
X6658286Y-14414714D01*
X6701143Y-14414714D01*
X6729714Y-14429000D01*
X6744000Y-14457571D01*
X6744000Y-14614714D01*
X6744000Y-14457571D02*
X6758286Y-14429000D01*
X6786857Y-14414714D01*
X6829714Y-14414714D01*
X6858286Y-14429000D01*
X6872571Y-14457571D01*
X6872571Y-14614714D01*
X7015428Y-14614714D02*
X7015428Y-14414714D01*
X7015428Y-14443286D02*
X7029714Y-14429000D01*
X7058286Y-14414714D01*
X7101143Y-14414714D01*
X7129714Y-14429000D01*
X7144000Y-14457571D01*
X7144000Y-14614714D01*
X7144000Y-14457571D02*
X7158286Y-14429000D01*
X7186857Y-14414714D01*
X7229714Y-14414714D01*
X7258286Y-14429000D01*
X7272571Y-14457571D01*
X7272571Y-14614714D01*
X7858286Y-14300429D02*
X7601143Y-14686143D01*
X8244000Y-14314714D02*
X8272571Y-14314714D01*
X8301143Y-14329000D01*
X8315428Y-14343286D01*
X8329714Y-14371857D01*
X8344000Y-14429000D01*
X8344000Y-14500429D01*
X8329714Y-14557571D01*
X8315428Y-14586143D01*
X8301143Y-14600429D01*
X8272571Y-14614714D01*
X8244000Y-14614714D01*
X8215428Y-14600429D01*
X8201143Y-14586143D01*
X8186857Y-14557571D01*
X8172571Y-14500429D01*
X8172571Y-14429000D01*
X8186857Y-14371857D01*
X8201143Y-14343286D01*
X8215428Y-14329000D01*
X8244000Y-14314714D01*
X8472571Y-14586143D02*
X8486857Y-14600429D01*
X8472571Y-14614714D01*
X8458286Y-14600429D01*
X8472571Y-14586143D01*
X8472571Y-14614714D01*
X8772571Y-14614714D02*
X8601143Y-14614714D01*
X8686857Y-14614714D02*
X8686857Y-14314714D01*
X8658286Y-14357571D01*
X8629714Y-14386143D01*
X8601143Y-14400429D01*
X8886857Y-14343286D02*
X8901143Y-14329000D01*
X8929714Y-14314714D01*
X9001143Y-14314714D01*
X9029714Y-14329000D01*
X9044000Y-14343286D01*
X9058286Y-14371857D01*
X9058286Y-14400429D01*
X9044000Y-14443286D01*
X8872571Y-14614714D01*
X9058286Y-14614714D01*
X9315428Y-14314714D02*
X9258286Y-14314714D01*
X9229714Y-14329000D01*
X9215428Y-14343286D01*
X9186857Y-14386143D01*
X9172571Y-14443286D01*
X9172571Y-14557571D01*
X9186857Y-14586143D01*
X9201143Y-14600429D01*
X9229714Y-14614714D01*
X9286857Y-14614714D01*
X9315428Y-14600429D01*
X9329714Y-14586143D01*
X9344000Y-14557571D01*
X9344000Y-14486143D01*
X9329714Y-14457571D01*
X9315428Y-14443286D01*
X9286857Y-14429000D01*
X9229714Y-14429000D01*
X9201143Y-14443286D01*
X9186857Y-14457571D01*
X9172571Y-14486143D01*
X9458286Y-14314714D02*
X9458286Y-14371857D01*
X9572571Y-14314714D02*
X9572571Y-14371857D01*
X10015428Y-14729000D02*
X10001143Y-14714714D01*
X9972571Y-14671857D01*
X9958286Y-14643286D01*
X9944000Y-14600429D01*
X9929714Y-14529000D01*
X9929714Y-14471857D01*
X9944000Y-14400429D01*
X9958286Y-14357571D01*
X9972571Y-14329000D01*
X10001143Y-14286143D01*
X10015428Y-14271857D01*
X10258286Y-14414714D02*
X10258286Y-14614714D01*
X10186857Y-14300429D02*
X10115428Y-14514714D01*
X10301143Y-14514714D01*
X10644000Y-14614714D02*
X10644000Y-14314714D01*
X10772571Y-14614714D02*
X10772571Y-14457571D01*
X10758286Y-14429000D01*
X10729714Y-14414714D01*
X10686857Y-14414714D01*
X10658286Y-14429000D01*
X10644000Y-14443286D01*
X10958286Y-14614714D02*
X10929714Y-14600429D01*
X10915428Y-14586143D01*
X10901143Y-14557571D01*
X10901143Y-14471857D01*
X10915428Y-14443286D01*
X10929714Y-14429000D01*
X10958286Y-14414714D01*
X11001143Y-14414714D01*
X11029714Y-14429000D01*
X11044000Y-14443286D01*
X11058286Y-14471857D01*
X11058286Y-14557571D01*
X11044000Y-14586143D01*
X11029714Y-14600429D01*
X11001143Y-14614714D01*
X10958286Y-14614714D01*
X11229714Y-14614714D02*
X11201143Y-14600429D01*
X11186857Y-14571857D01*
X11186857Y-14314714D01*
X11458286Y-14600429D02*
X11429714Y-14614714D01*
X11372571Y-14614714D01*
X11344000Y-14600429D01*
X11329714Y-14571857D01*
X11329714Y-14457571D01*
X11344000Y-14429000D01*
X11372571Y-14414714D01*
X11429714Y-14414714D01*
X11458286Y-14429000D01*
X11472571Y-14457571D01*
X11472571Y-14486143D01*
X11329714Y-14514714D01*
X11586857Y-14600429D02*
X11615428Y-14614714D01*
X11672571Y-14614714D01*
X11701143Y-14600429D01*
X11715428Y-14571857D01*
X11715428Y-14557571D01*
X11701143Y-14529000D01*
X11672571Y-14514714D01*
X11629714Y-14514714D01*
X11601143Y-14500429D01*
X11586857Y-14471857D01*
X11586857Y-14457571D01*
X11601143Y-14429000D01*
X11629714Y-14414714D01*
X11672571Y-14414714D01*
X11701143Y-14429000D01*
X11815428Y-14729000D02*
X11829714Y-14714714D01*
X11858286Y-14671857D01*
X11872571Y-14643286D01*
X11886857Y-14600429D01*
X11901143Y-14529000D01*
X11901143Y-14471857D01*
X11886857Y-14400429D01*
X11872571Y-14357571D01*
X11858286Y-14329000D01*
X11829714Y-14286143D01*
X11815428Y-14271857D01*
X12358286Y-14729000D02*
X12344000Y-14714714D01*
X12315428Y-14671857D01*
X12301143Y-14643286D01*
X12286857Y-14600429D01*
X12272571Y-14529000D01*
X12272571Y-14471857D01*
X12286857Y-14400429D01*
X12301143Y-14357571D01*
X12315428Y-14329000D01*
X12344000Y-14286143D01*
X12358286Y-14271857D01*
X12472571Y-14414714D02*
X12472571Y-14614714D01*
X12472571Y-14443286D02*
X12486857Y-14429000D01*
X12515428Y-14414714D01*
X12558286Y-14414714D01*
X12586857Y-14429000D01*
X12601143Y-14457571D01*
X12601143Y-14614714D01*
X12786857Y-14614714D02*
X12758286Y-14600429D01*
X12744000Y-14586143D01*
X12729714Y-14557571D01*
X12729714Y-14471857D01*
X12744000Y-14443286D01*
X12758286Y-14429000D01*
X12786857Y-14414714D01*
X12829714Y-14414714D01*
X12858286Y-14429000D01*
X12872571Y-14443286D01*
X12886857Y-14471857D01*
X12886857Y-14557571D01*
X12872571Y-14586143D01*
X12858286Y-14600429D01*
X12829714Y-14614714D01*
X12786857Y-14614714D01*
X12972571Y-14414714D02*
X13086857Y-14414714D01*
X13015428Y-14314714D02*
X13015428Y-14571857D01*
X13029714Y-14600429D01*
X13058286Y-14614714D01*
X13086857Y-14614714D01*
X13415428Y-14414714D02*
X13415428Y-14714714D01*
X13415428Y-14429000D02*
X13444000Y-14414714D01*
X13501143Y-14414714D01*
X13529714Y-14429000D01*
X13544000Y-14443286D01*
X13558286Y-14471857D01*
X13558286Y-14557571D01*
X13544000Y-14586143D01*
X13529714Y-14600429D01*
X13501143Y-14614714D01*
X13444000Y-14614714D01*
X13415428Y-14600429D01*
X13729714Y-14614714D02*
X13701143Y-14600429D01*
X13686857Y-14571857D01*
X13686857Y-14314714D01*
X13972571Y-14614714D02*
X13972571Y-14457571D01*
X13958286Y-14429000D01*
X13929714Y-14414714D01*
X13872571Y-14414714D01*
X13844000Y-14429000D01*
X13972571Y-14600429D02*
X13944000Y-14614714D01*
X13872571Y-14614714D01*
X13844000Y-14600429D01*
X13829714Y-14571857D01*
X13829714Y-14543286D01*
X13844000Y-14514714D01*
X13872571Y-14500429D01*
X13944000Y-14500429D01*
X13972571Y-14486143D01*
X14072571Y-14414714D02*
X14186857Y-14414714D01*
X14115428Y-14314714D02*
X14115428Y-14571857D01*
X14129714Y-14600429D01*
X14158286Y-14614714D01*
X14186857Y-14614714D01*
X14401143Y-14600429D02*
X14372571Y-14614714D01*
X14315428Y-14614714D01*
X14286857Y-14600429D01*
X14272571Y-14571857D01*
X14272571Y-14457571D01*
X14286857Y-14429000D01*
X14315428Y-14414714D01*
X14372571Y-14414714D01*
X14401143Y-14429000D01*
X14415428Y-14457571D01*
X14415428Y-14486143D01*
X14272571Y-14514714D01*
X14672571Y-14614714D02*
X14672571Y-14314714D01*
X14672571Y-14600429D02*
X14644000Y-14614714D01*
X14586857Y-14614714D01*
X14558286Y-14600429D01*
X14544000Y-14586143D01*
X14529714Y-14557571D01*
X14529714Y-14471857D01*
X14544000Y-14443286D01*
X14558286Y-14429000D01*
X14586857Y-14414714D01*
X14644000Y-14414714D01*
X14672571Y-14429000D01*
X14786857Y-14729000D02*
X14801143Y-14714714D01*
X14829714Y-14671857D01*
X14844000Y-14643286D01*
X14858286Y-14600429D01*
X14872571Y-14529000D01*
X14872571Y-14471857D01*
X14858286Y-14400429D01*
X14844000Y-14357571D01*
X14829714Y-14329000D01*
X14801143Y-14286143D01*
X14786857Y-14271857D01*
M02*
