M48
; DRILL file {KiCad (5.1.9-0-10_14)} date Thursday, January 04, 2024 at 08:04:22 PM
; FORMAT={-:-/ absolute / metric / decimal}
; #@! TF.CreationDate,2024-01-04T20:04:22+01:00
; #@! TF.GenerationSoftware,Kicad,Pcbnew,(5.1.9-0-10_14)
; #@! TF.FileFunction,Plated,1,2,PTH
FMAT,2
METRIC
T1C0.400
T2C0.657
T3C0.800
T4C0.890
T5C1.000
T6C1.090
T7C1.100
T8C1.350
T9C1.400
T10C1.600
T11C2.290
T12C2.400
T13C2.900
%
G90
G05
T1
X143.514Y-94.59
T2
X127.2Y-109.22
X132.08Y-109.22
T3
X73.66Y-45.72
X73.66Y-66.04
X81.28Y-45.72
X81.28Y-66.04
X116.84Y-88.9
X116.84Y-96.52
X119.38Y-88.9
X119.38Y-96.52
X121.92Y-88.9
X121.92Y-96.52
X124.46Y-88.9
X124.46Y-96.52
X124.46Y-116.84
X126.96Y-116.84
X127.0Y-88.9
X127.0Y-96.52
X129.54Y-88.9
X129.54Y-96.52
X132.08Y-88.9
X132.08Y-96.52
X132.08Y-116.84
X132.16Y-101.6
X134.58Y-116.84
X134.62Y-88.9
X134.62Y-96.52
X137.16Y-88.9
X137.16Y-96.52
X137.16Y-101.6
X139.7Y-88.9
X139.7Y-96.52
X142.24Y-76.2
X142.24Y-83.82
X142.24Y-88.9
X142.24Y-96.52
X144.78Y-76.2
X144.78Y-83.82
X144.78Y-88.9
X144.78Y-96.52
X147.32Y-76.2
X147.32Y-83.82
X147.32Y-88.9
X147.32Y-96.52
X149.86Y-88.9
X149.86Y-96.52
X149.86Y-101.6
X149.86Y-109.22
X182.88Y-68.58
X182.88Y-76.2
X190.5Y-68.58
X190.5Y-71.12
X190.5Y-73.66
X190.5Y-76.2
X190.5Y-81.28
X198.12Y-68.58
X198.12Y-71.12
X198.12Y-73.66
X198.12Y-76.2
X198.12Y-81.28
X203.2Y-71.12
X203.2Y-78.74
T4
X217.775Y-73.025
X217.775Y-79.725
X220.265Y-73.025
X220.265Y-75.075
X220.265Y-77.675
X220.265Y-79.725
T5
X63.5Y-129.54
X66.0Y-129.54
X68.5Y-129.54
X88.9Y-78.74
X88.9Y-81.28
X91.44Y-78.74
X91.44Y-81.28
X93.98Y-78.74
X93.98Y-81.28
X114.3Y-66.04
X116.8Y-66.04
X119.3Y-66.04
X154.94Y-78.74
X154.94Y-81.28
X165.1Y-66.04
X167.6Y-66.04
X170.1Y-66.04
X215.9Y-129.54
X218.4Y-129.54
X220.9Y-129.54
T6
X139.965Y-124.46
X142.505Y-124.46
X145.045Y-124.46
T7
X218.44Y-106.68
X220.98Y-106.68
X223.52Y-106.68
T8
X56.08Y-53.38
X56.08Y-58.38
X226.18Y-52.5
X226.18Y-57.5
T9
X66.08Y-48.38
X66.08Y-55.88
X66.08Y-63.38
X68.58Y-50.88
X68.58Y-60.88
X213.68Y-50.0
X213.68Y-60.0
X216.18Y-47.5
X216.18Y-55.0
X216.18Y-62.5
T10
X214.95Y-91.475
X217.95Y-96.175
X220.95Y-91.475
T11
X223.265Y-69.615
X223.265Y-83.135
X224.075Y-76.375
T12
X61.08Y-48.38
X61.08Y-63.38
X221.18Y-47.5
X221.18Y-62.5
T13
X60.4Y-122.04
X71.6Y-122.04
X111.2Y-58.54
X122.4Y-58.54
X162.0Y-58.54
X173.2Y-58.54
X212.8Y-122.04
X224.0Y-122.04
T0
M30
