G04 #@! TF.GenerationSoftware,KiCad,Pcbnew,(5.1.9-0-10_14)*
G04 #@! TF.CreationDate,2024-01-04T20:03:31+01:00*
G04 #@! TF.ProjectId,v2_atmega8_encoder,76325f61-746d-4656-9761-385f656e636f,rev?*
G04 #@! TF.SameCoordinates,Original*
G04 #@! TF.FileFunction,Legend,Top*
G04 #@! TF.FilePolarity,Positive*
%FSLAX46Y46*%
G04 Gerber Fmt 4.6, Leading zero omitted, Abs format (unit mm)*
G04 Created by KiCad (PCBNEW (5.1.9-0-10_14)) date 2024-01-04 20:03:31*
%MOMM*%
%LPD*%
G01*
G04 APERTURE LIST*
%ADD10C,0.120000*%
%ADD11C,0.200000*%
%ADD12C,0.127000*%
%ADD13C,0.100000*%
%ADD14C,0.150000*%
%ADD15C,0.254000*%
%ADD16C,3.200000*%
%ADD17O,1.600000X1.600000*%
%ADD18R,1.600000X1.600000*%
%ADD19O,1.700000X1.700000*%
%ADD20R,1.700000X1.700000*%
%ADD21C,1.600000*%
%ADD22C,1.205000*%
%ADD23R,1.205000X1.205000*%
%ADD24O,1.905000X2.000000*%
%ADD25R,1.905000X2.000000*%
%ADD26C,1.839000*%
%ADD27C,3.600000*%
%ADD28C,2.000000*%
%ADD29C,2.100000*%
%ADD30C,2.600000*%
%ADD31R,2.600000X2.600000*%
%ADD32C,1.700000*%
%ADD33C,4.350000*%
%ADD34C,1.500000*%
%ADD35C,2.990000*%
G04 APERTURE END LIST*
D10*
X156270000Y-82610000D02*
X154940000Y-82610000D01*
X156270000Y-81280000D02*
X156270000Y-82610000D01*
X156270000Y-80010000D02*
X153610000Y-80010000D01*
X153610000Y-80010000D02*
X153610000Y-77410000D01*
X156270000Y-80010000D02*
X156270000Y-77410000D01*
X156270000Y-77410000D02*
X153610000Y-77410000D01*
D11*
X137855000Y-124460000D02*
G75*
G03*
X137855000Y-124460000I-100000J0D01*
G01*
D12*
X146570000Y-121920000D02*
X138440000Y-121920000D01*
X146570000Y-127000000D02*
X146570000Y-121920000D01*
X138440000Y-127000000D02*
X146570000Y-127000000D01*
X138440000Y-121920000D02*
X138440000Y-127000000D01*
D11*
X216000000Y-130640000D02*
X216000000Y-130640000D01*
X215800000Y-130640000D02*
X215800000Y-130640000D01*
D13*
X224600000Y-128640000D02*
X224600000Y-124580000D01*
X212200000Y-128640000D02*
X224600000Y-128640000D01*
X212200000Y-124580000D02*
X212200000Y-128640000D01*
X224600000Y-115440000D02*
X224600000Y-119500000D01*
X212200000Y-115440000D02*
X224600000Y-115440000D01*
X212200000Y-119500000D02*
X212200000Y-115440000D01*
D11*
X215800000Y-130640000D02*
G75*
G03*
X216000000Y-130640000I100000J0D01*
G01*
X216000000Y-130640000D02*
G75*
G03*
X215800000Y-130640000I-100000J0D01*
G01*
X165200000Y-67140000D02*
X165200000Y-67140000D01*
X165000000Y-67140000D02*
X165000000Y-67140000D01*
D13*
X173800000Y-65140000D02*
X173800000Y-61080000D01*
X161400000Y-65140000D02*
X173800000Y-65140000D01*
X161400000Y-61080000D02*
X161400000Y-65140000D01*
X173800000Y-51940000D02*
X173800000Y-56000000D01*
X161400000Y-51940000D02*
X173800000Y-51940000D01*
X161400000Y-56000000D02*
X161400000Y-51940000D01*
D11*
X165000000Y-67140000D02*
G75*
G03*
X165200000Y-67140000I100000J0D01*
G01*
X165200000Y-67140000D02*
G75*
G03*
X165000000Y-67140000I-100000J0D01*
G01*
X114400000Y-67140000D02*
X114400000Y-67140000D01*
X114200000Y-67140000D02*
X114200000Y-67140000D01*
D13*
X123000000Y-65140000D02*
X123000000Y-61080000D01*
X110600000Y-65140000D02*
X123000000Y-65140000D01*
X110600000Y-61080000D02*
X110600000Y-65140000D01*
X123000000Y-51940000D02*
X123000000Y-56000000D01*
X110600000Y-51940000D02*
X123000000Y-51940000D01*
X110600000Y-56000000D02*
X110600000Y-51940000D01*
D11*
X114200000Y-67140000D02*
G75*
G03*
X114400000Y-67140000I100000J0D01*
G01*
X114400000Y-67140000D02*
G75*
G03*
X114200000Y-67140000I-100000J0D01*
G01*
X63600000Y-130640000D02*
X63600000Y-130640000D01*
X63400000Y-130640000D02*
X63400000Y-130640000D01*
D13*
X72200000Y-128640000D02*
X72200000Y-124580000D01*
X59800000Y-128640000D02*
X72200000Y-128640000D01*
X59800000Y-124580000D02*
X59800000Y-128640000D01*
X72200000Y-115440000D02*
X72200000Y-119500000D01*
X59800000Y-115440000D02*
X72200000Y-115440000D01*
X59800000Y-119500000D02*
X59800000Y-115440000D01*
D11*
X63400000Y-130640000D02*
G75*
G03*
X63600000Y-130640000I100000J0D01*
G01*
X63600000Y-130640000D02*
G75*
G03*
X63400000Y-130640000I-100000J0D01*
G01*
D14*
X201057142Y-52132380D02*
X201057142Y-51132380D01*
X201057142Y-51608571D02*
X201628571Y-51608571D01*
X201628571Y-52132380D02*
X201628571Y-51132380D01*
X202295238Y-51132380D02*
X202485714Y-51132380D01*
X202580952Y-51180000D01*
X202676190Y-51275238D01*
X202723809Y-51465714D01*
X202723809Y-51799047D01*
X202676190Y-51989523D01*
X202580952Y-52084761D01*
X202485714Y-52132380D01*
X202295238Y-52132380D01*
X202200000Y-52084761D01*
X202104761Y-51989523D01*
X202057142Y-51799047D01*
X202057142Y-51465714D01*
X202104761Y-51275238D01*
X202200000Y-51180000D01*
X202295238Y-51132380D01*
X203628571Y-52132380D02*
X203152380Y-52132380D01*
X203152380Y-51132380D01*
X203961904Y-51608571D02*
X204295238Y-51608571D01*
X204438095Y-52132380D02*
X203961904Y-52132380D01*
X203961904Y-51132380D01*
X204438095Y-51132380D01*
X205295238Y-51465714D02*
X205295238Y-52132380D01*
X205057142Y-51084761D02*
X204819047Y-51799047D01*
X205438095Y-51799047D01*
X201057142Y-120712380D02*
X201057142Y-119712380D01*
X201057142Y-120188571D02*
X201628571Y-120188571D01*
X201628571Y-120712380D02*
X201628571Y-119712380D01*
X202295238Y-119712380D02*
X202485714Y-119712380D01*
X202580952Y-119760000D01*
X202676190Y-119855238D01*
X202723809Y-120045714D01*
X202723809Y-120379047D01*
X202676190Y-120569523D01*
X202580952Y-120664761D01*
X202485714Y-120712380D01*
X202295238Y-120712380D01*
X202200000Y-120664761D01*
X202104761Y-120569523D01*
X202057142Y-120379047D01*
X202057142Y-120045714D01*
X202104761Y-119855238D01*
X202200000Y-119760000D01*
X202295238Y-119712380D01*
X203628571Y-120712380D02*
X203152380Y-120712380D01*
X203152380Y-119712380D01*
X203961904Y-120188571D02*
X204295238Y-120188571D01*
X204438095Y-120712380D02*
X203961904Y-120712380D01*
X203961904Y-119712380D01*
X204438095Y-119712380D01*
X204771428Y-119712380D02*
X205390476Y-119712380D01*
X205057142Y-120093333D01*
X205200000Y-120093333D01*
X205295238Y-120140952D01*
X205342857Y-120188571D01*
X205390476Y-120283809D01*
X205390476Y-120521904D01*
X205342857Y-120617142D01*
X205295238Y-120664761D01*
X205200000Y-120712380D01*
X204914285Y-120712380D01*
X204819047Y-120664761D01*
X204771428Y-120617142D01*
X79137142Y-52132380D02*
X79137142Y-51132380D01*
X79137142Y-51608571D02*
X79708571Y-51608571D01*
X79708571Y-52132380D02*
X79708571Y-51132380D01*
X80375238Y-51132380D02*
X80565714Y-51132380D01*
X80660952Y-51180000D01*
X80756190Y-51275238D01*
X80803809Y-51465714D01*
X80803809Y-51799047D01*
X80756190Y-51989523D01*
X80660952Y-52084761D01*
X80565714Y-52132380D01*
X80375238Y-52132380D01*
X80280000Y-52084761D01*
X80184761Y-51989523D01*
X80137142Y-51799047D01*
X80137142Y-51465714D01*
X80184761Y-51275238D01*
X80280000Y-51180000D01*
X80375238Y-51132380D01*
X81708571Y-52132380D02*
X81232380Y-52132380D01*
X81232380Y-51132380D01*
X82041904Y-51608571D02*
X82375238Y-51608571D01*
X82518095Y-52132380D02*
X82041904Y-52132380D01*
X82041904Y-51132380D01*
X82518095Y-51132380D01*
X83470476Y-52132380D02*
X82899047Y-52132380D01*
X83184761Y-52132380D02*
X83184761Y-51132380D01*
X83089523Y-51275238D01*
X82994285Y-51370476D01*
X82899047Y-51418095D01*
X79137142Y-120712380D02*
X79137142Y-119712380D01*
X79137142Y-120188571D02*
X79708571Y-120188571D01*
X79708571Y-120712380D02*
X79708571Y-119712380D01*
X80375238Y-119712380D02*
X80565714Y-119712380D01*
X80660952Y-119760000D01*
X80756190Y-119855238D01*
X80803809Y-120045714D01*
X80803809Y-120379047D01*
X80756190Y-120569523D01*
X80660952Y-120664761D01*
X80565714Y-120712380D01*
X80375238Y-120712380D01*
X80280000Y-120664761D01*
X80184761Y-120569523D01*
X80137142Y-120379047D01*
X80137142Y-120045714D01*
X80184761Y-119855238D01*
X80280000Y-119760000D01*
X80375238Y-119712380D01*
X81708571Y-120712380D02*
X81232380Y-120712380D01*
X81232380Y-119712380D01*
X82041904Y-120188571D02*
X82375238Y-120188571D01*
X82518095Y-120712380D02*
X82041904Y-120712380D01*
X82041904Y-119712380D01*
X82518095Y-119712380D01*
X82899047Y-119807619D02*
X82946666Y-119760000D01*
X83041904Y-119712380D01*
X83280000Y-119712380D01*
X83375238Y-119760000D01*
X83422857Y-119807619D01*
X83470476Y-119902857D01*
X83470476Y-119998095D01*
X83422857Y-120140952D01*
X82851428Y-120712380D01*
X83470476Y-120712380D01*
X154130476Y-84062380D02*
X154130476Y-83062380D01*
X154463809Y-83776666D01*
X154797142Y-83062380D01*
X154797142Y-84062380D01*
X155797142Y-84062380D02*
X155225714Y-84062380D01*
X155511428Y-84062380D02*
X155511428Y-83062380D01*
X155416190Y-83205238D01*
X155320952Y-83300476D01*
X155225714Y-83348095D01*
X140219166Y-121372261D02*
X140362023Y-121419880D01*
X140600119Y-121419880D01*
X140695357Y-121372261D01*
X140742976Y-121324642D01*
X140790595Y-121229404D01*
X140790595Y-121134166D01*
X140742976Y-121038928D01*
X140695357Y-120991309D01*
X140600119Y-120943690D01*
X140409642Y-120896071D01*
X140314404Y-120848452D01*
X140266785Y-120800833D01*
X140219166Y-120705595D01*
X140219166Y-120610357D01*
X140266785Y-120515119D01*
X140314404Y-120467500D01*
X140409642Y-120419880D01*
X140647738Y-120419880D01*
X140790595Y-120467500D01*
X141123928Y-120419880D02*
X141362023Y-121419880D01*
X141552500Y-120705595D01*
X141742976Y-121419880D01*
X141981071Y-120419880D01*
X142314404Y-120515119D02*
X142362023Y-120467500D01*
X142457261Y-120419880D01*
X142695357Y-120419880D01*
X142790595Y-120467500D01*
X142838214Y-120515119D01*
X142885833Y-120610357D01*
X142885833Y-120705595D01*
X142838214Y-120848452D01*
X142266785Y-121419880D01*
X142885833Y-121419880D01*
D15*
X216857857Y-122999285D02*
X217281190Y-122999285D01*
X217462619Y-123664523D02*
X216857857Y-123664523D01*
X216857857Y-122394523D01*
X217462619Y-122394523D01*
X218006904Y-123664523D02*
X218006904Y-122394523D01*
X218732619Y-123664523D01*
X218732619Y-122394523D01*
X219881666Y-122817857D02*
X219881666Y-123664523D01*
X219579285Y-122334047D02*
X219276904Y-123241190D01*
X220063095Y-123241190D01*
X166057857Y-59499285D02*
X166481190Y-59499285D01*
X166662619Y-60164523D02*
X166057857Y-60164523D01*
X166057857Y-58894523D01*
X166662619Y-58894523D01*
X167206904Y-60164523D02*
X167206904Y-58894523D01*
X167932619Y-60164523D01*
X167932619Y-58894523D01*
X168416428Y-58894523D02*
X169202619Y-58894523D01*
X168779285Y-59378333D01*
X168960714Y-59378333D01*
X169081666Y-59438809D01*
X169142142Y-59499285D01*
X169202619Y-59620238D01*
X169202619Y-59922619D01*
X169142142Y-60043571D01*
X169081666Y-60104047D01*
X168960714Y-60164523D01*
X168597857Y-60164523D01*
X168476904Y-60104047D01*
X168416428Y-60043571D01*
X115257857Y-59499285D02*
X115681190Y-59499285D01*
X115862619Y-60164523D02*
X115257857Y-60164523D01*
X115257857Y-58894523D01*
X115862619Y-58894523D01*
X116406904Y-60164523D02*
X116406904Y-58894523D01*
X117132619Y-60164523D01*
X117132619Y-58894523D01*
X117676904Y-59015476D02*
X117737380Y-58955000D01*
X117858333Y-58894523D01*
X118160714Y-58894523D01*
X118281666Y-58955000D01*
X118342142Y-59015476D01*
X118402619Y-59136428D01*
X118402619Y-59257380D01*
X118342142Y-59438809D01*
X117616428Y-60164523D01*
X118402619Y-60164523D01*
X64457857Y-122999285D02*
X64881190Y-122999285D01*
X65062619Y-123664523D02*
X64457857Y-123664523D01*
X64457857Y-122394523D01*
X65062619Y-122394523D01*
X65606904Y-123664523D02*
X65606904Y-122394523D01*
X66332619Y-123664523D01*
X66332619Y-122394523D01*
X67602619Y-123664523D02*
X66876904Y-123664523D01*
X67239761Y-123664523D02*
X67239761Y-122394523D01*
X67118809Y-122575952D01*
X66997857Y-122696904D01*
X66876904Y-122757380D01*
%LPC*%
D16*
X203200000Y-55880000D03*
X203200000Y-124460000D03*
X81280000Y-55880000D03*
X81280000Y-124460000D03*
D17*
X147320000Y-76200000D03*
X142240000Y-83820000D03*
X144780000Y-76200000D03*
X144780000Y-83820000D03*
X142240000Y-76200000D03*
D18*
X147320000Y-83820000D03*
D19*
X154940000Y-78740000D03*
D20*
X154940000Y-81280000D03*
D17*
X149860000Y-109220000D03*
D21*
X149860000Y-101600000D03*
X134580000Y-116840000D03*
X132080000Y-116840000D03*
D22*
X127200000Y-109220000D03*
D23*
X132080000Y-109220000D03*
D24*
X218440000Y-106680000D03*
X220980000Y-106680000D03*
D25*
X223520000Y-106680000D03*
D17*
X198120000Y-76200000D03*
X190500000Y-68580000D03*
X198120000Y-73660000D03*
X190500000Y-71120000D03*
X198120000Y-71120000D03*
X190500000Y-73660000D03*
X198120000Y-68580000D03*
D18*
X190500000Y-76200000D03*
D26*
X142505000Y-124460000D03*
X145045000Y-124460000D03*
G36*
G01*
X139045500Y-125277500D02*
X139045500Y-123642500D01*
G75*
G02*
X139147500Y-123540500I102000J0D01*
G01*
X140782500Y-123540500D01*
G75*
G02*
X140884500Y-123642500I0J-102000D01*
G01*
X140884500Y-125277500D01*
G75*
G02*
X140782500Y-125379500I-102000J0D01*
G01*
X139147500Y-125379500D01*
G75*
G02*
X139045500Y-125277500I0J102000D01*
G01*
G37*
D17*
X203200000Y-71120000D03*
D21*
X203200000Y-78740000D03*
D17*
X198120000Y-81280000D03*
D21*
X190500000Y-81280000D03*
D17*
X73660000Y-66040000D03*
D21*
X81280000Y-66040000D03*
D17*
X81280000Y-45720000D03*
D21*
X73660000Y-45720000D03*
D27*
X61080000Y-48380000D03*
X61080000Y-63380000D03*
D28*
X56080000Y-53380000D03*
X56080000Y-58380000D03*
D29*
X68580000Y-60880000D03*
X68580000Y-50880000D03*
X66080000Y-63380000D03*
X66080000Y-55880000D03*
X66080000Y-48380000D03*
D27*
X221180000Y-62500000D03*
X221180000Y-47500000D03*
D28*
X226180000Y-57500000D03*
X226180000Y-52500000D03*
D29*
X213680000Y-50000000D03*
X213680000Y-60000000D03*
X216180000Y-47500000D03*
X216180000Y-55000000D03*
X216180000Y-62500000D03*
D30*
X217950000Y-96175000D03*
X220950000Y-91475000D03*
D31*
X214950000Y-91475000D03*
D32*
X88900000Y-78740000D03*
X91440000Y-78740000D03*
X93980000Y-78740000D03*
X88900000Y-81280000D03*
X91440000Y-81280000D03*
G36*
G01*
X94580000Y-82130000D02*
X93380000Y-82130000D01*
G75*
G02*
X93130000Y-81880000I0J250000D01*
G01*
X93130000Y-80680000D01*
G75*
G02*
X93380000Y-80430000I250000J0D01*
G01*
X94580000Y-80430000D01*
G75*
G02*
X94830000Y-80680000I0J-250000D01*
G01*
X94830000Y-81880000D01*
G75*
G02*
X94580000Y-82130000I-250000J0D01*
G01*
G37*
D33*
X224000000Y-122040000D03*
X212800000Y-122040000D03*
D34*
X218400000Y-129540000D03*
X220900000Y-129540000D03*
X215900000Y-129540000D03*
D33*
X173200000Y-58540000D03*
X162000000Y-58540000D03*
D34*
X167600000Y-66040000D03*
X170100000Y-66040000D03*
X165100000Y-66040000D03*
D33*
X122400000Y-58540000D03*
X111200000Y-58540000D03*
D34*
X116800000Y-66040000D03*
X119300000Y-66040000D03*
X114300000Y-66040000D03*
D33*
X71600000Y-122040000D03*
X60400000Y-122040000D03*
D34*
X66000000Y-129540000D03*
X68500000Y-129540000D03*
X63500000Y-129540000D03*
D21*
X132160000Y-101600000D03*
X137160000Y-101600000D03*
X126960000Y-116840000D03*
X124460000Y-116840000D03*
D35*
X223265000Y-69615000D03*
X224075000Y-76375000D03*
X223265000Y-83135000D03*
D21*
X217775000Y-79725000D03*
X217775000Y-73025000D03*
X220265000Y-79725000D03*
X220265000Y-73025000D03*
X220265000Y-77675000D03*
X220265000Y-75075000D03*
D17*
X149860000Y-88900000D03*
X116840000Y-96520000D03*
X147320000Y-88900000D03*
X119380000Y-96520000D03*
X144780000Y-88900000D03*
X121920000Y-96520000D03*
X142240000Y-88900000D03*
X124460000Y-96520000D03*
X139700000Y-88900000D03*
X127000000Y-96520000D03*
X137160000Y-88900000D03*
X129540000Y-96520000D03*
X134620000Y-88900000D03*
X132080000Y-96520000D03*
X132080000Y-88900000D03*
X134620000Y-96520000D03*
X129540000Y-88900000D03*
X137160000Y-96520000D03*
X127000000Y-88900000D03*
X139700000Y-96520000D03*
X124460000Y-88900000D03*
X142240000Y-96520000D03*
X121920000Y-88900000D03*
X144780000Y-96520000D03*
X119380000Y-88900000D03*
X147320000Y-96520000D03*
X116840000Y-88900000D03*
D18*
X149860000Y-96520000D03*
D17*
X182880000Y-68580000D03*
D18*
X182880000Y-76200000D03*
M02*
