G04 #@! TF.GenerationSoftware,KiCad,Pcbnew,(5.1.9-0-10_14)*
G04 #@! TF.CreationDate,2024-01-04T20:03:31+01:00*
G04 #@! TF.ProjectId,v2_atmega8_encoder,76325f61-746d-4656-9761-385f656e636f,rev?*
G04 #@! TF.SameCoordinates,Original*
G04 #@! TF.FileFunction,Legend,Bot*
G04 #@! TF.FilePolarity,Positive*
%FSLAX46Y46*%
G04 Gerber Fmt 4.6, Leading zero omitted, Abs format (unit mm)*
G04 Created by KiCad (PCBNEW (5.1.9-0-10_14)) date 2024-01-04 20:03:31*
%MOMM*%
%LPD*%
G01*
G04 APERTURE LIST*
%ADD10C,0.120000*%
%ADD11C,0.200000*%
%ADD12C,0.150000*%
%ADD13C,0.254000*%
%ADD14C,3.200000*%
%ADD15O,1.600000X1.600000*%
%ADD16R,1.600000X1.600000*%
%ADD17O,1.700000X1.700000*%
%ADD18R,1.700000X1.700000*%
%ADD19C,1.600000*%
%ADD20C,1.205000*%
%ADD21R,1.205000X1.205000*%
%ADD22O,1.905000X2.000000*%
%ADD23R,1.905000X2.000000*%
%ADD24C,1.839000*%
%ADD25C,3.600000*%
%ADD26C,2.000000*%
%ADD27C,2.100000*%
%ADD28C,2.600000*%
%ADD29R,2.600000X2.600000*%
%ADD30C,1.700000*%
%ADD31C,4.350000*%
%ADD32C,1.500000*%
%ADD33C,2.990000*%
G04 APERTURE END LIST*
D10*
X142875000Y-80686667D02*
X141605000Y-80686667D01*
X141675000Y-82040000D02*
X141675000Y-80686667D01*
X141795000Y-82040000D02*
X141795000Y-80686667D01*
X141915000Y-82040000D02*
X141915000Y-80686667D01*
X142035000Y-82040000D02*
X142035000Y-80686667D01*
X142155000Y-82040000D02*
X142155000Y-80686667D01*
X142275000Y-82040000D02*
X142275000Y-80686667D01*
X142395000Y-82040000D02*
X142395000Y-80686667D01*
X142515000Y-82040000D02*
X142515000Y-80686667D01*
X142635000Y-82040000D02*
X142635000Y-80686667D01*
X142755000Y-82040000D02*
X142755000Y-80686667D01*
X142875000Y-77980000D02*
X142875000Y-82040000D01*
X141605000Y-77980000D02*
X142875000Y-77980000D01*
X141605000Y-82040000D02*
X141605000Y-77980000D01*
X142875000Y-82040000D02*
X141605000Y-82040000D01*
X145415000Y-80686667D02*
X144145000Y-80686667D01*
X144215000Y-82040000D02*
X144215000Y-80686667D01*
X144335000Y-82040000D02*
X144335000Y-80686667D01*
X144455000Y-82040000D02*
X144455000Y-80686667D01*
X144575000Y-82040000D02*
X144575000Y-80686667D01*
X144695000Y-82040000D02*
X144695000Y-80686667D01*
X144815000Y-82040000D02*
X144815000Y-80686667D01*
X144935000Y-82040000D02*
X144935000Y-80686667D01*
X145055000Y-82040000D02*
X145055000Y-80686667D01*
X145175000Y-82040000D02*
X145175000Y-80686667D01*
X145295000Y-82040000D02*
X145295000Y-80686667D01*
X145415000Y-77980000D02*
X145415000Y-82040000D01*
X144145000Y-77980000D02*
X145415000Y-77980000D01*
X144145000Y-82040000D02*
X144145000Y-77980000D01*
X145415000Y-82040000D02*
X144145000Y-82040000D01*
X147955000Y-80686667D02*
X146685000Y-80686667D01*
X146755000Y-82040000D02*
X146755000Y-80686667D01*
X146875000Y-82040000D02*
X146875000Y-80686667D01*
X146995000Y-82040000D02*
X146995000Y-80686667D01*
X147115000Y-82040000D02*
X147115000Y-80686667D01*
X147235000Y-82040000D02*
X147235000Y-80686667D01*
X147355000Y-82040000D02*
X147355000Y-80686667D01*
X147475000Y-82040000D02*
X147475000Y-80686667D01*
X147595000Y-82040000D02*
X147595000Y-80686667D01*
X147715000Y-82040000D02*
X147715000Y-80686667D01*
X147835000Y-82040000D02*
X147835000Y-80686667D01*
X147955000Y-77980000D02*
X147955000Y-82040000D01*
X146685000Y-77980000D02*
X147955000Y-77980000D01*
X146685000Y-82040000D02*
X146685000Y-77980000D01*
X147955000Y-82040000D02*
X146685000Y-82040000D01*
X149980000Y-85200000D02*
X148597000Y-85200000D01*
X149980000Y-85200000D02*
X149980000Y-83816000D01*
X149740000Y-75060000D02*
X139820000Y-75060000D01*
X149740000Y-84960000D02*
X139820000Y-84960000D01*
X139820000Y-84960000D02*
X139820000Y-75060000D01*
X149740000Y-84960000D02*
X149740000Y-75060000D01*
X151230000Y-108680000D02*
X150900000Y-108680000D01*
X151230000Y-102140000D02*
X151230000Y-108680000D01*
X150900000Y-102140000D02*
X151230000Y-102140000D01*
X148490000Y-108680000D02*
X148820000Y-108680000D01*
X148490000Y-102140000D02*
X148490000Y-108680000D01*
X148820000Y-102140000D02*
X148490000Y-102140000D01*
X135950000Y-118210000D02*
X135950000Y-115470000D01*
X130710000Y-118210000D02*
X130710000Y-115470000D01*
X130710000Y-115470000D02*
X135950000Y-115470000D01*
X130710000Y-118210000D02*
X135950000Y-118210000D01*
D11*
X126390000Y-106720000D02*
X132890000Y-106720000D01*
X126390000Y-111720000D02*
X126390000Y-111720000D01*
X132890000Y-111720000D02*
X126390000Y-111720000D01*
X132890000Y-106720000D02*
X132890000Y-106720000D01*
X126390000Y-106720000D02*
G75*
G03*
X126390000Y-111720000I0J-2500000D01*
G01*
X132890000Y-111720000D02*
G75*
G03*
X132890000Y-106720000I0J2500000D01*
G01*
D10*
X219129000Y-103410000D02*
X219129000Y-104920000D01*
X222830000Y-103410000D02*
X222830000Y-104920000D01*
X226100000Y-104920000D02*
X215860000Y-104920000D01*
X215860000Y-103410000D02*
X215860000Y-108051000D01*
X226100000Y-103410000D02*
X226100000Y-108051000D01*
X226100000Y-108051000D02*
X215860000Y-108051000D01*
X226100000Y-103410000D02*
X215860000Y-103410000D01*
X199450000Y-77590000D02*
X189170000Y-77590000D01*
X199450000Y-67190000D02*
X199450000Y-77590000D01*
X189170000Y-67190000D02*
X199450000Y-67190000D01*
X189170000Y-77590000D02*
X189170000Y-67190000D01*
X196960000Y-77530000D02*
X195310000Y-77530000D01*
X196960000Y-67250000D02*
X196960000Y-77530000D01*
X191660000Y-67250000D02*
X196960000Y-67250000D01*
X191660000Y-77530000D02*
X191660000Y-67250000D01*
X193310000Y-77530000D02*
X191660000Y-77530000D01*
X195310000Y-77530000D02*
G75*
G03*
X193310000Y-77530000I-1000000J0D01*
G01*
X201830000Y-71660000D02*
X202160000Y-71660000D01*
X201830000Y-78200000D02*
X201830000Y-71660000D01*
X202160000Y-78200000D02*
X201830000Y-78200000D01*
X204570000Y-71660000D02*
X204240000Y-71660000D01*
X204570000Y-78200000D02*
X204570000Y-71660000D01*
X204240000Y-78200000D02*
X204570000Y-78200000D01*
X197580000Y-79910000D02*
X197580000Y-80240000D01*
X191040000Y-79910000D02*
X197580000Y-79910000D01*
X191040000Y-80240000D02*
X191040000Y-79910000D01*
X197580000Y-82650000D02*
X197580000Y-82320000D01*
X191040000Y-82650000D02*
X197580000Y-82650000D01*
X191040000Y-82320000D02*
X191040000Y-82650000D01*
X74200000Y-67410000D02*
X74200000Y-67080000D01*
X80740000Y-67410000D02*
X74200000Y-67410000D01*
X80740000Y-67080000D02*
X80740000Y-67410000D01*
X74200000Y-64670000D02*
X74200000Y-65000000D01*
X80740000Y-64670000D02*
X74200000Y-64670000D01*
X80740000Y-65000000D02*
X80740000Y-64670000D01*
X80740000Y-44350000D02*
X80740000Y-44680000D01*
X74200000Y-44350000D02*
X80740000Y-44350000D01*
X74200000Y-44680000D02*
X74200000Y-44350000D01*
X80740000Y-47090000D02*
X80740000Y-46760000D01*
X74200000Y-47090000D02*
X80740000Y-47090000D01*
X74200000Y-46760000D02*
X74200000Y-47090000D01*
D11*
X66835920Y-43947000D02*
G75*
G03*
X66835920Y-43947000I-173920J0D01*
G01*
X69780000Y-45280000D02*
X69780000Y-66480000D01*
X53580000Y-45280000D02*
X69780000Y-45280000D01*
X53580000Y-66480000D02*
X53580000Y-45280000D01*
X69780000Y-66480000D02*
X53580000Y-66480000D01*
X215771920Y-66933000D02*
G75*
G03*
X215771920Y-66933000I-173920J0D01*
G01*
X212480000Y-65600000D02*
X212480000Y-44400000D01*
X228680000Y-65600000D02*
X212480000Y-65600000D01*
X228680000Y-44400000D02*
X228680000Y-65600000D01*
X212480000Y-44400000D02*
X228680000Y-44400000D01*
D10*
X213910000Y-86635000D02*
X213910000Y-88375000D01*
X215650000Y-86635000D02*
X213910000Y-86635000D01*
X214150000Y-96075000D02*
X216150000Y-96075000D01*
X214150000Y-93275000D02*
X214150000Y-96075000D01*
X214150000Y-86875000D02*
X214150000Y-89675000D01*
X228750000Y-86875000D02*
X214150000Y-86875000D01*
X228750000Y-96075000D02*
X228750000Y-86875000D01*
X219750000Y-96075000D02*
X228750000Y-96075000D01*
X93480000Y-85960000D02*
X93980000Y-84960000D01*
X94480000Y-85960000D02*
X93480000Y-85960000D01*
X93980000Y-84960000D02*
X94480000Y-85960000D01*
X89390000Y-83260000D02*
X89390000Y-84570000D01*
X89390000Y-83260000D02*
X89390000Y-83260000D01*
X84990000Y-83260000D02*
X89390000Y-83260000D01*
X84990000Y-76760000D02*
X84990000Y-83260000D01*
X97890000Y-76760000D02*
X84990000Y-76760000D01*
X97890000Y-83260000D02*
X97890000Y-76760000D01*
X93490000Y-83260000D02*
X97890000Y-83260000D01*
X93490000Y-84570000D02*
X93490000Y-83260000D01*
X83690000Y-84570000D02*
X99190000Y-84570000D01*
X83690000Y-75450000D02*
X83690000Y-84570000D01*
X99190000Y-75450000D02*
X83690000Y-75450000D01*
X99190000Y-84570000D02*
X99190000Y-75450000D01*
X131990000Y-102655000D02*
X131990000Y-103321000D01*
X131990000Y-99879000D02*
X131990000Y-100545000D01*
X137330000Y-102655000D02*
X137330000Y-103321000D01*
X137330000Y-99879000D02*
X137330000Y-100545000D01*
X137330000Y-103321000D02*
X131990000Y-103321000D01*
X137330000Y-99879000D02*
X131990000Y-99879000D01*
X128330000Y-118210000D02*
X128330000Y-115470000D01*
X123090000Y-118210000D02*
X123090000Y-115470000D01*
X123090000Y-115470000D02*
X128330000Y-115470000D01*
X123090000Y-118210000D02*
X128330000Y-118210000D01*
D12*
X228775000Y-69517000D02*
X228775000Y-83233000D01*
X215775000Y-69517000D02*
X228775000Y-69517000D01*
X215821000Y-83233000D02*
X215821000Y-69517000D01*
X228775000Y-83233000D02*
X215775000Y-83233000D01*
D10*
X151190000Y-90060000D02*
X151190000Y-91710000D01*
X115510000Y-90060000D02*
X151190000Y-90060000D01*
X115510000Y-95360000D02*
X115510000Y-90060000D01*
X151190000Y-95360000D02*
X115510000Y-95360000D01*
X151190000Y-93710000D02*
X151190000Y-95360000D01*
X151190000Y-91710000D02*
G75*
G03*
X151190000Y-93710000I0J-1000000D01*
G01*
X184000000Y-73910000D02*
X181760000Y-73910000D01*
X184000000Y-73670000D02*
X181760000Y-73670000D01*
X184000000Y-73790000D02*
X181760000Y-73790000D01*
X182880000Y-69620000D02*
X182880000Y-70270000D01*
X182880000Y-75160000D02*
X182880000Y-74510000D01*
X184000000Y-70270000D02*
X184000000Y-74510000D01*
X181760000Y-70270000D02*
X184000000Y-70270000D01*
X181760000Y-74510000D02*
X181760000Y-70270000D01*
X184000000Y-74510000D02*
X181760000Y-74510000D01*
D12*
X151144761Y-78676666D02*
X151192380Y-78819523D01*
X151192380Y-79057619D01*
X151144761Y-79152857D01*
X151097142Y-79200476D01*
X151001904Y-79248095D01*
X150906666Y-79248095D01*
X150811428Y-79200476D01*
X150763809Y-79152857D01*
X150716190Y-79057619D01*
X150668571Y-78867142D01*
X150620952Y-78771904D01*
X150573333Y-78724285D01*
X150478095Y-78676666D01*
X150382857Y-78676666D01*
X150287619Y-78724285D01*
X150240000Y-78771904D01*
X150192380Y-78867142D01*
X150192380Y-79105238D01*
X150240000Y-79248095D01*
X150192380Y-79581428D02*
X151192380Y-79819523D01*
X150478095Y-80010000D01*
X151192380Y-80200476D01*
X150192380Y-80438571D01*
X151192380Y-81343333D02*
X151192380Y-80771904D01*
X151192380Y-81057619D02*
X150192380Y-81057619D01*
X150335238Y-80962380D01*
X150430476Y-80867142D01*
X150478095Y-80771904D01*
X147942380Y-105243333D02*
X147466190Y-104910000D01*
X147942380Y-104671904D02*
X146942380Y-104671904D01*
X146942380Y-105052857D01*
X146990000Y-105148095D01*
X147037619Y-105195714D01*
X147132857Y-105243333D01*
X147275714Y-105243333D01*
X147370952Y-105195714D01*
X147418571Y-105148095D01*
X147466190Y-105052857D01*
X147466190Y-104671904D01*
X147942380Y-106195714D02*
X147942380Y-105624285D01*
X147942380Y-105910000D02*
X146942380Y-105910000D01*
X147085238Y-105814761D01*
X147180476Y-105719523D01*
X147228095Y-105624285D01*
X133496666Y-119697142D02*
X133544285Y-119744761D01*
X133687142Y-119792380D01*
X133782380Y-119792380D01*
X133925238Y-119744761D01*
X134020476Y-119649523D01*
X134068095Y-119554285D01*
X134115714Y-119363809D01*
X134115714Y-119220952D01*
X134068095Y-119030476D01*
X134020476Y-118935238D01*
X133925238Y-118840000D01*
X133782380Y-118792380D01*
X133687142Y-118792380D01*
X133544285Y-118840000D01*
X133496666Y-118887619D01*
X132544285Y-119792380D02*
X133115714Y-119792380D01*
X132830000Y-119792380D02*
X132830000Y-118792380D01*
X132925238Y-118935238D01*
X133020476Y-119030476D01*
X133115714Y-119078095D01*
D13*
X130244761Y-109189761D02*
X130244761Y-109794523D01*
X130668095Y-108524523D02*
X130244761Y-109189761D01*
X129821428Y-108524523D01*
X128732857Y-109794523D02*
X129458571Y-109794523D01*
X129095714Y-109794523D02*
X129095714Y-108524523D01*
X129216666Y-108705952D01*
X129337619Y-108826904D01*
X129458571Y-108887380D01*
D12*
X221741904Y-101862380D02*
X221741904Y-102671904D01*
X221694285Y-102767142D01*
X221646666Y-102814761D01*
X221551428Y-102862380D01*
X221360952Y-102862380D01*
X221265714Y-102814761D01*
X221218095Y-102767142D01*
X221170476Y-102671904D01*
X221170476Y-101862380D01*
X220789523Y-101862380D02*
X220170476Y-101862380D01*
X220503809Y-102243333D01*
X220360952Y-102243333D01*
X220265714Y-102290952D01*
X220218095Y-102338571D01*
X220170476Y-102433809D01*
X220170476Y-102671904D01*
X220218095Y-102767142D01*
X220265714Y-102814761D01*
X220360952Y-102862380D01*
X220646666Y-102862380D01*
X220741904Y-102814761D01*
X220789523Y-102767142D01*
X195071904Y-77982380D02*
X195071904Y-78791904D01*
X195024285Y-78887142D01*
X194976666Y-78934761D01*
X194881428Y-78982380D01*
X194690952Y-78982380D01*
X194595714Y-78934761D01*
X194548095Y-78887142D01*
X194500476Y-78791904D01*
X194500476Y-77982380D01*
X193500476Y-78982380D02*
X194071904Y-78982380D01*
X193786190Y-78982380D02*
X193786190Y-77982380D01*
X193881428Y-78125238D01*
X193976666Y-78220476D01*
X194071904Y-78268095D01*
X206022380Y-74763333D02*
X205546190Y-74430000D01*
X206022380Y-74191904D02*
X205022380Y-74191904D01*
X205022380Y-74572857D01*
X205070000Y-74668095D01*
X205117619Y-74715714D01*
X205212857Y-74763333D01*
X205355714Y-74763333D01*
X205450952Y-74715714D01*
X205498571Y-74668095D01*
X205546190Y-74572857D01*
X205546190Y-74191904D01*
X205022380Y-75668095D02*
X205022380Y-75191904D01*
X205498571Y-75144285D01*
X205450952Y-75191904D01*
X205403333Y-75287142D01*
X205403333Y-75525238D01*
X205450952Y-75620476D01*
X205498571Y-75668095D01*
X205593809Y-75715714D01*
X205831904Y-75715714D01*
X205927142Y-75668095D01*
X205974761Y-75620476D01*
X206022380Y-75525238D01*
X206022380Y-75287142D01*
X205974761Y-75191904D01*
X205927142Y-75144285D01*
X194476666Y-84102380D02*
X194810000Y-83626190D01*
X195048095Y-84102380D02*
X195048095Y-83102380D01*
X194667142Y-83102380D01*
X194571904Y-83150000D01*
X194524285Y-83197619D01*
X194476666Y-83292857D01*
X194476666Y-83435714D01*
X194524285Y-83530952D01*
X194571904Y-83578571D01*
X194667142Y-83626190D01*
X195048095Y-83626190D01*
X193619523Y-83435714D02*
X193619523Y-84102380D01*
X193857619Y-83054761D02*
X194095714Y-83769047D01*
X193476666Y-83769047D01*
X77636666Y-64122380D02*
X77970000Y-63646190D01*
X78208095Y-64122380D02*
X78208095Y-63122380D01*
X77827142Y-63122380D01*
X77731904Y-63170000D01*
X77684285Y-63217619D01*
X77636666Y-63312857D01*
X77636666Y-63455714D01*
X77684285Y-63550952D01*
X77731904Y-63598571D01*
X77827142Y-63646190D01*
X78208095Y-63646190D01*
X77303333Y-63122380D02*
X76684285Y-63122380D01*
X77017619Y-63503333D01*
X76874761Y-63503333D01*
X76779523Y-63550952D01*
X76731904Y-63598571D01*
X76684285Y-63693809D01*
X76684285Y-63931904D01*
X76731904Y-64027142D01*
X76779523Y-64074761D01*
X76874761Y-64122380D01*
X77160476Y-64122380D01*
X77255714Y-64074761D01*
X77303333Y-64027142D01*
X77636666Y-48542380D02*
X77970000Y-48066190D01*
X78208095Y-48542380D02*
X78208095Y-47542380D01*
X77827142Y-47542380D01*
X77731904Y-47590000D01*
X77684285Y-47637619D01*
X77636666Y-47732857D01*
X77636666Y-47875714D01*
X77684285Y-47970952D01*
X77731904Y-48018571D01*
X77827142Y-48066190D01*
X78208095Y-48066190D01*
X77255714Y-47637619D02*
X77208095Y-47590000D01*
X77112857Y-47542380D01*
X76874761Y-47542380D01*
X76779523Y-47590000D01*
X76731904Y-47637619D01*
X76684285Y-47732857D01*
X76684285Y-47828095D01*
X76731904Y-47970952D01*
X77303333Y-48542380D01*
X76684285Y-48542380D01*
D13*
X60771476Y-60897952D02*
X62041476Y-60897952D01*
X61134333Y-60474619D01*
X62041476Y-60051285D01*
X60771476Y-60051285D01*
X60771476Y-59446523D02*
X62041476Y-59446523D01*
X60771476Y-58841761D02*
X62041476Y-58841761D01*
X62041476Y-58539380D01*
X61981000Y-58357952D01*
X61860047Y-58237000D01*
X61739095Y-58176523D01*
X61497190Y-58116047D01*
X61315761Y-58116047D01*
X61073857Y-58176523D01*
X60952904Y-58237000D01*
X60831952Y-58357952D01*
X60771476Y-58539380D01*
X60771476Y-58841761D01*
X60771476Y-57571761D02*
X62041476Y-57571761D01*
X60650523Y-57269380D02*
X60650523Y-56301761D01*
X62041476Y-55757476D02*
X62041476Y-55515571D01*
X61981000Y-55394619D01*
X61860047Y-55273666D01*
X61618142Y-55213190D01*
X61194809Y-55213190D01*
X60952904Y-55273666D01*
X60831952Y-55394619D01*
X60771476Y-55515571D01*
X60771476Y-55757476D01*
X60831952Y-55878428D01*
X60952904Y-55999380D01*
X61194809Y-56059857D01*
X61618142Y-56059857D01*
X61860047Y-55999380D01*
X61981000Y-55878428D01*
X62041476Y-55757476D01*
X62041476Y-54668904D02*
X61013380Y-54668904D01*
X60892428Y-54608428D01*
X60831952Y-54547952D01*
X60771476Y-54427000D01*
X60771476Y-54185095D01*
X60831952Y-54064142D01*
X60892428Y-54003666D01*
X61013380Y-53943190D01*
X62041476Y-53943190D01*
X62041476Y-53519857D02*
X62041476Y-52794142D01*
X60771476Y-53157000D02*
X62041476Y-53157000D01*
X60771476Y-51705571D02*
X60771476Y-52431285D01*
X60771476Y-52068428D02*
X62041476Y-52068428D01*
X61860047Y-52189380D01*
X61739095Y-52310333D01*
X61678619Y-52431285D01*
X221488523Y-50828714D02*
X220218523Y-50828714D01*
X221125666Y-51252047D01*
X220218523Y-51675380D01*
X221488523Y-51675380D01*
X221488523Y-52280142D02*
X220218523Y-52280142D01*
X221488523Y-52884904D02*
X220218523Y-52884904D01*
X220218523Y-53187285D01*
X220279000Y-53368714D01*
X220399952Y-53489666D01*
X220520904Y-53550142D01*
X220762809Y-53610619D01*
X220944238Y-53610619D01*
X221186142Y-53550142D01*
X221307095Y-53489666D01*
X221428047Y-53368714D01*
X221488523Y-53187285D01*
X221488523Y-52884904D01*
X221488523Y-54154904D02*
X220218523Y-54154904D01*
X221609476Y-54457285D02*
X221609476Y-55424904D01*
X221488523Y-55727285D02*
X220218523Y-55727285D01*
X221488523Y-56332047D02*
X220218523Y-56332047D01*
X221488523Y-57057761D01*
X220218523Y-57057761D01*
X221488523Y-58327761D02*
X221488523Y-57602047D01*
X221488523Y-57964904D02*
X220218523Y-57964904D01*
X220399952Y-57843952D01*
X220520904Y-57723000D01*
X220581380Y-57602047D01*
D12*
X223733333Y-96677380D02*
X223733333Y-97391666D01*
X223780952Y-97534523D01*
X223876190Y-97629761D01*
X224019047Y-97677380D01*
X224114285Y-97677380D01*
X223304761Y-96772619D02*
X223257142Y-96725000D01*
X223161904Y-96677380D01*
X222923809Y-96677380D01*
X222828571Y-96725000D01*
X222780952Y-96772619D01*
X222733333Y-96867857D01*
X222733333Y-96963095D01*
X222780952Y-97105952D01*
X223352380Y-97677380D01*
X222733333Y-97677380D01*
X99532380Y-79676666D02*
X100246666Y-79676666D01*
X100389523Y-79629047D01*
X100484761Y-79533809D01*
X100532380Y-79390952D01*
X100532380Y-79295714D01*
X100532380Y-80676666D02*
X100532380Y-80105238D01*
X100532380Y-80390952D02*
X99532380Y-80390952D01*
X99675238Y-80295714D01*
X99770476Y-80200476D01*
X99818095Y-80105238D01*
X134826666Y-99107142D02*
X134874285Y-99154761D01*
X135017142Y-99202380D01*
X135112380Y-99202380D01*
X135255238Y-99154761D01*
X135350476Y-99059523D01*
X135398095Y-98964285D01*
X135445714Y-98773809D01*
X135445714Y-98630952D01*
X135398095Y-98440476D01*
X135350476Y-98345238D01*
X135255238Y-98250000D01*
X135112380Y-98202380D01*
X135017142Y-98202380D01*
X134874285Y-98250000D01*
X134826666Y-98297619D01*
X134493333Y-98202380D02*
X133874285Y-98202380D01*
X134207619Y-98583333D01*
X134064761Y-98583333D01*
X133969523Y-98630952D01*
X133921904Y-98678571D01*
X133874285Y-98773809D01*
X133874285Y-99011904D01*
X133921904Y-99107142D01*
X133969523Y-99154761D01*
X134064761Y-99202380D01*
X134350476Y-99202380D01*
X134445714Y-99154761D01*
X134493333Y-99107142D01*
X125876666Y-117197142D02*
X125924285Y-117244761D01*
X126067142Y-117292380D01*
X126162380Y-117292380D01*
X126305238Y-117244761D01*
X126400476Y-117149523D01*
X126448095Y-117054285D01*
X126495714Y-116863809D01*
X126495714Y-116720952D01*
X126448095Y-116530476D01*
X126400476Y-116435238D01*
X126305238Y-116340000D01*
X126162380Y-116292380D01*
X126067142Y-116292380D01*
X125924285Y-116340000D01*
X125876666Y-116387619D01*
X125495714Y-116387619D02*
X125448095Y-116340000D01*
X125352857Y-116292380D01*
X125114761Y-116292380D01*
X125019523Y-116340000D01*
X124971904Y-116387619D01*
X124924285Y-116482857D01*
X124924285Y-116578095D01*
X124971904Y-116720952D01*
X125543333Y-117292380D01*
X124924285Y-117292380D01*
X213227380Y-84041666D02*
X213941666Y-84041666D01*
X214084523Y-83994047D01*
X214179761Y-83898809D01*
X214227380Y-83755952D01*
X214227380Y-83660714D01*
X213227380Y-84422619D02*
X213227380Y-85041666D01*
X213608333Y-84708333D01*
X213608333Y-84851190D01*
X213655952Y-84946428D01*
X213703571Y-84994047D01*
X213798809Y-85041666D01*
X214036904Y-85041666D01*
X214132142Y-84994047D01*
X214179761Y-84946428D01*
X214227380Y-84851190D01*
X214227380Y-84565476D01*
X214179761Y-84470238D01*
X214132142Y-84422619D01*
X151642380Y-91948095D02*
X152451904Y-91948095D01*
X152547142Y-91995714D01*
X152594761Y-92043333D01*
X152642380Y-92138571D01*
X152642380Y-92329047D01*
X152594761Y-92424285D01*
X152547142Y-92471904D01*
X152451904Y-92519523D01*
X151642380Y-92519523D01*
X151737619Y-92948095D02*
X151690000Y-92995714D01*
X151642380Y-93090952D01*
X151642380Y-93329047D01*
X151690000Y-93424285D01*
X151737619Y-93471904D01*
X151832857Y-93519523D01*
X151928095Y-93519523D01*
X152070952Y-93471904D01*
X152642380Y-92900476D01*
X152642380Y-93519523D01*
X185452380Y-71651904D02*
X184452380Y-71651904D01*
X184452380Y-71890000D01*
X184500000Y-72032857D01*
X184595238Y-72128095D01*
X184690476Y-72175714D01*
X184880952Y-72223333D01*
X185023809Y-72223333D01*
X185214285Y-72175714D01*
X185309523Y-72128095D01*
X185404761Y-72032857D01*
X185452380Y-71890000D01*
X185452380Y-71651904D01*
X185452380Y-73175714D02*
X185452380Y-72604285D01*
X185452380Y-72890000D02*
X184452380Y-72890000D01*
X184595238Y-72794761D01*
X184690476Y-72699523D01*
X184738095Y-72604285D01*
X185132380Y-75938095D02*
X184132380Y-75938095D01*
X185132380Y-76509523D02*
X184560952Y-76080952D01*
X184132380Y-76509523D02*
X184703809Y-75938095D01*
%LPC*%
D14*
X203200000Y-55880000D03*
X203200000Y-124460000D03*
X81280000Y-55880000D03*
X81280000Y-124460000D03*
D15*
X147320000Y-76200000D03*
X142240000Y-83820000D03*
X144780000Y-76200000D03*
X144780000Y-83820000D03*
X142240000Y-76200000D03*
D16*
X147320000Y-83820000D03*
D17*
X154940000Y-78740000D03*
D18*
X154940000Y-81280000D03*
D15*
X149860000Y-109220000D03*
D19*
X149860000Y-101600000D03*
X134580000Y-116840000D03*
X132080000Y-116840000D03*
D20*
X127200000Y-109220000D03*
D21*
X132080000Y-109220000D03*
D22*
X218440000Y-106680000D03*
X220980000Y-106680000D03*
D23*
X223520000Y-106680000D03*
D15*
X198120000Y-76200000D03*
X190500000Y-68580000D03*
X198120000Y-73660000D03*
X190500000Y-71120000D03*
X198120000Y-71120000D03*
X190500000Y-73660000D03*
X198120000Y-68580000D03*
D16*
X190500000Y-76200000D03*
D24*
X142505000Y-124460000D03*
X145045000Y-124460000D03*
G36*
G01*
X139045500Y-125277500D02*
X139045500Y-123642500D01*
G75*
G02*
X139147500Y-123540500I102000J0D01*
G01*
X140782500Y-123540500D01*
G75*
G02*
X140884500Y-123642500I0J-102000D01*
G01*
X140884500Y-125277500D01*
G75*
G02*
X140782500Y-125379500I-102000J0D01*
G01*
X139147500Y-125379500D01*
G75*
G02*
X139045500Y-125277500I0J102000D01*
G01*
G37*
D15*
X203200000Y-71120000D03*
D19*
X203200000Y-78740000D03*
D15*
X198120000Y-81280000D03*
D19*
X190500000Y-81280000D03*
D15*
X73660000Y-66040000D03*
D19*
X81280000Y-66040000D03*
D15*
X81280000Y-45720000D03*
D19*
X73660000Y-45720000D03*
D25*
X61080000Y-48380000D03*
X61080000Y-63380000D03*
D26*
X56080000Y-53380000D03*
X56080000Y-58380000D03*
D27*
X68580000Y-60880000D03*
X68580000Y-50880000D03*
X66080000Y-63380000D03*
X66080000Y-55880000D03*
X66080000Y-48380000D03*
D25*
X221180000Y-62500000D03*
X221180000Y-47500000D03*
D26*
X226180000Y-57500000D03*
X226180000Y-52500000D03*
D27*
X213680000Y-50000000D03*
X213680000Y-60000000D03*
X216180000Y-47500000D03*
X216180000Y-55000000D03*
X216180000Y-62500000D03*
D28*
X217950000Y-96175000D03*
X220950000Y-91475000D03*
D29*
X214950000Y-91475000D03*
D30*
X88900000Y-78740000D03*
X91440000Y-78740000D03*
X93980000Y-78740000D03*
X88900000Y-81280000D03*
X91440000Y-81280000D03*
G36*
G01*
X94580000Y-82130000D02*
X93380000Y-82130000D01*
G75*
G02*
X93130000Y-81880000I0J250000D01*
G01*
X93130000Y-80680000D01*
G75*
G02*
X93380000Y-80430000I250000J0D01*
G01*
X94580000Y-80430000D01*
G75*
G02*
X94830000Y-80680000I0J-250000D01*
G01*
X94830000Y-81880000D01*
G75*
G02*
X94580000Y-82130000I-250000J0D01*
G01*
G37*
D31*
X224000000Y-122040000D03*
X212800000Y-122040000D03*
D32*
X218400000Y-129540000D03*
X220900000Y-129540000D03*
X215900000Y-129540000D03*
D31*
X173200000Y-58540000D03*
X162000000Y-58540000D03*
D32*
X167600000Y-66040000D03*
X170100000Y-66040000D03*
X165100000Y-66040000D03*
D31*
X122400000Y-58540000D03*
X111200000Y-58540000D03*
D32*
X116800000Y-66040000D03*
X119300000Y-66040000D03*
X114300000Y-66040000D03*
D31*
X71600000Y-122040000D03*
X60400000Y-122040000D03*
D32*
X66000000Y-129540000D03*
X68500000Y-129540000D03*
X63500000Y-129540000D03*
D19*
X132160000Y-101600000D03*
X137160000Y-101600000D03*
X126960000Y-116840000D03*
X124460000Y-116840000D03*
D33*
X223265000Y-69615000D03*
X224075000Y-76375000D03*
X223265000Y-83135000D03*
D19*
X217775000Y-79725000D03*
X217775000Y-73025000D03*
X220265000Y-79725000D03*
X220265000Y-73025000D03*
X220265000Y-77675000D03*
X220265000Y-75075000D03*
D15*
X149860000Y-88900000D03*
X116840000Y-96520000D03*
X147320000Y-88900000D03*
X119380000Y-96520000D03*
X144780000Y-88900000D03*
X121920000Y-96520000D03*
X142240000Y-88900000D03*
X124460000Y-96520000D03*
X139700000Y-88900000D03*
X127000000Y-96520000D03*
X137160000Y-88900000D03*
X129540000Y-96520000D03*
X134620000Y-88900000D03*
X132080000Y-96520000D03*
X132080000Y-88900000D03*
X134620000Y-96520000D03*
X129540000Y-88900000D03*
X137160000Y-96520000D03*
X127000000Y-88900000D03*
X139700000Y-96520000D03*
X124460000Y-88900000D03*
X142240000Y-96520000D03*
X121920000Y-88900000D03*
X144780000Y-96520000D03*
X119380000Y-88900000D03*
X147320000Y-96520000D03*
X116840000Y-88900000D03*
D16*
X149860000Y-96520000D03*
D15*
X182880000Y-68580000D03*
D16*
X182880000Y-76200000D03*
M02*
